<svg width="681" height="85" viewBox="0 0 681 85" fill="none" xmlns="http://www.w3.org/2000/svg">
<g clip-path="url(#clip0_1_365)">
<path fill-rule="evenodd" clip-rule="evenodd" d="M281 60.65V26.04H306.86V33.73H290V52.96H306.86V60.65H281ZM317.48 60.62V32.9H345.37V60.62H317.48ZM336.37 52.92V40.28H326.48V52.92H336.37ZM356.67 32.9H365.06L372.88 39.21C374.18 38.17 375.49 37.12 376.83 36.06C378.17 35 379.47 33.95 380.74 32.91H389.09V60.62H380.09V44.02C378.82 45.08 377.58 46.13 376.38 47.17C375.18 48.21 374.01 49.23 372.87 50.22L365.69 44.02V60.62H356.65V32.9H356.67ZM425.78 52.47H408.47V60.61H399.43V32.9H425.78V52.47ZM416.78 40.28H408.47V44.75H416.78V40.28ZM438.1 40.62H433.72V32.93H458.61V60.65H449.61V56.25H442.64C442.42 56.94 442.19 57.7 441.95 58.52C441.71 59.34 441.48 60.05 441.26 60.65H431.98L438.1 40.62ZM449.61 48.56V40.62H447.38C447.16 41.36 446.96 42.04 446.77 42.66C446.58 43.28 446.39 43.91 446.2 44.53C446.01 45.15 445.81 45.79 445.61 46.44C445.41 47.09 445.18 47.79 444.94 48.55H449.61V48.56ZM468.82 60.65V32.93H494.68V40.62H477.82V52.96H494.68V60.65H468.82ZM529.01 40.31H520.58V60.62H510.97V40.31H502.62V32.9H529.01V40.31ZM574.1 33.42H565.67V60.62H556.06V33.42H547.71V26H574.1V33.42ZM580.52 60.62V32.9H608.41V60.62H580.52ZM599.41 52.92V40.28H589.52V52.92H599.41ZM618.86 60.62V32.9H646.75V60.62H618.86ZM637.75 52.92V40.28H627.86V52.92H637.75ZM681.32 49.29V60.66H657.2V32.93H666.2V52.96H672.32V49.29H681.32Z" fill="#C8E1D0"/>
<path d="M92.7171 30.818C92.7171 24.918 92.7171 19.078 92.7171 13.228C92.7171 13.168 92.7371 13.108 92.7571 13.038C92.8371 13.028 92.8971 13.008 92.9571 13.008C95.7671 13.008 98.5771 13.008 101.377 13.008C101.527 13.188 101.467 13.368 101.467 13.538C101.467 15.258 101.467 16.978 101.467 18.698C101.467 19.658 101.467 20.628 101.467 21.588C101.467 21.748 101.437 21.908 101.517 22.068C101.557 22.078 101.597 22.108 101.647 22.108C136.527 22.108 171.417 22.118 206.297 22.118C206.357 22.118 206.417 22.098 206.497 22.088C206.577 21.908 206.547 21.728 206.547 21.558C206.547 19.498 206.547 17.448 206.547 15.388C206.547 14.778 206.547 14.168 206.547 13.558C206.547 13.398 206.547 13.238 206.547 13.108C206.697 12.958 206.847 13.008 206.987 13.008C208.067 13.008 209.137 13.008 210.217 13.008C211.707 13.008 213.207 13.008 214.697 13.008C214.877 13.008 215.047 13.008 215.237 13.008C215.257 13.128 215.287 13.218 215.287 13.308C215.297 13.418 215.287 13.528 215.287 13.648C215.287 19.178 215.287 24.708 215.287 30.238C215.287 30.428 215.307 30.618 215.267 30.788C215.217 30.818 215.187 30.848 215.157 30.848C174.457 30.858 133.757 30.858 93.0571 30.868C92.9671 30.848 92.8771 30.838 92.7171 30.818Z" stroke="black" stroke-opacity="0.17" stroke-miterlimit="10"/>
<path d="M149.277 127.738C146.337 127.738 143.467 127.738 140.577 127.738C140.557 127.628 140.537 127.548 140.527 127.468C140.517 127.278 140.527 127.078 140.527 126.888C140.527 100.738 140.527 74.588 140.527 48.438C140.527 48.198 140.517 47.958 140.517 47.698C140.397 47.678 140.307 47.658 140.217 47.658C140.037 47.648 139.867 47.658 139.687 47.658C124.157 47.658 108.627 47.658 93.0971 47.658C92.8771 47.658 92.6471 47.678 92.4171 47.628C92.3371 47.458 92.3671 47.278 92.3671 47.108C92.3671 45.248 92.3671 43.378 92.3671 41.518C92.3671 40.808 92.3671 40.108 92.3671 39.398C92.3671 39.258 92.3771 39.118 92.3871 38.998C92.4271 38.968 92.4371 38.948 92.4471 38.948C92.4571 38.938 92.4771 38.938 92.4971 38.938C111.317 38.938 130.147 38.928 148.967 38.928C149.047 38.928 149.127 38.938 149.227 38.948C149.247 39.038 149.267 39.128 149.277 39.218C149.287 39.358 149.277 39.508 149.277 39.648C149.277 68.768 149.277 97.888 149.277 127.018C149.287 127.228 149.277 127.448 149.277 127.738Z" stroke="black" stroke-opacity="0.17" stroke-miterlimit="10"/>
<path d="M167.107 127.448C164.177 127.448 161.327 127.448 158.437 127.448C158.417 127.358 158.387 127.268 158.387 127.178C158.377 127.038 158.387 126.888 158.387 126.748C158.387 97.608 158.387 68.468 158.387 39.338C158.387 39.128 158.387 38.928 158.387 38.698C158.507 38.678 158.597 38.658 158.687 38.648C158.817 38.638 158.947 38.648 159.077 38.648C177.597 38.648 196.117 38.648 214.637 38.648C214.847 38.648 215.047 38.618 215.237 38.668C215.267 38.698 215.277 38.718 215.287 38.728C215.297 38.738 215.307 38.758 215.307 38.768C215.317 41.518 215.317 44.268 215.317 47.008C215.317 47.108 215.307 47.198 215.297 47.318C215.207 47.338 215.117 47.378 215.027 47.378C214.847 47.388 214.677 47.378 214.497 47.378C198.957 47.378 183.407 47.378 167.867 47.378C167.647 47.378 167.417 47.338 167.177 47.428C167.167 47.498 167.137 47.578 167.137 47.658C167.127 47.848 167.137 48.048 167.137 48.238C167.137 74.388 167.137 100.538 167.137 126.688C167.117 126.928 167.117 127.168 167.107 127.448Z" stroke="black" stroke-opacity="0.17" stroke-miterlimit="10"/>
<path d="M215.267 56.128C215.287 56.258 215.307 56.338 215.307 56.418C215.307 59.208 215.307 62.008 215.307 64.828C215.187 64.848 215.107 64.878 215.017 64.878C214.857 64.888 214.697 64.878 214.537 64.878C204.797 64.878 195.057 64.878 185.317 64.878C185.107 64.878 184.907 64.888 184.677 64.888C184.667 65.008 184.647 65.098 184.647 65.188C184.647 65.368 184.647 65.538 184.647 65.718C184.647 80.488 184.647 95.258 184.647 110.028C184.647 110.238 184.647 110.448 184.647 110.668C184.537 110.698 184.447 110.728 184.357 110.738C184.247 110.748 184.137 110.738 184.017 110.738C181.507 110.738 178.997 110.738 176.497 110.738C176.307 110.738 176.117 110.778 175.917 110.678C175.907 110.598 175.887 110.518 175.887 110.448C175.887 92.388 175.897 74.318 175.897 56.258C175.897 56.228 175.927 56.208 175.947 56.158C175.997 56.148 176.057 56.128 176.117 56.128C189.137 56.128 202.177 56.128 215.267 56.128Z" stroke="black" stroke-opacity="0.17" stroke-miterlimit="10"/>
<path d="M131.417 112.078C130.947 112.148 126.687 112.168 123.137 112.128C123.007 112.128 122.887 112.108 122.737 112.098C122.727 111.988 122.707 111.898 122.697 111.808C122.687 111.648 122.697 111.488 122.697 111.328C122.697 96.528 122.697 81.728 122.697 66.928C122.697 66.728 122.717 66.518 122.667 66.288C121.977 66.238 121.307 66.268 120.637 66.268C119.947 66.258 119.257 66.268 118.567 66.268C117.887 66.268 117.217 66.268 116.537 66.268C115.857 66.268 115.187 66.268 114.507 66.268C113.827 66.268 113.157 66.268 112.477 66.268C111.787 66.268 111.097 66.268 110.407 66.268C109.727 66.268 109.057 66.268 108.377 66.268C107.697 66.268 107.027 66.268 106.347 66.268C105.667 66.268 104.997 66.268 104.317 66.268C103.627 66.268 102.937 66.268 102.247 66.268C101.567 66.268 100.897 66.268 100.217 66.268C99.5371 66.268 98.8671 66.268 98.1871 66.268C97.5071 66.268 96.8371 66.268 96.1571 66.268C95.4671 66.268 94.7771 66.268 94.0871 66.268C93.4171 66.268 92.7371 66.268 92.0771 66.268C91.9671 66.078 92.0071 65.898 92.0071 65.728C92.0071 64.058 92.0071 62.388 92.0071 60.718C92.0071 59.838 92.0071 58.948 92.0071 58.068C92.0071 57.908 92.0171 57.748 92.0171 57.578C92.1271 57.558 92.2271 57.538 92.3171 57.528C92.4471 57.518 92.5771 57.528 92.7071 57.528C105.387 57.528 118.077 57.528 130.757 57.528C130.967 57.528 131.167 57.498 131.397 57.568C131.407 57.668 131.427 57.758 131.437 57.848C131.447 57.988 131.437 58.138 131.437 58.278C131.437 75.988 131.437 93.698 131.437 111.408C131.457 111.608 131.487 111.838 131.417 112.078Z" stroke="black" stroke-opacity="0.17" stroke-miterlimit="10"/>
<path d="M0.109993 19.25C0.109993 12.72 0.109993 6.24001 0.109993 -0.269991C0.209993 -0.299991 0.299993 -0.329991 0.399993 -0.339991C0.519993 -0.349991 0.649994 -0.339991 0.769994 -0.339991C3.52999 -0.339991 6.27999 -0.339991 9.03999 -0.339991C9.24999 -0.339991 9.45999 -0.37999 9.66999 -0.27999C9.74999 -0.0899901 9.70999 0.11001 9.70999 0.30001C9.70999 3.20001 9.70999 6.09001 9.70999 8.99001C9.70999 9.20001 9.68999 9.41001 9.73999 9.59001C9.77999 9.62001 9.78999 9.63001 9.80999 9.64001C9.81999 9.65001 9.83999 9.66001 9.85999 9.66001C48.13 9.67001 86.4 9.67001 124.67 9.67001C124.79 9.67001 124.92 9.67001 125.04 9.66001C125.07 9.66001 125.1 9.64001 125.17 9.61001C125.24 9.45001 125.21 9.25001 125.21 9.06001C125.21 6.76001 125.21 4.47001 125.21 2.17001C125.21 1.53001 125.21 0.90001 125.21 0.26001C125.21 0.0800099 125.21 -0.0899901 125.21 -0.23999C125.39 -0.39999 125.58 -0.349991 125.75 -0.349991C127.02 -0.349991 128.29 -0.349991 129.57 -0.349991C131.12 -0.349991 132.68 -0.349991 134.23 -0.349991C134.42 -0.349991 134.62 -0.39999 134.79 -0.27999C134.86 0.26001 134.9 16 134.83 18.9C134.83 19 134.81 19.1 134.8 19.2C134.73 19.23 134.68 19.26 134.63 19.26C89.91 19.27 45.19 19.27 0.469994 19.27C0.369994 19.28 0.269993 19.26 0.109993 19.25Z" fill="#ABC9B5"/>
<path d="M62.65 126.47C62.15 126.54 53.56 126.55 53.08 126.48C53.06 126.39 53.04 126.29 53.03 126.19C53.02 126 53.03 125.8 53.03 125.61C53.03 96.87 53.03 68.12 53.03 39.38C53.03 39.12 53.03 38.85 53.03 38.57C52.9 38.55 52.8 38.52 52.7 38.52C52.52 38.51 52.35 38.52 52.17 38.52C35.07 38.52 17.96 38.52 0.859996 38.52C0.629996 38.52 0.409996 38.52 0.199996 38.51C0.0499965 38.32 0.109996 38.14 0.109996 37.97C0.109996 36.4 0.109996 34.83 0.109996 33.25C0.109996 32 0.109996 30.74 0.109996 29.49C0.109996 29.32 0.119997 29.14 0.119997 28.94C0.239997 28.92 0.339996 28.89 0.439996 28.89C0.599996 28.88 0.759997 28.89 0.919997 28.89C21.24 28.89 41.56 28.89 61.88 28.89C62.11 28.89 62.34 28.89 62.59 28.89C62.62 29.01 62.65 29.1 62.66 29.2C62.67 29.36 62.66 29.52 62.66 29.68C62.66 61.71 62.66 93.74 62.66 125.77C62.65 125.98 62.65 126.21 62.65 126.47Z" fill="#ABC9B5"/>
<path d="M82.56 126.46C82.04 126.54 73.49 126.55 72.99 126.47C72.98 126.38 72.96 126.28 72.96 126.18C72.95 126.04 72.96 125.9 72.96 125.76C72.96 93.73 72.96 61.7 72.96 29.67C72.96 29.43 72.92 29.18 73 28.96C73.05 28.93 73.08 28.9 73.12 28.9C93.83 28.89 114.54 28.89 135.25 28.89C135.32 28.89 135.39 28.91 135.46 28.92C135.57 29.11 135.52 29.31 135.52 29.49C135.52 31.04 135.52 32.6 135.52 34.15C135.52 35.4 135.52 36.66 135.52 37.91C135.52 38.08 135.51 38.26 135.5 38.46C135.38 38.48 135.28 38.5 135.18 38.5C135 38.51 134.83 38.5 134.65 38.5C117.55 38.5 100.44 38.5 83.34 38.5C83.11 38.5 82.88 38.5 82.63 38.5C82.6 38.63 82.57 38.72 82.57 38.82C82.56 39.03 82.57 39.24 82.57 39.46C82.57 68.19 82.57 96.91 82.57 125.64C82.56 125.91 82.56 126.17 82.56 126.46Z" fill="#ABC9B5"/>
<path d="M0.0899963 57.67C0.0899963 54.49 0.0899963 51.35 0.0899963 48.18C0.229996 48.16 0.329996 48.13 0.419996 48.13C0.579996 48.12 0.739996 48.13 0.899996 48.13C14.81 48.13 28.71 48.13 42.62 48.13C42.87 48.13 43.11 48.12 43.37 48.16C43.39 48.28 43.42 48.38 43.42 48.49C43.43 48.65 43.42 48.81 43.42 48.97C43.42 68.44 43.42 87.91 43.42 107.38C43.42 107.62 43.44 107.87 43.4 108.08C43.36 108.12 43.35 108.14 43.33 108.14C43.31 108.15 43.3 108.15 43.28 108.15C40.33 108.16 37.38 108.16 34.43 108.17C34.25 108.17 34.08 108.17 33.88 108.17C33.85 108.05 33.82 107.96 33.81 107.86C33.8 107.67 33.81 107.47 33.81 107.28C33.81 91.03 33.81 74.77 33.81 58.52C33.81 58.29 33.81 58.06 33.81 57.81C33.69 57.78 33.59 57.75 33.49 57.74C33.31 57.73 33.14 57.74 32.96 57.74C22.25 57.74 11.54 57.74 0.829996 57.74C0.609996 57.72 0.379996 57.74 0.0899963 57.67Z" fill="#ABC9B5"/>
<path d="M101.07 108.11C100.99 108.13 100.92 108.15 100.85 108.15C97.76 108.15 94.67 108.15 91.55 108.15C91.52 108.03 91.49 107.93 91.49 107.83C91.48 107.69 91.49 107.55 91.49 107.41C91.49 87.89 91.49 68.37 91.49 48.84C91.49 48.63 91.5 48.42 91.5 48.18C91.62 48.16 91.72 48.13 91.81 48.12C91.97 48.11 92.13 48.12 92.29 48.12C106.2 48.12 120.1 48.12 134.01 48.12C134.26 48.12 134.5 48.08 134.74 48.16C134.87 48.3 134.82 48.47 134.82 48.62C134.82 49.96 134.82 51.31 134.82 52.65C134.82 54.12 134.82 55.58 134.82 57.05C134.82 57.24 134.82 57.43 134.82 57.65C134.7 57.68 134.6 57.71 134.5 57.71C134.32 57.72 134.15 57.71 133.97 57.71C123.26 57.71 112.55 57.71 101.84 57.71C101.61 57.71 101.39 57.69 101.14 57.74C101.12 57.84 101.1 57.92 101.1 58.01C101.09 58.2 101.1 58.4 101.1 58.59C101.1 74.84 101.1 91.1 101.1 107.35C101.11 107.61 101.14 107.85 101.07 108.11Z" fill="#ABC9B5"/>
</g>
<defs>
<clipPath id="clip0_1_365">
<rect width="681" height="85" fill="white"/>
</clipPath>
</defs>
</svg>
