<svg width="498" height="127" viewBox="0 0 498 127" fill="none" xmlns="http://www.w3.org/2000/svg">
<g clip-path="url(#clip0_1_390)">
<path fill-rule="evenodd" clip-rule="evenodd" d="M160.73 83.64V55.41H181.82V61.68H168.07V77.36H181.82V83.63H160.73V83.64ZM190.48 83.61V61H213.23V83.61H190.48ZM205.88 77.33V67.01H197.81V77.33H205.88ZM222.44 61H229.28L235.66 66.14C236.72 65.29 237.79 64.43 238.88 63.57C239.97 62.7 241.03 61.85 242.07 61H248.88V83.61H241.54V70.07C240.5 70.94 239.5 71.79 238.52 72.64C237.54 73.49 236.59 74.32 235.66 75.13L229.81 70.07V83.61H222.44V61ZM278.81 76.97H264.69V83.61H257.32V61H278.81V76.97ZM271.47 67.02H264.69V70.67H271.47V67.02ZM288.86 67.3H285.29V61.03H305.59V83.64H298.25V80.05H292.56C292.38 80.62 292.2 81.23 292 81.9C291.8 82.57 291.61 83.15 291.44 83.64H283.87L288.86 67.3ZM298.25 73.77V67.3H296.43C296.25 67.9 296.09 68.46 295.93 68.97C295.78 69.48 295.62 69.99 295.47 70.5C295.32 71.01 295.16 71.53 294.99 72.05C294.82 72.58 294.64 73.15 294.44 73.77H298.25ZM313.91 83.64V61.03H335V67.3H321.25V77.36H335V83.63H313.91V83.64ZM363.01 67.05H356.13V83.61H348.29V67.05H341.48V61H363V67.05H363.01ZM399.79 61.43H392.91V83.61H385.07V61.43H378.26V55.38H399.78V61.43H399.79ZM405.02 83.61V61H427.77V83.61H405.02ZM420.43 77.33V67.01H412.36V77.33H420.43ZM436.29 83.61V61H459.04V83.61H436.29ZM451.7 77.33V67.01H443.63V77.33H451.7ZM487.24 74.37V83.64H467.57V61.03H474.91V77.37H479.9V74.37H487.24Z" fill="#00A757"/>
<path d="M0.019989 19.6103C0.019989 13.0803 0.019989 6.60033 0.019989 0.0903302C0.119989 0.0603302 0.209989 0.0303305 0.309989 0.0203305C0.429989 0.0103305 0.55999 0.0203305 0.67999 0.0203305C3.43999 0.0203305 6.18999 0.0203305 8.94999 0.0203305C9.15999 0.0203305 9.36999 -0.0196691 9.57999 0.0803309C9.65999 0.270331 9.61999 0.470331 9.61999 0.660331C9.61999 3.56033 9.61999 6.45033 9.61999 9.35033C9.61999 9.56033 9.59999 9.77033 9.64999 9.95033C9.68999 9.98033 9.69999 9.99033 9.71999 10.0003C9.72999 10.0103 9.74999 10.0203 9.76999 10.0203C48.04 10.0303 86.31 10.0303 124.58 10.0303C124.7 10.0303 124.83 10.0303 124.95 10.0203C124.98 10.0203 125.01 10.0003 125.08 9.97033C125.15 9.81033 125.12 9.61033 125.12 9.42033C125.12 7.12033 125.12 4.83033 125.12 2.53033C125.12 1.89033 125.12 1.26033 125.12 0.620331C125.12 0.440331 125.12 0.270331 125.12 0.120331C125.3 -0.0396691 125.49 0.0103303 125.66 0.0103303C126.93 0.0103303 128.2 0.0103303 129.48 0.0103303C131.03 0.0103303 132.59 0.0103303 134.14 0.0103303C134.33 0.0103303 134.53 -0.0396691 134.7 0.0803309C134.77 0.620331 134.81 16.3603 134.74 19.2603C134.74 19.3603 134.72 19.4603 134.71 19.5603C134.64 19.5903 134.59 19.6203 134.54 19.6203C89.82 19.6303 45.1 19.6303 0.37999 19.6303C0.27999 19.6403 0.179989 19.6203 0.019989 19.6103Z" fill="black"/>
<path d="M62.56 126.83C62.06 126.9 53.47 126.91 52.99 126.84C52.97 126.75 52.95 126.65 52.94 126.55C52.93 126.36 52.94 126.16 52.94 125.97C52.94 97.2303 52.94 68.4803 52.94 39.7403C52.94 39.4803 52.94 39.2103 52.94 38.9303C52.81 38.9103 52.71 38.8803 52.61 38.8803C52.43 38.8703 52.26 38.8803 52.08 38.8803C34.98 38.8803 17.87 38.8803 0.77 38.8803C0.54 38.8803 0.32 38.8803 0.11 38.8703C-0.0399999 38.6803 0.02 38.5003 0.02 38.3303C0.02 36.7603 0.02 35.1903 0.02 33.6103C0.02 32.3603 0.02 31.1003 0.02 29.8503C0.02 29.6803 0.0300002 29.5003 0.0300002 29.3003C0.15 29.2803 0.25 29.2503 0.35 29.2503C0.51 29.2403 0.67 29.2503 0.83 29.2503C21.15 29.2503 41.47 29.2503 61.79 29.2503C62.02 29.2503 62.25 29.2503 62.5 29.2503C62.53 29.3703 62.56 29.4603 62.57 29.5603C62.58 29.7203 62.57 29.8803 62.57 30.0403C62.57 62.0703 62.57 94.1003 62.57 126.13C62.56 126.34 62.56 126.57 62.56 126.83Z" fill="black"/>
<path d="M82.47 126.82C81.95 126.9 73.4 126.91 72.9 126.83C72.89 126.74 72.87 126.64 72.87 126.54C72.86 126.4 72.87 126.26 72.87 126.12C72.87 94.0903 72.87 62.0603 72.87 30.0303C72.87 29.7903 72.83 29.5403 72.91 29.3203C72.96 29.2903 72.99 29.2603 73.03 29.2603C93.74 29.2503 114.45 29.2503 135.16 29.2503C135.23 29.2503 135.3 29.2703 135.37 29.2803C135.48 29.4703 135.43 29.6703 135.43 29.8503C135.43 31.4003 135.43 32.9603 135.43 34.5103C135.43 35.7603 135.43 37.0203 135.43 38.2703C135.43 38.4403 135.42 38.6203 135.41 38.8203C135.29 38.8403 135.19 38.8603 135.09 38.8603C134.91 38.8703 134.74 38.8603 134.56 38.8603C117.46 38.8603 100.35 38.8603 83.25 38.8603C83.02 38.8603 82.79 38.8603 82.54 38.8603C82.51 38.9903 82.48 39.0803 82.48 39.1803C82.47 39.3903 82.48 39.6003 82.48 39.8203C82.48 68.5503 82.48 97.2703 82.48 126C82.47 126.27 82.47 126.53 82.47 126.82Z" fill="black"/>
<path d="M0 58.0303C0 54.8503 0 51.7103 0 48.5403C0.14 48.5203 0.24 48.4903 0.33 48.4903C0.49 48.4803 0.649999 48.4903 0.809999 48.4903C14.72 48.4903 28.62 48.4903 42.53 48.4903C42.78 48.4903 43.02 48.4803 43.28 48.5203C43.3 48.6403 43.33 48.7403 43.33 48.8503C43.34 49.0103 43.33 49.1703 43.33 49.3303C43.33 68.8003 43.33 88.2703 43.33 107.74C43.33 107.98 43.35 108.23 43.31 108.44C43.27 108.48 43.26 108.5 43.24 108.5C43.22 108.51 43.21 108.51 43.19 108.51C40.24 108.52 37.29 108.52 34.34 108.53C34.16 108.53 33.99 108.53 33.79 108.53C33.76 108.41 33.73 108.32 33.72 108.22C33.71 108.03 33.72 107.83 33.72 107.64C33.72 91.3903 33.72 75.1303 33.72 58.8803C33.72 58.6503 33.72 58.4203 33.72 58.1703C33.6 58.1403 33.5 58.1103 33.4 58.1003C33.22 58.0903 33.05 58.1003 32.87 58.1003C22.16 58.1003 11.45 58.1003 0.74 58.1003C0.52 58.0803 0.29 58.1003 0 58.0303Z" fill="black"/>
<path d="M100.98 108.47C100.9 108.49 100.83 108.51 100.76 108.51C97.67 108.51 94.58 108.51 91.46 108.51C91.43 108.39 91.4 108.29 91.4 108.19C91.39 108.05 91.4 107.91 91.4 107.77C91.4 88.2503 91.4 68.7303 91.4 49.2003C91.4 48.9903 91.41 48.7803 91.41 48.5403C91.53 48.5203 91.63 48.4903 91.72 48.4803C91.88 48.4703 92.04 48.4803 92.2 48.4803C106.11 48.4803 120.01 48.4803 133.92 48.4803C134.17 48.4803 134.41 48.4403 134.65 48.5203C134.78 48.6603 134.73 48.8303 134.73 48.9803C134.73 50.3203 134.73 51.6703 134.73 53.0103C134.73 54.4803 134.73 55.9403 134.73 57.4103C134.73 57.6003 134.73 57.7903 134.73 58.0103C134.61 58.0403 134.51 58.0703 134.41 58.0703C134.23 58.0803 134.06 58.0703 133.88 58.0703C123.17 58.0703 112.46 58.0703 101.75 58.0703C101.52 58.0703 101.3 58.0503 101.05 58.1003C101.03 58.2003 101.01 58.2803 101.01 58.3703C101 58.5603 101.01 58.7603 101.01 58.9503C101.01 75.2003 101.01 91.4603 101.01 107.71C101.02 107.97 101.05 108.21 100.98 108.47Z" fill="black"/>
<path d="M489.501 30.1992C490.976 30.1992 492.391 30.5698 493.747 31.311C495.102 32.0448 496.165 33.1004 496.936 34.478C497.715 35.8556 498.104 37.2969 498.104 38.8018C498.104 40.2992 497.722 41.7292 496.958 43.0918C496.202 44.4469 495.143 45.5063 493.78 46.27C492.425 47.0262 490.999 47.4043 489.501 47.4043C488.004 47.4043 486.574 47.0262 485.211 46.27C483.856 45.5063 482.797 44.4469 482.033 43.0918C481.277 41.7292 480.899 40.2992 480.899 38.8018C480.899 37.2969 481.285 35.8556 482.056 34.478C482.834 33.1004 483.901 32.0448 485.256 31.311C486.611 30.5698 488.027 30.1992 489.501 30.1992ZM489.513 31.8838C488.33 31.8838 487.195 32.1795 486.11 32.771C485.024 33.3625 484.167 34.2122 483.538 35.3203C482.917 36.4284 482.606 37.5889 482.606 38.8018C482.606 40.0072 482.909 41.1564 483.516 42.2495C484.13 43.3426 484.983 44.1961 486.076 44.8101C487.169 45.424 488.315 45.731 489.513 45.731C490.718 45.731 491.864 45.424 492.949 44.8101C494.042 44.1961 494.896 43.3426 495.51 42.2495C496.124 41.1564 496.431 40.0072 496.431 38.8018C496.431 37.5889 496.116 36.4284 495.487 35.3203C494.866 34.2122 494.009 33.3625 492.916 32.771C491.83 32.1795 490.696 31.8838 489.513 31.8838ZM485.616 43.4062V34.2759H487.469C489.206 34.2759 490.179 34.2834 490.389 34.2983C491.003 34.3507 491.478 34.4743 491.815 34.6689C492.159 34.8561 492.444 35.1481 492.668 35.5449C492.901 35.9342 493.017 36.3685 493.017 36.8477C493.017 37.5065 492.799 38.0718 492.365 38.5435C491.938 39.0076 491.336 39.2959 490.557 39.4082C490.834 39.513 491.048 39.6291 491.197 39.7563C491.347 39.8761 491.553 40.1082 491.815 40.4526C491.882 40.5425 492.107 40.9131 492.489 41.5645L493.567 43.4062H491.276L490.512 41.9238C489.996 40.9281 489.569 40.3029 489.232 40.0483C488.895 39.7863 488.468 39.6553 487.952 39.6553H487.469V43.4062H485.616ZM487.469 38.2178H488.221C489.292 38.2178 489.954 38.1766 490.209 38.0942C490.471 38.0119 490.677 37.8696 490.827 37.6675C490.976 37.4578 491.051 37.222 491.051 36.96C491.051 36.7054 490.976 36.4808 490.827 36.2861C490.684 36.084 490.479 35.9417 490.209 35.8594C489.939 35.7695 489.277 35.7246 488.221 35.7246H487.469V38.2178Z" fill="black"/>
</g>
<defs>
<clipPath id="clip0_1_390">
<rect width="498" height="127" fill="white"/>
</clipPath>
</defs>
</svg>
