<svg width="136" height="127" viewBox="0 0 136 127" fill="none" xmlns="http://www.w3.org/2000/svg">
<path d="M0.0199995 19.6103C0.0199995 13.0803 0.0199995 6.60033 0.0199995 0.0903302C0.12 0.0603302 0.209999 0.0303305 0.309999 0.0203305C0.429999 0.0103305 0.56 0.0203305 0.68 0.0203305C3.44 0.0203305 6.19 0.0203305 8.95 0.0203305C9.16 0.0203305 9.37 -0.0196691 9.58 0.0803309C9.66 0.270331 9.62 0.470331 9.62 0.660331C9.62 3.56033 9.62 6.45033 9.62 9.35033C9.62 9.56033 9.6 9.77033 9.65 9.95033C9.69 9.98033 9.7 9.99033 9.72 10.0003C9.73 10.0103 9.75 10.0203 9.77 10.0203C48.04 10.0303 86.31 10.0303 124.58 10.0303C124.7 10.0303 124.83 10.0303 124.95 10.0203C124.98 10.0203 125.01 10.0003 125.08 9.97033C125.15 9.81033 125.12 9.61033 125.12 9.42033C125.12 7.12033 125.12 4.83033 125.12 2.53033C125.12 1.89033 125.12 1.26033 125.12 0.620331C125.12 0.440331 125.12 0.270331 125.12 0.120331C125.3 -0.0396691 125.49 0.0103303 125.66 0.0103303C126.93 0.0103303 128.2 0.0103303 129.48 0.0103303C131.03 0.0103303 132.59 0.0103303 134.14 0.0103303C134.33 0.0103303 134.53 -0.0396691 134.7 0.0803309C134.77 0.620331 134.81 16.3603 134.74 19.2603C134.74 19.3603 134.72 19.4603 134.71 19.5603C134.64 19.5903 134.59 19.6203 134.54 19.6203C89.82 19.6303 45.1 19.6303 0.38 19.6303C0.28 19.6403 0.18 19.6203 0.0199995 19.6103Z" fill="black"/>
<path d="M62.56 126.83C62.06 126.9 53.47 126.91 52.99 126.84C52.97 126.75 52.95 126.65 52.94 126.55C52.93 126.36 52.94 126.16 52.94 125.97C52.94 97.2303 52.94 68.4803 52.94 39.7403C52.94 39.4803 52.94 39.2103 52.94 38.9303C52.81 38.9103 52.71 38.8803 52.61 38.8803C52.43 38.8703 52.26 38.8803 52.08 38.8803C34.98 38.8803 17.87 38.8803 0.769999 38.8803C0.539999 38.8803 0.319999 38.8803 0.109999 38.8703C-0.0400008 38.6803 0.019999 38.5003 0.019999 38.3303C0.019999 36.7603 0.019999 35.1903 0.019999 33.6103C0.019999 32.3603 0.019999 31.1003 0.019999 29.8503C0.019999 29.6803 0.0299993 29.5003 0.0299993 29.3003C0.149999 29.2803 0.249999 29.2503 0.349999 29.2503C0.509999 29.2403 0.669999 29.2503 0.829999 29.2503C21.15 29.2503 41.47 29.2503 61.79 29.2503C62.02 29.2503 62.25 29.2503 62.5 29.2503C62.53 29.3703 62.56 29.4603 62.57 29.5603C62.58 29.7203 62.57 29.8803 62.57 30.0403C62.57 62.0703 62.57 94.1003 62.57 126.13C62.56 126.34 62.56 126.57 62.56 126.83Z" fill="black"/>
<path d="M82.47 126.82C81.95 126.9 73.4 126.91 72.9 126.83C72.89 126.74 72.87 126.64 72.87 126.54C72.86 126.4 72.87 126.26 72.87 126.12C72.87 94.0903 72.87 62.0603 72.87 30.0303C72.87 29.7903 72.83 29.5403 72.91 29.3203C72.96 29.2903 72.99 29.2603 73.03 29.2603C93.74 29.2503 114.45 29.2503 135.16 29.2503C135.23 29.2503 135.3 29.2703 135.37 29.2803C135.48 29.4703 135.43 29.6703 135.43 29.8503C135.43 31.4003 135.43 32.9603 135.43 34.5103C135.43 35.7603 135.43 37.0203 135.43 38.2703C135.43 38.4403 135.42 38.6203 135.41 38.8203C135.29 38.8403 135.19 38.8603 135.09 38.8603C134.91 38.8703 134.74 38.8603 134.56 38.8603C117.46 38.8603 100.35 38.8603 83.25 38.8603C83.02 38.8603 82.79 38.8603 82.54 38.8603C82.51 38.9903 82.48 39.0803 82.48 39.1803C82.47 39.3903 82.48 39.6003 82.48 39.8203C82.48 68.5503 82.48 97.2703 82.48 126C82.47 126.27 82.47 126.53 82.47 126.82Z" fill="black"/>
<path d="M0 58.0303C0 54.8503 0 51.7103 0 48.5403C0.14 48.5203 0.24 48.4903 0.33 48.4903C0.49 48.4803 0.649999 48.4903 0.809999 48.4903C14.72 48.4903 28.62 48.4903 42.53 48.4903C42.78 48.4903 43.02 48.4803 43.28 48.5203C43.3 48.6403 43.33 48.7403 43.33 48.8503C43.34 49.0103 43.33 49.1703 43.33 49.3303C43.33 68.8003 43.33 88.2703 43.33 107.74C43.33 107.98 43.35 108.23 43.31 108.44C43.27 108.48 43.26 108.5 43.24 108.5C43.22 108.51 43.21 108.51 43.19 108.51C40.24 108.52 37.29 108.52 34.34 108.53C34.16 108.53 33.99 108.53 33.79 108.53C33.76 108.41 33.73 108.32 33.72 108.22C33.71 108.03 33.72 107.83 33.72 107.64C33.72 91.3903 33.72 75.1303 33.72 58.8803C33.72 58.6503 33.72 58.4203 33.72 58.1703C33.6 58.1403 33.5 58.1103 33.4 58.1003C33.22 58.0903 33.05 58.1003 32.87 58.1003C22.16 58.1003 11.45 58.1003 0.74 58.1003C0.52 58.0803 0.29 58.1003 0 58.0303Z" fill="black"/>
<path d="M100.98 108.47C100.9 108.49 100.83 108.51 100.76 108.51C97.67 108.51 94.58 108.51 91.46 108.51C91.43 108.39 91.4 108.29 91.4 108.19C91.39 108.05 91.4 107.91 91.4 107.77C91.4 88.2503 91.4 68.7303 91.4 49.2003C91.4 48.9903 91.41 48.7803 91.41 48.5403C91.53 48.5203 91.63 48.4903 91.72 48.4803C91.88 48.4703 92.04 48.4803 92.2 48.4803C106.11 48.4803 120.01 48.4803 133.92 48.4803C134.17 48.4803 134.41 48.4403 134.65 48.5203C134.78 48.6603 134.73 48.8303 134.73 48.9803C134.73 50.3203 134.73 51.6703 134.73 53.0103C134.73 54.4803 134.73 55.9403 134.73 57.4103C134.73 57.6003 134.73 57.7903 134.73 58.0103C134.61 58.0403 134.51 58.0703 134.41 58.0703C134.23 58.0803 134.06 58.0703 133.88 58.0703C123.17 58.0703 112.46 58.0703 101.75 58.0703C101.52 58.0703 101.3 58.0503 101.05 58.1003C101.03 58.2003 101.01 58.2803 101.01 58.3703C101 58.5603 101.01 58.7603 101.01 58.9503C101.01 75.2003 101.01 91.4603 101.01 107.71C101.02 107.97 101.05 108.21 100.98 108.47Z" fill="black"/>
</svg>
