%TF.GenerationSoftware,KiCad,Pcbnew,7.0.9*%
%TF.CreationDate,2025-10-08T14:44:38+03:00*%
%TF.ProjectId,signalgenerator-rounded,7369676e-616c-4676-956e-657261746f72,rev?*%
%TF.SameCoordinates,Original*%
%TF.FileFunction,Copper,L1,Top*%
%TF.FilePolarity,Positive*%
%FSLAX46Y46*%
G04 Gerber Fmt 4.6, Leading zero omitted, Abs format (unit mm)*
G04 Created by KiCad (PCBNEW 7.0.9) date 2025-10-08 14:44:38*
%MOMM*%
%LPD*%
G01*
G04 APERTURE LIST*
G04 Aperture macros list*
%AMRoundRect*
0 Rectangle with rounded corners*
0 $1 Rounding radius*
0 $2 $3 $4 $5 $6 $7 $8 $9 X,Y pos of 4 corners*
0 Add a 4 corners polygon primitive as box body*
4,1,4,$2,$3,$4,$5,$6,$7,$8,$9,$2,$3,0*
0 Add four circle primitives for the rounded corners*
1,1,$1+$1,$2,$3*
1,1,$1+$1,$4,$5*
1,1,$1+$1,$6,$7*
1,1,$1+$1,$8,$9*
0 Add four rect primitives between the rounded corners*
20,1,$1+$1,$2,$3,$4,$5,0*
20,1,$1+$1,$4,$5,$6,$7,0*
20,1,$1+$1,$6,$7,$8,$9,0*
20,1,$1+$1,$8,$9,$2,$3,0*%
G04 Aperture macros list end*
%TA.AperFunction,SMDPad,CuDef*%
%ADD10RoundRect,0.100000X-0.637500X-0.100000X0.637500X-0.100000X0.637500X0.100000X-0.637500X0.100000X0*%
%TD*%
%TA.AperFunction,ComponentPad*%
%ADD11R,1.700000X1.700000*%
%TD*%
%TA.AperFunction,ComponentPad*%
%ADD12O,1.700000X1.700000*%
%TD*%
%TA.AperFunction,SMDPad,CuDef*%
%ADD13R,1.550000X1.300000*%
%TD*%
%TA.AperFunction,ComponentPad*%
%ADD14R,1.350000X1.350000*%
%TD*%
%TA.AperFunction,ComponentPad*%
%ADD15O,1.350000X1.350000*%
%TD*%
%TA.AperFunction,ComponentPad*%
%ADD16O,1.600000X2.000000*%
%TD*%
%TA.AperFunction,SMDPad,CuDef*%
%ADD17R,1.270000X3.600000*%
%TD*%
%TA.AperFunction,SMDPad,CuDef*%
%ADD18R,1.350000X4.200000*%
%TD*%
%TA.AperFunction,ComponentPad*%
%ADD19RoundRect,0.250000X-1.050000X0.750000X-1.050000X-0.750000X1.050000X-0.750000X1.050000X0.750000X0*%
%TD*%
%TA.AperFunction,ComponentPad*%
%ADD20O,2.600000X2.000000*%
%TD*%
%TA.AperFunction,SMDPad,CuDef*%
%ADD21R,1.403200X0.900000*%
%TD*%
%TA.AperFunction,SMDPad,CuDef*%
%ADD22R,0.950000X1.403200*%
%TD*%
%TA.AperFunction,SMDPad,CuDef*%
%ADD23R,0.900000X1.403200*%
%TD*%
%TA.AperFunction,ComponentPad*%
%ADD24C,1.600000*%
%TD*%
%TA.AperFunction,ComponentPad*%
%ADD25O,1.600000X1.600000*%
%TD*%
%TA.AperFunction,ViaPad*%
%ADD26C,0.800000*%
%TD*%
%TA.AperFunction,Conductor*%
%ADD27C,0.250000*%
%TD*%
%TA.AperFunction,Conductor*%
%ADD28C,0.500000*%
%TD*%
G04 APERTURE END LIST*
D10*
%TO.P,U1,1,PD4*%
%TO.N,Net-(J1-Pin_1)*%
X45075000Y-43378600D03*
%TO.P,U1,2,PD5*%
%TO.N,/RX*%
X45075000Y-44028600D03*
%TO.P,U1,3,PD6*%
%TO.N,/TX*%
X45075000Y-44678600D03*
%TO.P,U1,4,PD7*%
%TO.N,/RST*%
X45075000Y-45328600D03*
%TO.P,U1,5,PA1*%
%TO.N,Net-(J1-Pin_5)*%
X45075000Y-45978600D03*
%TO.P,U1,6,PA2*%
%TO.N,Net-(J1-Pin_6)*%
X45075000Y-46628600D03*
%TO.P,U1,7,VSS*%
%TO.N,GND*%
X45075000Y-47278600D03*
%TO.P,U1,8,PD0*%
%TO.N,Net-(J1-Pin_8)*%
X45075000Y-47928600D03*
%TO.P,U1,9,VDD*%
%TO.N,+3.3V*%
X45075000Y-48578600D03*
%TO.P,U1,10,PC0*%
%TO.N,Net-(J1-Pin_10)*%
X45075000Y-49228600D03*
%TO.P,U1,11,PC1*%
%TO.N,/SDA*%
X50800000Y-49228600D03*
%TO.P,U1,12,PC2*%
%TO.N,/SCL*%
X50800000Y-48578600D03*
%TO.P,U1,13,PC3*%
%TO.N,/ENTER*%
X50800000Y-47928600D03*
%TO.P,U1,14,PC4*%
%TO.N,/DOWN*%
X50800000Y-47278600D03*
%TO.P,U1,15,PC5*%
%TO.N,/LEFT*%
X50800000Y-46628600D03*
%TO.P,U1,16,PC6*%
%TO.N,/RIGHT*%
X50800000Y-45978600D03*
%TO.P,U1,17,PC7*%
%TO.N,/UP*%
X50800000Y-45328600D03*
%TO.P,U1,18,PD1*%
%TO.N,/SWDIO*%
X50800000Y-44678600D03*
%TO.P,U1,19,PD2*%
%TO.N,Net-(J2-Pin_2)*%
X50800000Y-44028600D03*
%TO.P,U1,20,PD3*%
%TO.N,Net-(J2-Pin_1)*%
X50800000Y-43378600D03*
%TD*%
D11*
%TO.P,J5,1,Pin_1*%
%TO.N,+3.3V*%
X54610000Y-25400000D03*
D12*
%TO.P,J5,2,Pin_2*%
%TO.N,GND*%
X52070000Y-25400000D03*
%TO.P,J5,3,Pin_3*%
%TO.N,/SDA*%
X49530000Y-25400000D03*
%TO.P,J5,4,Pin_4*%
%TO.N,/SCL*%
X46990000Y-25400000D03*
%TO.P,J5,5,Pin_5*%
%TO.N,unconnected-(J5-Pin_5-Pad5)*%
X44450000Y-25400000D03*
%TO.P,J5,6,Pin_6*%
%TO.N,unconnected-(J5-Pin_6-Pad6)*%
X41910000Y-25400000D03*
%TO.P,J5,7,Pin_7*%
%TO.N,unconnected-(J5-Pin_7-Pad7)*%
X39370000Y-25400000D03*
%TD*%
D13*
%TO.P,ENTER,1,1*%
%TO.N,/ENTER*%
X80725500Y-73031000D03*
X88675500Y-73031000D03*
%TO.P,ENTER,2,2*%
%TO.N,+3.3V*%
X80725500Y-77531000D03*
X88675500Y-77531000D03*
%TD*%
D14*
%TO.P,J2,1,Pin_1*%
%TO.N,Net-(J2-Pin_1)*%
X59690000Y-36070000D03*
D15*
%TO.P,J2,2,Pin_2*%
%TO.N,Net-(J2-Pin_2)*%
X59690000Y-38070000D03*
%TO.P,J2,3,Pin_3*%
%TO.N,/SWDIO*%
X59690000Y-40070000D03*
%TO.P,J2,4,Pin_4*%
%TO.N,/UP*%
X59690000Y-42070000D03*
%TO.P,J2,5,Pin_5*%
%TO.N,/RIGHT*%
X59690000Y-44070000D03*
%TO.P,J2,6,Pin_6*%
%TO.N,/LEFT*%
X59690000Y-46070000D03*
%TO.P,J2,7,Pin_7*%
%TO.N,/DOWN*%
X59690000Y-48070000D03*
%TO.P,J2,8,Pin_8*%
%TO.N,/ENTER*%
X59690000Y-50070000D03*
%TO.P,J2,9,Pin_9*%
%TO.N,/SCL*%
X59690000Y-52070000D03*
%TO.P,J2,10,Pin_10*%
%TO.N,/SDA*%
X59690000Y-54070000D03*
%TD*%
D16*
%TO.P,Brd1,1,GND*%
%TO.N,GND*%
X44450000Y-31750000D03*
%TO.P,Brd1,2,VCC*%
%TO.N,+3.3V*%
X46990000Y-31750000D03*
%TO.P,Brd1,3,SCL*%
%TO.N,/SCL*%
X49530000Y-31750000D03*
%TO.P,Brd1,4,SDA*%
%TO.N,/SDA*%
X52070000Y-31750000D03*
%TD*%
D13*
%TO.P,LEFT,1,1*%
%TO.N,/LEFT*%
X41155500Y-73061000D03*
X49105500Y-73061000D03*
%TO.P,LEFT,2,2*%
%TO.N,+3.3V*%
X41155500Y-77561000D03*
X49105500Y-77561000D03*
%TD*%
%TO.P,RIGHT,1,1*%
%TO.N,/DOWN*%
X66555500Y-73031000D03*
X74505500Y-73031000D03*
%TO.P,RIGHT,2,2*%
%TO.N,+3.3V*%
X66555500Y-77531000D03*
X74505500Y-77531000D03*
%TD*%
D17*
%TO.P,J6,1,In*%
%TO.N,Net-(J6-In)*%
X84486000Y-25835000D03*
D18*
%TO.P,J6,2,Ext*%
%TO.N,GND*%
X87311000Y-26035000D03*
X81661000Y-26035000D03*
%TD*%
D13*
%TO.P,UP,1,1*%
%TO.N,/UP*%
X61678500Y-68671000D03*
X53728500Y-68671000D03*
%TO.P,UP,2,2*%
%TO.N,+3.3V*%
X61678500Y-64171000D03*
X53728500Y-64171000D03*
%TD*%
D11*
%TO.P,J3,1,Pin_1*%
%TO.N,/RX*%
X29210000Y-54610000D03*
D12*
%TO.P,J3,2,Pin_2*%
%TO.N,/SWCLK*%
X26670000Y-54610000D03*
%TO.P,J3,3,Pin_3*%
%TO.N,/TX*%
X29210000Y-52070000D03*
%TO.P,J3,4,Pin_4*%
%TO.N,/SWDIO*%
X26670000Y-52070000D03*
%TO.P,J3,5,Pin_5*%
%TO.N,/TDO*%
X29210000Y-49530000D03*
%TO.P,J3,6,Pin_6*%
%TO.N,GND*%
X26670000Y-49530000D03*
%TO.P,J3,7,Pin_7*%
%TO.N,/TDI*%
X29210000Y-46990000D03*
%TO.P,J3,8,Pin_8*%
%TO.N,+3.3V*%
X26670000Y-46990000D03*
%TO.P,J3,9,Pin_9*%
%TO.N,/RST*%
X29210000Y-44450000D03*
%TO.P,J3,10,Pin_10*%
%TO.N,+5V*%
X26670000Y-44450000D03*
%TD*%
D11*
%TO.P,J7,1,Pin_1*%
%TO.N,+3.3V*%
X97200500Y-33020000D03*
D12*
%TO.P,J7,2,Pin_2*%
%TO.N,J7_11*%
X97200500Y-35560000D03*
%TO.P,J7,3,Pin_3*%
%TO.N,J7_10*%
X97200500Y-38100000D03*
%TO.P,J7,4,Pin_4*%
%TO.N,J7_9*%
X97200500Y-40640000D03*
%TO.P,J7,5,Pin_5*%
%TO.N,J7_8*%
X97200500Y-43180000D03*
%TO.P,J7,6,Pin_6*%
%TO.N,J7_7*%
X97200500Y-45720000D03*
%TO.P,J7,7,Pin_7*%
%TO.N,J7_6*%
X97200500Y-48260000D03*
%TO.P,J7,8,Pin_8*%
%TO.N,J7_5*%
X97200500Y-50800000D03*
%TO.P,J7,9,Pin_9*%
%TO.N,J7_4*%
X97200500Y-53340000D03*
%TO.P,J7,10,Pin_10*%
%TO.N,J7_3*%
X97200500Y-55880000D03*
%TO.P,J7,11,Pin_11*%
%TO.N,J7_2*%
X97200500Y-58420000D03*
%TO.P,J7,12,Pin_12*%
%TO.N,GND*%
X97200500Y-60960000D03*
%TD*%
D13*
%TO.P,DOWN,1,1*%
%TO.N,/RIGHT*%
X53855500Y-73061000D03*
X61805500Y-73061000D03*
%TO.P,DOWN,2,2*%
%TO.N,+3.3V*%
X53855500Y-77561000D03*
X61805500Y-77561000D03*
%TD*%
D19*
%TO.P,J4,1,Pin_1*%
%TO.N,GND*%
X28727400Y-33248600D03*
D20*
%TO.P,J4,2,Pin_2*%
%TO.N,+5V*%
X28727400Y-36748600D03*
%TD*%
D21*
%TO.P,M1,1,GND*%
%TO.N,GND*%
X74325000Y-38068000D03*
%TO.P,M1,2,LR_BOOT*%
%TO.N,J9_11*%
X74325000Y-39168000D03*
%TO.P,M1,3,NRST*%
%TO.N,J9_10*%
X74325000Y-40268000D03*
%TO.P,M1,4,GND*%
%TO.N,GND*%
X74325000Y-41368000D03*
%TO.P,M1,5,GND*%
X74325000Y-42468000D03*
%TO.P,M1,6,VADDRF1V55*%
%TO.N,J9_7*%
X74325000Y-43568000D03*
%TO.P,M1,7,ADC*%
%TO.N,J9_6*%
X74325000Y-44668000D03*
%TO.P,M1,8,PA10*%
%TO.N,J9_5*%
X74325000Y-45768000D03*
%TO.P,M1,9,GND*%
%TO.N,GND*%
X74325000Y-46868000D03*
%TO.P,M1,10,GND*%
X74325000Y-47968000D03*
D22*
%TO.P,M1,11,PC13*%
%TO.N,J8_1*%
X76300000Y-50135000D03*
%TO.P,M1,12,SWDIO*%
%TO.N,J8_2*%
X77436400Y-50135000D03*
%TO.P,M1,13,I2C-SCL*%
%TO.N,J8_3*%
X78572700Y-50135000D03*
%TO.P,M1,14,I2C-SDA*%
%TO.N,J8_4*%
X79709100Y-50135000D03*
%TO.P,M1,15,PA1*%
%TO.N,J8_5*%
X80845500Y-50135000D03*
%TO.P,M1,16,PB3*%
%TO.N,J8_6*%
X81981800Y-50135000D03*
%TO.P,M1,17,PB4*%
%TO.N,J8_7*%
X83118200Y-50135000D03*
%TO.P,M1,18,SWCLK*%
%TO.N,J8_8*%
X84254500Y-50135000D03*
%TO.P,M1,19,PA15*%
%TO.N,J8_9*%
X85390900Y-50135000D03*
%TO.P,M1,20,PB5*%
%TO.N,J8_10*%
X86527300Y-50135000D03*
%TO.P,M1,21,PB8*%
%TO.N,J8_11*%
X87663600Y-50135000D03*
%TO.P,M1,22,PA0*%
%TO.N,J8_12*%
X88800000Y-50135000D03*
D21*
%TO.P,M1,23,UART-TX*%
%TO.N,J7_3*%
X90775000Y-47968000D03*
%TO.P,M1,24,UART-RX*%
%TO.N,J7_4*%
X90775000Y-46868000D03*
%TO.P,M1,25,LPUART-TX*%
%TO.N,J9_5*%
X90775000Y-45768000D03*
%TO.P,M1,26,LPUART-RX*%
%TO.N,J7_6*%
X90775000Y-44668000D03*
%TO.P,M1,27,PA8*%
%TO.N,J7_7*%
X90775000Y-43568000D03*
%TO.P,M1,28,MOSI*%
%TO.N,J7_8*%
X90775000Y-42468000D03*
%TO.P,M1,29,MISO*%
%TO.N,J7_9*%
X90775000Y-41368000D03*
%TO.P,M1,30,SCK*%
%TO.N,J7_10*%
X90775000Y-40268000D03*
%TO.P,M1,31,CS*%
%TO.N,J7_11*%
X90775000Y-39168000D03*
%TO.P,M1,32,3v3*%
%TO.N,+3.3V*%
X90775000Y-38068000D03*
D23*
%TO.P,M1,33,RF_ANT*%
%TO.N,Net-(J6-In)*%
X85532300Y-33685000D03*
%TO.P,M1,34,GND*%
%TO.N,GND*%
X84052300Y-33685000D03*
%TD*%
D14*
%TO.P,J1,1,Pin_1*%
%TO.N,Net-(J1-Pin_1)*%
X38100000Y-36100000D03*
D15*
%TO.P,J1,2,Pin_2*%
%TO.N,/RX*%
X38100000Y-38100000D03*
%TO.P,J1,3,Pin_3*%
%TO.N,/TX*%
X38100000Y-40100000D03*
%TO.P,J1,4,Pin_4*%
%TO.N,/RST*%
X38100000Y-42100000D03*
%TO.P,J1,5,Pin_5*%
%TO.N,Net-(J1-Pin_5)*%
X38100000Y-44100000D03*
%TO.P,J1,6,Pin_6*%
%TO.N,Net-(J1-Pin_6)*%
X38100000Y-46100000D03*
%TO.P,J1,7,Pin_7*%
%TO.N,GND*%
X38100000Y-48100000D03*
%TO.P,J1,8,Pin_8*%
%TO.N,Net-(J1-Pin_8)*%
X38100000Y-50100000D03*
%TO.P,J1,9,Pin_9*%
%TO.N,+3.3V*%
X38100000Y-52100000D03*
%TO.P,J1,10,Pin_10*%
%TO.N,Net-(J1-Pin_10)*%
X38100000Y-54100000D03*
%TD*%
D11*
%TO.P,J9,1,Pin_1*%
%TO.N,J9_1*%
X67121500Y-60960000D03*
D12*
%TO.P,J9,2,Pin_2*%
%TO.N,J9_2*%
X67121500Y-58420000D03*
%TO.P,J9,3,Pin_3*%
%TO.N,J9_3*%
X67121500Y-55880000D03*
%TO.P,J9,4,Pin_4*%
%TO.N,J9_4*%
X67121500Y-53340000D03*
%TO.P,J9,5,Pin_5*%
%TO.N,J9_5*%
X67121500Y-50800000D03*
%TO.P,J9,6,Pin_6*%
%TO.N,J9_6*%
X67121500Y-48260000D03*
%TO.P,J9,7,Pin_7*%
%TO.N,J9_7*%
X67121500Y-45720000D03*
%TO.P,J9,8,Pin_8*%
%TO.N,J9_8*%
X67121500Y-43180000D03*
%TO.P,J9,9,Pin_9*%
%TO.N,J9_9*%
X67121500Y-40640000D03*
%TO.P,J9,10,Pin_10*%
%TO.N,J9_10*%
X67121500Y-38100000D03*
%TO.P,J9,11,Pin_11*%
%TO.N,J9_11*%
X67121500Y-35560000D03*
%TO.P,J9,12,Pin_12*%
%TO.N,GND*%
X67121500Y-33020000D03*
%TD*%
D11*
%TO.P,J8,1,Pin_1*%
%TO.N,J8_1*%
X68580000Y-63500000D03*
D12*
%TO.P,J8,2,Pin_2*%
%TO.N,J8_2*%
X71120000Y-63500000D03*
%TO.P,J8,3,Pin_3*%
%TO.N,J8_3*%
X73660000Y-63500000D03*
%TO.P,J8,4,Pin_4*%
%TO.N,J8_4*%
X76200000Y-63500000D03*
%TO.P,J8,5,Pin_5*%
%TO.N,J8_5*%
X78740000Y-63500000D03*
%TO.P,J8,6,Pin_6*%
%TO.N,J8_6*%
X81280000Y-63500000D03*
%TO.P,J8,7,Pin_7*%
%TO.N,J8_7*%
X83820000Y-63500000D03*
%TO.P,J8,8,Pin_8*%
%TO.N,J8_8*%
X86360000Y-63500000D03*
%TO.P,J8,9,Pin_9*%
%TO.N,J8_9*%
X88900000Y-63500000D03*
%TO.P,J8,10,Pin_10*%
%TO.N,J8_10*%
X91440000Y-63500000D03*
%TO.P,J8,11,Pin_11*%
%TO.N,J8_11*%
X93980000Y-63500000D03*
%TO.P,J8,12,Pin_12*%
%TO.N,J8_12*%
X96520000Y-63500000D03*
%TD*%
D24*
%TO.P,R1,1*%
%TO.N,/UP*%
X33020000Y-67310000D03*
D25*
%TO.P,R1,2*%
%TO.N,GND*%
X33020000Y-59690000D03*
%TD*%
D24*
%TO.P,R4,1*%
%TO.N,/RIGHT*%
X36830000Y-67310000D03*
D25*
%TO.P,R4,2*%
%TO.N,GND*%
X36830000Y-59690000D03*
%TD*%
D24*
%TO.P,R3,1*%
%TO.N,/LEFT*%
X40640000Y-67310000D03*
D25*
%TO.P,R3,2*%
%TO.N,GND*%
X40640000Y-59690000D03*
%TD*%
D24*
%TO.P,R2,1*%
%TO.N,/DOWN*%
X66548000Y-67691000D03*
D25*
%TO.P,R2,2*%
%TO.N,GND*%
X74168000Y-67691000D03*
%TD*%
D24*
%TO.P,R5,1*%
%TO.N,/ENTER*%
X80772000Y-67691000D03*
D25*
%TO.P,R5,2*%
%TO.N,GND*%
X88392000Y-67691000D03*
%TD*%
D26*
%TO.N,GND*%
X79375000Y-29210000D03*
X79375000Y-46990000D03*
%TO.N,/RX*%
X34290000Y-54610000D03*
X35560000Y-38100000D03*
X35560000Y-38100000D03*
%TO.N,/TX*%
X33020000Y-52070000D03*
X33020000Y-43180000D03*
%TO.N,Net-(J6-In)*%
X84455000Y-30480000D03*
%TD*%
D27*
%TO.N,GND*%
X37826862Y-48259984D02*
G75*
G03*
X38020000Y-48180000I38J273084D01*
G01*
X80619150Y-29210000D02*
G75*
G03*
X81661000Y-28168150I-50J1041900D01*
G01*
X81661000Y-30251850D02*
G75*
G03*
X80619150Y-29210000I-1041800J50D01*
G01*
X84865493Y-35784506D02*
G75*
G03*
X84865492Y-35335494I-224493J224506D01*
G01*
X85407500Y-35559996D02*
G75*
G03*
X84865493Y-35784506I0J-766504D01*
G01*
X84865496Y-35335490D02*
G75*
G03*
X85407500Y-35560000I542004J541990D01*
G01*
X33229098Y-59480901D02*
G75*
G03*
X33274000Y-59372500I-108398J108401D01*
G01*
X24650706Y-33769306D02*
G75*
G03*
X24130000Y-35026381I1257094J-1257094D01*
G01*
X28838025Y-48260011D02*
G75*
G03*
X27305000Y-48895000I-25J-2167989D01*
G01*
X25907781Y-33248593D02*
G75*
G03*
X24650701Y-33769301I19J-1777807D01*
G01*
D28*
X53663313Y-24100004D02*
G75*
G03*
X53162598Y-24307404I-13J-708096D01*
G01*
X31124025Y-31750011D02*
G75*
G03*
X29591000Y-32385000I-25J-2167989D01*
G01*
D27*
X71407444Y-37305886D02*
G75*
G03*
X73247250Y-38068000I1839856J1839786D01*
G01*
X88645997Y-65785997D02*
G75*
G03*
X88392000Y-66399210I613203J-613203D01*
G01*
X80808576Y-38067990D02*
G75*
G03*
X83836000Y-36814000I24J4281390D01*
G01*
X85407500Y-35560003D02*
G75*
G03*
X85949506Y-35335493I0J766503D01*
G01*
X24950992Y-49080982D02*
G75*
G03*
X26035000Y-49530000I1084008J1083982D01*
G01*
X86517992Y-34766992D02*
G75*
G03*
X87311000Y-32852528I-1914492J1914492D01*
G01*
X38213137Y-48100016D02*
G75*
G03*
X38020000Y-48180000I-37J-273084D01*
G01*
X24130011Y-47361974D02*
G75*
G03*
X24765000Y-48895000I2167989J-26D01*
G01*
X84052333Y-34103650D02*
G75*
G03*
X84348331Y-34818329I1010667J-50D01*
G01*
X81661022Y-30251850D02*
G75*
G03*
X82397700Y-32030398I2515178J-50D01*
G01*
X41074019Y-47278609D02*
G75*
G03*
X40082502Y-47689300I-19J-1402191D01*
G01*
X79313990Y-46929010D02*
G75*
G03*
X79166732Y-46868000I-147290J-147290D01*
G01*
X39090984Y-48099994D02*
G75*
G03*
X40082502Y-47689300I16J1402194D01*
G01*
X28565755Y-33248552D02*
G75*
G03*
X28841700Y-33134300I45J390252D01*
G01*
D28*
X43906951Y-31750021D02*
G75*
G03*
X44105400Y-31667800I-51J280721D01*
G01*
D27*
X88646003Y-65786003D02*
G75*
G03*
X88900000Y-65172789I-613203J613203D01*
G01*
D28*
X59909710Y-25808176D02*
G75*
G03*
X55785750Y-24100000I-4123910J-4123924D01*
G01*
D27*
X81661000Y-28168150D02*
X81661000Y-30251850D01*
D28*
X29070300Y-32905700D02*
X28841700Y-33134300D01*
D27*
%TO.N,J8_9*%
X85390903Y-57734591D02*
G75*
G03*
X86986351Y-61586351I5447197J-9D01*
G01*
%TO.N,J8_4*%
X77954552Y-61745452D02*
G75*
G03*
X79709100Y-57509591I-4235852J4235852D01*
G01*
%TO.N,+3.3V*%
X26669999Y-50895000D02*
G75*
G03*
X25839150Y-51239150I1J-1175000D01*
G01*
X31114997Y-68733550D02*
G75*
G03*
X33700500Y-74975500I8827443J0D01*
G01*
X28035020Y-54744350D02*
G75*
G03*
X27595850Y-53684149I-1499420J-50D01*
G01*
X99060014Y-36194365D02*
G75*
G03*
X98130250Y-33949750I-3174414J-35D01*
G01*
X46727600Y-34207800D02*
G75*
G03*
X49349800Y-36830000I2622200J0D01*
G01*
X25495000Y-52069999D02*
G75*
G03*
X25839149Y-52900850I1175000J-1D01*
G01*
X92036473Y-74968512D02*
G75*
G03*
X92710000Y-73342500I-1625973J1626012D01*
G01*
X39037500Y-52100006D02*
G75*
G03*
X40637912Y-51437087I0J2263306D01*
G01*
X28034991Y-54926802D02*
G75*
G03*
X28603162Y-56298467I1939809J2D01*
G01*
X64630497Y-66851006D02*
G75*
G03*
X63835000Y-64930500I-2715997J6D01*
G01*
X37497489Y-51497511D02*
G75*
G03*
X36042936Y-50895000I-1454589J-1454589D01*
G01*
X88624286Y-77560994D02*
G75*
G03*
X88660500Y-77546000I14J51194D01*
G01*
X46432517Y-42804705D02*
G75*
G03*
X46137500Y-43517051I712383J-712295D01*
G01*
X93383527Y-71716488D02*
G75*
G03*
X92710000Y-73342500I1625973J-1626012D01*
G01*
X25839149Y-52900850D02*
G75*
G03*
X26670000Y-53245000I830851J830850D01*
G01*
X63835002Y-64930498D02*
G75*
G03*
X61914493Y-64135000I-1920502J-1920502D01*
G01*
X92671473Y-36868512D02*
G75*
G03*
X93345000Y-35242500I-1625973J1626012D01*
G01*
X31115001Y-60988193D02*
G75*
G03*
X29575000Y-57270305I-5257901J-7D01*
G01*
X25839150Y-51239150D02*
G75*
G03*
X25495000Y-52069999I830850J-830850D01*
G01*
X45503842Y-48578617D02*
G75*
G03*
X45951906Y-48393006I-42J633717D01*
G01*
X34564370Y-75839372D02*
G75*
G03*
X38720750Y-77561000I4156380J4156382D01*
G01*
X91123500Y-38067985D02*
G75*
G03*
X91718426Y-37821573I0J841385D01*
G01*
X53789955Y-64134982D02*
G75*
G03*
X53746500Y-64153000I45J-61518D01*
G01*
X95513025Y-33020011D02*
G75*
G03*
X93980000Y-33655000I-25J-2167989D01*
G01*
X89074750Y-77531027D02*
G75*
G03*
X89756312Y-77248687I-50J963927D01*
G01*
X88696713Y-77531006D02*
G75*
G03*
X88660500Y-77546000I-13J-51194D01*
G01*
X64630492Y-74244819D02*
G75*
G03*
X65593000Y-76568500I3286208J19D01*
G01*
X93979992Y-33654992D02*
G75*
G03*
X93345000Y-35188025I1533008J-1533008D01*
G01*
X50668800Y-36830000D02*
G75*
G03*
X54610000Y-32888800I0J3941200D01*
G01*
X46432545Y-42804733D02*
G75*
G03*
X46727600Y-42092424I-712345J712333D01*
G01*
X27500850Y-53589149D02*
G75*
G03*
X26670000Y-53245000I-830850J-830851D01*
G01*
X45951894Y-48392994D02*
G75*
G03*
X46137500Y-47944942I-448094J448094D01*
G01*
X98742504Y-66357504D02*
G75*
G03*
X99060000Y-65590987I-766504J766504D01*
G01*
X44285700Y-48578588D02*
G75*
G03*
X42938280Y-49136719I0J-1905512D01*
G01*
X98742500Y-66357500D02*
X98107499Y-66992499D01*
X45420656Y-48578600D02*
X44729344Y-48578600D01*
%TO.N,J8_12*%
X88799995Y-52957500D02*
G75*
G03*
X90795808Y-57775808I6814105J0D01*
G01*
%TO.N,J8_11*%
X87663597Y-53659300D02*
G75*
G03*
X90155657Y-59675655I8508403J0D01*
G01*
%TO.N,J8_10*%
X86527302Y-55113496D02*
G75*
G03*
X88983650Y-61043650I8386498J-4D01*
G01*
%TO.N,J8_8*%
X84254506Y-59905686D02*
G75*
G03*
X85307250Y-62447250I3594294J-14D01*
G01*
%TO.N,J8_7*%
X83118220Y-62301952D02*
G75*
G03*
X83469100Y-63149100I1197980J-48D01*
G01*
%TO.N,J8_6*%
X81630935Y-63149135D02*
G75*
G03*
X81981800Y-62301952I-847235J847135D01*
G01*
%TO.N,J8_5*%
X79792754Y-62447254D02*
G75*
G03*
X80845500Y-59905686I-2541554J2541554D01*
G01*
%TO.N,J8_3*%
X76116351Y-61043651D02*
G75*
G03*
X78572700Y-55113496I-5930151J5930151D01*
G01*
%TO.N,J8_2*%
X74944341Y-59675654D02*
G75*
G03*
X77436400Y-53659300I-6016341J6016354D01*
G01*
%TO.N,J8_1*%
X74304188Y-57775805D02*
G75*
G03*
X76300000Y-52957500I-4818288J4818305D01*
G01*
%TO.N,J7_11*%
X96267550Y-35560023D02*
G75*
G03*
X94674904Y-36219695I-50J-2252277D01*
G01*
X91250800Y-39167994D02*
G75*
G03*
X92063041Y-38831558I0J1148694D01*
G01*
%TO.N,J9_10*%
X68205498Y-39184002D02*
G75*
G03*
X70822507Y-40268000I2617002J2617002D01*
G01*
%TO.N,J9_7*%
X68485750Y-45720031D02*
G75*
G03*
X70814669Y-44755328I-50J3293631D01*
G01*
X73163500Y-43567997D02*
G75*
G03*
X71180695Y-44389304I0J-2804103D01*
G01*
%TO.N,J9_6*%
X70509255Y-47532148D02*
G75*
G03*
X70485000Y-47590700I58545J-58552D01*
G01*
X73849200Y-44668005D02*
G75*
G03*
X73036958Y-45004441I0J-1148695D01*
G01*
X69400987Y-48259993D02*
G75*
G03*
X70167499Y-47942499I13J1083993D01*
G01*
X70460745Y-47649252D02*
G75*
G03*
X70485000Y-47590700I-58545J58552D01*
G01*
%TO.N,J9_5*%
X81938988Y-45744012D02*
G75*
G03*
X81996941Y-45768000I57912J57912D01*
G01*
X81939000Y-45744000D02*
G75*
G03*
X81891000Y-45744000I-24000J-23997D01*
G01*
X81833058Y-45767982D02*
G75*
G03*
X81890999Y-45743999I42J81882D01*
G01*
%TO.N,J7_3*%
X93344999Y-50634500D02*
G75*
G03*
X92564000Y-48749000I-2666499J0D01*
G01*
X93344980Y-51543948D02*
G75*
G03*
X94615000Y-54610000I4336120J48D01*
G01*
X92139389Y-48324373D02*
G75*
G03*
X91279000Y-47968000I-860389J-860427D01*
G01*
X95419914Y-55414886D02*
G75*
G03*
X96542750Y-55880000I1122886J1122886D01*
G01*
%TO.N,J7_4*%
X94614985Y-50165000D02*
G75*
G03*
X93716973Y-47996975I-3066085J0D01*
G01*
X94615015Y-50165000D02*
G75*
G03*
X95513026Y-52333024I3066085J0D01*
G01*
X96279438Y-53099374D02*
G75*
G03*
X96860250Y-53340000I580862J580774D01*
G01*
X93228995Y-47508989D02*
G75*
G03*
X91681500Y-46868000I-1547495J-1547511D01*
G01*
%TO.N,J7_6*%
X92063045Y-45004437D02*
G75*
G03*
X91250800Y-44668000I-812245J-812263D01*
G01*
X93345002Y-46320700D02*
G75*
G03*
X93320746Y-46262146I-82802J0D01*
G01*
X93344998Y-46320700D02*
G75*
G03*
X93369253Y-46379253I82802J0D01*
G01*
X94560411Y-47570377D02*
G75*
G03*
X96225250Y-48260000I1664889J1664877D01*
G01*
%TO.N,J7_7*%
X93700907Y-44805867D02*
G75*
G03*
X95907750Y-45720000I2206893J2206867D01*
G01*
X93059799Y-44164797D02*
G75*
G03*
X91619000Y-43568000I-1440799J-1440803D01*
G01*
%TO.N,J7_8*%
X93623988Y-42824012D02*
G75*
G03*
X92764539Y-42468000I-859488J-859488D01*
G01*
X93624012Y-42823988D02*
G75*
G03*
X94483460Y-43180000I859488J859488D01*
G01*
%TO.N,J7_9*%
X92737226Y-41368010D02*
G75*
G03*
X93615999Y-41003999I-26J1242810D01*
G01*
X94494773Y-40639990D02*
G75*
G03*
X93616001Y-41004001I27J-1242810D01*
G01*
%TO.N,J7_10*%
X91611000Y-40267994D02*
G75*
G03*
X93038141Y-39676858I0J2018294D01*
G01*
X95907750Y-38100043D02*
G75*
G03*
X93700888Y-39014113I-50J-3120957D01*
G01*
%TO.N,J9_11*%
X69458313Y-37896783D02*
G75*
G03*
X72527250Y-39168000I3068987J3068983D01*
G01*
%TO.N,Net-(J6-In)*%
X85532314Y-32319066D02*
G75*
G03*
X84993650Y-31018650I-1839114J-34D01*
G01*
X84470506Y-30464506D02*
G75*
G03*
X84486000Y-30427079I-37406J37406D01*
G01*
%TO.N,/DOWN*%
X51422665Y-57264637D02*
G75*
G03*
X56664750Y-59436000I5242135J5242137D01*
G01*
X61906863Y-61607333D02*
G75*
G03*
X56664750Y-59436000I-5242063J-5242067D01*
G01*
X48387490Y-51054000D02*
G75*
G03*
X50632917Y-56474917I7666310J0D01*
G01*
X48687452Y-47578552D02*
G75*
G03*
X48387500Y-48302693I724148J-724148D01*
G01*
X50833500Y-47278600D02*
X50833500Y-47278600D01*
X66555514Y-69643500D02*
G75*
G03*
X64160175Y-63860675I-8178114J0D01*
G01*
X49411593Y-47278598D02*
G75*
G03*
X48687451Y-47578551I7J-1024102D01*
G01*
X56056299Y-47674301D02*
G75*
G03*
X57011604Y-48070000I955301J955301D01*
G01*
X50860494Y-47278597D02*
G75*
G03*
X50871599Y-47273999I6J15697D01*
G01*
X56056301Y-47674299D02*
G75*
G03*
X55100995Y-47278600I-955301J-955301D01*
G01*
X50766500Y-47278600D02*
X50833500Y-47278600D01*
X50833500Y-47278600D02*
X50766500Y-47278600D01*
%TO.N,/LEFT*%
X46993583Y-51180204D02*
G75*
G03*
X47937500Y-48901396I-2278783J2278804D01*
G01*
X49538595Y-46628599D02*
G75*
G03*
X48406451Y-47097551I5J-1601101D01*
G01*
X40640006Y-69400987D02*
G75*
G03*
X40957500Y-70167500I1083994J-13D01*
G01*
X58736410Y-46628604D02*
G75*
G03*
X59410700Y-46349300I-10J953604D01*
G01*
X41215250Y-73001250D02*
G75*
G03*
X41275000Y-72857000I-144250J144250D01*
G01*
X45241262Y-52932554D02*
G75*
G03*
X42545000Y-59441865I6509338J-6509346D01*
G01*
X48406451Y-47097551D02*
G75*
G03*
X47937500Y-48229695I1132149J-1132149D01*
G01*
X41274994Y-70934012D02*
G75*
G03*
X40957500Y-70167500I-1083994J12D01*
G01*
X41592502Y-66357502D02*
G75*
G03*
X42545000Y-64057961I-2299552J2299542D01*
G01*
%TO.N,/RIGHT*%
X36830004Y-69532500D02*
G75*
G03*
X38401545Y-73326543I5365596J0D01*
G01*
X46500174Y-51037239D02*
G75*
G03*
X47487500Y-48653594I-2383674J2383639D01*
G01*
X53585379Y-74095108D02*
G75*
G03*
X53855500Y-73443000I-652079J652108D01*
G01*
X54881415Y-45978605D02*
G75*
G03*
X57185299Y-45024299I-15J3258205D01*
G01*
X37782502Y-66357502D02*
G75*
G03*
X38735000Y-64057961I-2299552J2299542D01*
G01*
X48126857Y-46617957D02*
G75*
G03*
X47487500Y-48161463I1543543J-1543543D01*
G01*
X38417511Y-73342489D02*
G75*
G03*
X42250064Y-74930000I3832589J3832589D01*
G01*
X41069384Y-56468033D02*
G75*
G03*
X38735000Y-62103698I5635616J-5635667D01*
G01*
X49670363Y-45978585D02*
G75*
G03*
X48126846Y-46617946I37J-2182915D01*
G01*
X58914800Y-44070000D02*
G75*
G03*
X57591450Y-44618149I0J-1871500D01*
G01*
%TO.N,/ENTER*%
X63024005Y-61674525D02*
G75*
G03*
X72643412Y-65659000I9619395J9619425D01*
G01*
X48837500Y-50453750D02*
G75*
G03*
X50388715Y-54198715I5296180J0D01*
G01*
X49403235Y-47928615D02*
G75*
G03*
X49003200Y-48094300I-35J-565685D01*
G01*
X55908100Y-48999300D02*
G75*
G03*
X53323201Y-47928600I-2584900J-2584900D01*
G01*
X59053690Y-57704126D02*
G75*
G03*
X54649750Y-55880000I-4403890J-4403974D01*
G01*
X56020248Y-49111444D02*
G75*
G03*
X58334400Y-50070000I2314152J2314144D01*
G01*
X79859737Y-66524763D02*
G75*
G03*
X77769644Y-65659000I-2090137J-2090137D01*
G01*
X50453743Y-54263757D02*
G75*
G03*
X54355722Y-55880000I3901957J3901957D01*
G01*
X49003190Y-48094290D02*
G75*
G03*
X48837500Y-48494335I400010J-400010D01*
G01*
%TO.N,/UP*%
X52684800Y-45328601D02*
G75*
G03*
X55902354Y-43995844I0J4550301D01*
G01*
X33020007Y-69215000D02*
G75*
G03*
X34367038Y-72467038I4599093J0D01*
G01*
X33972502Y-66357502D02*
G75*
G03*
X34925000Y-64057961I-2299552J2299542D01*
G01*
X62910508Y-75311008D02*
G75*
G03*
X63545500Y-73777974I-1533008J1533008D01*
G01*
X46004779Y-50896238D02*
G75*
G03*
X47037500Y-48403000I-2493279J2493238D01*
G01*
X61377474Y-75945989D02*
G75*
G03*
X62910500Y-75311000I26J2167989D01*
G01*
X35877489Y-57467489D02*
G75*
G03*
X34925000Y-59767038I2299511J-2299511D01*
G01*
X38177038Y-56515016D02*
G75*
G03*
X35877500Y-57467500I-38J-3251984D01*
G01*
X49725700Y-45328603D02*
G75*
G03*
X47891755Y-46088244I0J-2593597D01*
G01*
X38608000Y-56514991D02*
G75*
G03*
X41643235Y-55257764I0J4292491D01*
G01*
X63545505Y-69537686D02*
G75*
G03*
X63265000Y-68860500I-957705J-14D01*
G01*
X47844450Y-46135550D02*
G75*
G03*
X47037500Y-48083699I1948150J-1948150D01*
G01*
X63264996Y-68860504D02*
G75*
G03*
X62587813Y-68580000I-677196J-677196D01*
G01*
X58759100Y-42070002D02*
G75*
G03*
X57169954Y-42728245I0J-2247398D01*
G01*
X35433001Y-73532999D02*
G75*
G03*
X41258497Y-75946000I5825499J5825499D01*
G01*
%TO.N,+5V*%
X28768100Y-36789300D02*
X28768100Y-36789300D01*
%TO.N,/RST*%
X31993299Y-44449998D02*
G75*
G03*
X34829999Y-43274999I1J4011698D01*
G01*
X41112123Y-44293495D02*
G75*
G03*
X43611125Y-45328600I2498977J2498995D01*
G01*
X39208074Y-42389448D02*
G75*
G03*
X38509325Y-42100000I-698774J-698752D01*
G01*
X37052500Y-42100003D02*
G75*
G03*
X35264305Y-42840694I0J-2528897D01*
G01*
X38509325Y-42100000D02*
X37690675Y-42100000D01*
%TO.N,/TX*%
X41959939Y-43864925D02*
G75*
G03*
X43924300Y-44678600I1964361J1964325D01*
G01*
X37100000Y-40099996D02*
G75*
G03*
X35392893Y-40807106I0J-2414204D01*
G01*
X38228592Y-40133582D02*
G75*
G03*
X38147500Y-40100000I-81092J-81118D01*
G01*
X38147500Y-40100000D02*
X38052500Y-40100000D01*
%TO.N,/RX*%
X40640006Y-40956802D02*
G75*
G03*
X40415987Y-40415987I-764806J2D01*
G01*
X42801013Y-43434639D02*
G75*
G03*
X44234998Y-44028600I1433987J1434039D01*
G01*
X40639991Y-40956802D02*
G75*
G03*
X40864012Y-41497616I764809J2D01*
G01*
%TO.N,/SCL*%
X46990015Y-26670000D02*
G75*
G03*
X47888026Y-28838024I3066085J0D01*
G01*
X49267606Y-30901600D02*
G75*
G03*
X48783938Y-29733938I-1651306J0D01*
G01*
X55253739Y-49741925D02*
G75*
G03*
X52445200Y-48578600I-2808539J-2808575D01*
G01*
X56836443Y-51324633D02*
G75*
G03*
X58635900Y-52070000I1799457J1799433D01*
G01*
%TO.N,/SDA*%
X54001958Y-50064972D02*
G75*
G03*
X51982800Y-49228600I-2019158J-2019128D01*
G01*
X51807606Y-30901600D02*
G75*
G03*
X51323938Y-29733938I-1651306J0D01*
G01*
X57411961Y-53474977D02*
G75*
G03*
X58848500Y-54070000I1436539J1436577D01*
G01*
X49530015Y-26670000D02*
G75*
G03*
X50428026Y-28838024I3066085J0D01*
G01*
%TO.N,/SWDIO*%
X41402000Y-53975008D02*
G75*
G03*
X42702815Y-53436184I0J1839608D01*
G01*
X27304992Y-52705008D02*
G75*
G03*
X28838025Y-53340000I1533008J1533008D01*
G01*
X45532319Y-50606680D02*
G75*
G03*
X46587500Y-48059250I-2547429J2547430D01*
G01*
X58705000Y-40070000D02*
G75*
G03*
X57023500Y-40766501I0J-2378000D01*
G01*
X47531700Y-45622800D02*
G75*
G03*
X46587500Y-47902300I2279500J-2279500D01*
G01*
X37015992Y-55430982D02*
G75*
G03*
X38100000Y-55880000I1084008J1083982D01*
G01*
X51955700Y-44678601D02*
G75*
G03*
X53928603Y-43861396I0J2790101D01*
G01*
X41402000Y-53974991D02*
G75*
G03*
X40101185Y-54513816I0J-1839609D01*
G01*
X38100000Y-55880006D02*
G75*
G03*
X39184011Y-55430986I0J1533006D01*
G01*
X36194986Y-54610014D02*
G75*
G03*
X33128948Y-53340000I-3066086J-3066086D01*
G01*
X49637950Y-44678624D02*
G75*
G03*
X47654206Y-45500293I-50J-2805376D01*
G01*
%TO.N,Net-(J2-Pin_2)*%
X59070000Y-38069996D02*
G75*
G03*
X58011593Y-38508406I0J-1496804D01*
G01*
X51645700Y-44028599D02*
G75*
G03*
X53089400Y-43430599I0J2041699D01*
G01*
%TO.N,Net-(J2-Pin_1)*%
X59435000Y-36069993D02*
G75*
G03*
X58999688Y-36250313I0J-615607D01*
G01*
X51335700Y-43378597D02*
G75*
G03*
X52250197Y-42999802I0J1293297D01*
G01*
%TO.N,Net-(J1-Pin_10)*%
X44595700Y-49228590D02*
G75*
G03*
X43777483Y-49567516I0J-1157110D01*
G01*
X38672500Y-54100010D02*
G75*
G03*
X39649818Y-53695181I0J1382110D01*
G01*
%TO.N,Net-(J1-Pin_8)*%
X42791811Y-47928604D02*
G75*
G03*
X40170699Y-49014299I-11J-3706796D01*
G01*
X38592500Y-50099999D02*
G75*
G03*
X39433250Y-49751749I0J1188999D01*
G01*
%TO.N,Net-(J1-Pin_6)*%
X40014307Y-46364293D02*
G75*
G03*
X40652376Y-46628600I638093J638093D01*
G01*
X40014293Y-46364307D02*
G75*
G03*
X39376223Y-46100000I-638093J-638093D01*
G01*
%TO.N,Net-(J1-Pin_5)*%
X39959309Y-45039291D02*
G75*
G03*
X42226970Y-45978600I2267691J2267691D01*
G01*
X39345261Y-44425277D02*
G75*
G03*
X38560000Y-44100000I-785261J-785223D01*
G01*
%TO.N,Net-(J1-Pin_1)*%
X41198806Y-39919400D02*
G75*
G03*
X41708342Y-41149540I1739694J0D01*
G01*
X41198794Y-39919400D02*
G75*
G03*
X40689257Y-38689259I-1739694J0D01*
G01*
X43535198Y-42976396D02*
G75*
G03*
X44506200Y-43378600I971002J970996D01*
G01*
%TO.N,GND*%
X80619150Y-29210000D02*
X79375000Y-29210000D01*
X81661000Y-28168150D02*
X81661000Y-26035000D01*
X74325000Y-46868000D02*
X79166732Y-46868000D01*
X79375000Y-46990000D02*
X79314000Y-46929000D01*
%TO.N,J8_9*%
X86986351Y-61586351D02*
X88581802Y-63181802D01*
X85390900Y-57734591D02*
X85390900Y-50135000D01*
%TO.N,Net-(J1-Pin_1)*%
X40689258Y-38689258D02*
X38100000Y-36100000D01*
X44506200Y-43378600D02*
X45075000Y-43378600D01*
X41708341Y-41149541D02*
X43535197Y-42976397D01*
%TO.N,Net-(J1-Pin_5)*%
X39959300Y-45039300D02*
X39345269Y-44425269D01*
X42226970Y-45978600D02*
X45075000Y-45978600D01*
X38560000Y-44100000D02*
X38100000Y-44100000D01*
%TO.N,Net-(J1-Pin_6)*%
X40652376Y-46628600D02*
X45075000Y-46628600D01*
X39376223Y-46100000D02*
X38100000Y-46100000D01*
%TO.N,Net-(J1-Pin_8)*%
X40170699Y-49014299D02*
X39433250Y-49751749D01*
X42791811Y-47928600D02*
X45075000Y-47928600D01*
X38592500Y-50100000D02*
X38100000Y-50100000D01*
%TO.N,Net-(J1-Pin_10)*%
X43777483Y-49567516D02*
X39649818Y-53695181D01*
X44595700Y-49228600D02*
X45075000Y-49228600D01*
X38672500Y-54100000D02*
X38100000Y-54100000D01*
%TO.N,Net-(J2-Pin_1)*%
X58999687Y-36250312D02*
X52250197Y-42999802D01*
X51335700Y-43378600D02*
X50800000Y-43378600D01*
X59435000Y-36070000D02*
X59690000Y-36070000D01*
%TO.N,Net-(J2-Pin_2)*%
X59070000Y-38070000D02*
X59690000Y-38070000D01*
X58011593Y-38508406D02*
X53089400Y-43430599D01*
X51645700Y-44028600D02*
X50800000Y-44028600D01*
%TO.N,/SWDIO*%
X47531699Y-45622799D02*
X47654206Y-45500293D01*
X57023499Y-40766500D02*
X53928603Y-43861396D01*
X50800000Y-44678600D02*
X49637950Y-44678600D01*
X37015987Y-55430987D02*
X36195000Y-54610000D01*
X46587500Y-48059250D02*
X46587500Y-47902300D01*
X42702815Y-53436184D02*
X45532319Y-50606680D01*
X58705000Y-40070000D02*
X59690000Y-40070000D01*
X50800000Y-44678600D02*
X51955700Y-44678600D01*
X27305000Y-52705000D02*
X26670000Y-52070000D01*
X40101184Y-54513815D02*
X39184012Y-55430987D01*
X28838025Y-53340000D02*
X33128948Y-53340000D01*
%TO.N,/SDA*%
X51807600Y-30901600D02*
X51807600Y-31585600D01*
X49530000Y-26670000D02*
X49530000Y-25400000D01*
X58848500Y-54070000D02*
X59690000Y-54070000D01*
X51982800Y-49228600D02*
X50800000Y-49228600D01*
X51323938Y-29733938D02*
X50428025Y-28838025D01*
X54001965Y-50064965D02*
X57411969Y-53474969D01*
%TO.N,/SCL*%
X55253732Y-49741932D02*
X56836438Y-51324638D01*
X58635900Y-52070000D02*
X59690000Y-52070000D01*
X49267600Y-30901600D02*
X49267600Y-31585600D01*
X52445200Y-48578600D02*
X50800000Y-48578600D01*
X46990000Y-26670000D02*
X46990000Y-25400000D01*
X47888025Y-28838025D02*
X48783938Y-29733938D01*
%TO.N,/RX*%
X38100000Y-38100000D02*
X35560000Y-38100000D01*
X42801024Y-43434628D02*
X40864012Y-41497616D01*
X44234998Y-44028600D02*
X45075000Y-44028600D01*
X34290000Y-54610000D02*
X29210000Y-54610000D01*
X38100000Y-38100000D02*
X40415987Y-40415987D01*
%TO.N,/TX*%
X37100000Y-40100000D02*
X38052500Y-40100000D01*
X43924300Y-44678600D02*
X45075000Y-44678600D01*
X33020000Y-52070000D02*
X29210000Y-52070000D01*
X33020000Y-43180000D02*
X35392893Y-40807106D01*
X41959932Y-43864932D02*
X38228587Y-40133587D01*
%TO.N,/RST*%
X41112134Y-44293484D02*
X39208086Y-42389436D01*
X38100000Y-41910000D02*
X37871400Y-42138600D01*
X31993299Y-44450000D02*
X29210000Y-44450000D01*
X37690675Y-42100000D02*
X37052500Y-42100000D01*
X34829999Y-43274999D02*
X35264305Y-42840694D01*
X43611125Y-45328600D02*
X45075000Y-45328600D01*
%TO.N,+5V*%
X28768100Y-36789300D02*
X29210000Y-37231200D01*
X28768100Y-36789300D02*
X28808800Y-36830000D01*
%TO.N,/UP*%
X33972500Y-66357500D02*
X33020000Y-67310000D01*
X62587813Y-68580000D02*
X53855500Y-68580000D01*
X34367038Y-72467038D02*
X35433000Y-73533000D01*
X33020000Y-69215000D02*
X33020000Y-67310000D01*
X47037500Y-48403000D02*
X47037500Y-48083699D01*
X47891755Y-46088244D02*
X47844450Y-46135550D01*
X50800000Y-45328600D02*
X49725700Y-45328600D01*
X63545500Y-73777974D02*
X63545500Y-69537686D01*
X52684800Y-45328600D02*
X50800000Y-45328600D01*
X58759100Y-42070000D02*
X59690000Y-42070000D01*
X38177038Y-56515000D02*
X38608000Y-56515000D01*
X55902354Y-43995844D02*
X57169954Y-42728245D01*
X46004770Y-50896229D02*
X41643235Y-55257764D01*
X34925000Y-64057961D02*
X34925000Y-59767038D01*
X61377474Y-75946000D02*
X41258497Y-75946000D01*
%TO.N,/ENTER*%
X72643412Y-65659000D02*
X77769644Y-65659000D01*
X80725500Y-67390500D02*
X80725500Y-73031000D01*
X50800000Y-47928600D02*
X49403235Y-47928600D01*
X55908100Y-48999300D02*
X56020246Y-49111446D01*
X58334400Y-50070000D02*
X59690000Y-50070000D01*
X54649750Y-55880000D02*
X54355722Y-55880000D01*
X48837500Y-50453750D02*
X48837500Y-48494335D01*
X50388715Y-54198715D02*
X50453750Y-54263750D01*
X50800000Y-47928600D02*
X53323201Y-47928600D01*
X80725500Y-67390500D02*
X79859750Y-66524750D01*
X63024015Y-61674515D02*
X59053658Y-57704158D01*
%TO.N,/RIGHT*%
X57185299Y-45024299D02*
X57591450Y-44618149D01*
X42250064Y-74930000D02*
X52705000Y-74930000D01*
X38401544Y-73326544D02*
X38417500Y-73342500D01*
X38735000Y-64057961D02*
X38735000Y-62103698D01*
X53855500Y-73061000D02*
X61805500Y-73061000D01*
X47487500Y-48653594D02*
X47487500Y-48161463D01*
X46500165Y-51037230D02*
X41069373Y-56468022D01*
X50800000Y-45978600D02*
X49670363Y-45978600D01*
X53855500Y-73443000D02*
X53855500Y-73061000D01*
X53585385Y-74095114D02*
X52750500Y-74930000D01*
X36830000Y-69532500D02*
X36830000Y-67310000D01*
X50800000Y-45978600D02*
X54881415Y-45978600D01*
X58914800Y-44070000D02*
X59690000Y-44070000D01*
X36830000Y-67310000D02*
X37782500Y-66357500D01*
%TO.N,/LEFT*%
X46993585Y-51180206D02*
X45241250Y-52932542D01*
X40640000Y-67310000D02*
X41592500Y-66357500D01*
X42545000Y-59441865D02*
X42545000Y-64057961D01*
X49538595Y-46628600D02*
X50800000Y-46628600D01*
X41275000Y-72857000D02*
X41275000Y-70934012D01*
X49105500Y-73061000D02*
X41320500Y-73061000D01*
X47937500Y-48901396D02*
X47937500Y-48229695D01*
X40640000Y-67310000D02*
X40640000Y-69400987D01*
X58736410Y-46628600D02*
X50800000Y-46628600D01*
X41215250Y-73001250D02*
X41155500Y-73061000D01*
X59410700Y-46349300D02*
X59690000Y-46070000D01*
%TO.N,/DOWN*%
X66555500Y-73031000D02*
X74505500Y-73031000D01*
X51422651Y-57264651D02*
X50632917Y-56474917D01*
X48387500Y-51054000D02*
X48387500Y-48302693D01*
X50833500Y-47278600D02*
X55100995Y-47278600D01*
X66555500Y-69643500D02*
X66555500Y-73031000D01*
X61906848Y-61607348D02*
X64160175Y-63860675D01*
X57011604Y-48070000D02*
X59690000Y-48070000D01*
X50871600Y-47274000D02*
X50876200Y-47269400D01*
X50766500Y-47278600D02*
X49411593Y-47278600D01*
X50833500Y-47278600D02*
X50860494Y-47278600D01*
%TO.N,Net-(J6-In)*%
X84455000Y-30480000D02*
X84470500Y-30464500D01*
X84455000Y-30480000D02*
X84993650Y-31018650D01*
X84486000Y-30427079D02*
X84486000Y-25835000D01*
X85532300Y-32319066D02*
X85532300Y-33685000D01*
%TO.N,J9_11*%
X72527250Y-39168000D02*
X74325000Y-39168000D01*
X69458298Y-37896798D02*
X67121500Y-35560000D01*
%TO.N,J7_10*%
X93038141Y-39676858D02*
X93700887Y-39014112D01*
X91611000Y-40268000D02*
X90775000Y-40268000D01*
X95907750Y-38100000D02*
X97200500Y-38100000D01*
%TO.N,J7_9*%
X92737226Y-41368000D02*
X90775000Y-41368000D01*
X94494773Y-40640000D02*
X97200500Y-40640000D01*
%TO.N,J7_8*%
X94483460Y-43180000D02*
X97200500Y-43180000D01*
X92764539Y-42468000D02*
X90775000Y-42468000D01*
%TO.N,J7_7*%
X93700887Y-44805887D02*
X93059798Y-44164798D01*
X91619000Y-43568000D02*
X90775000Y-43568000D01*
X95907750Y-45720000D02*
X97200500Y-45720000D01*
%TO.N,J7_6*%
X92063041Y-45004441D02*
X93320746Y-46262146D01*
X93369253Y-46379253D02*
X94560394Y-47570394D01*
X96225250Y-48260000D02*
X97200500Y-48260000D01*
X91250800Y-44668000D02*
X90775000Y-44668000D01*
%TO.N,J7_4*%
X95513025Y-52333025D02*
X96279406Y-53099406D01*
X93716974Y-47996974D02*
X93228992Y-47508992D01*
X96860250Y-53340000D02*
X97200500Y-53340000D01*
X91681500Y-46868000D02*
X90775000Y-46868000D01*
%TO.N,J7_3*%
X94615000Y-54610000D02*
X95419900Y-55414900D01*
X96542750Y-55880000D02*
X97200500Y-55880000D01*
X92564000Y-48749000D02*
X92139381Y-48324381D01*
X93345000Y-50634500D02*
X93345000Y-51543948D01*
X91279000Y-47968000D02*
X90775000Y-47968000D01*
%TO.N,J9_5*%
X81833058Y-45768000D02*
X74325000Y-45768000D01*
X81996941Y-45768000D02*
X90775000Y-45768000D01*
%TO.N,J9_6*%
X69400987Y-48260000D02*
X67121500Y-48260000D01*
X73849200Y-44668000D02*
X74325000Y-44668000D01*
X70509253Y-47532146D02*
X73036958Y-45004441D01*
X70167499Y-47942499D02*
X70460746Y-47649253D01*
%TO.N,J9_7*%
X70814670Y-44755329D02*
X71180695Y-44389304D01*
X68485750Y-45720000D02*
X67121500Y-45720000D01*
X73163500Y-43568000D02*
X74325000Y-43568000D01*
%TO.N,J9_10*%
X68205500Y-39184000D02*
X67121500Y-38100000D01*
X70822507Y-40268000D02*
X74325000Y-40268000D01*
%TO.N,J7_11*%
X94674904Y-36219695D02*
X92063041Y-38831558D01*
X96267550Y-35560000D02*
X97200500Y-35560000D01*
X91250800Y-39168000D02*
X90775000Y-39168000D01*
%TO.N,J8_1*%
X74304191Y-57775808D02*
X68580000Y-63500000D01*
X76300000Y-52957500D02*
X76300000Y-50135000D01*
%TO.N,J8_2*%
X77436400Y-53659300D02*
X77436400Y-50135000D01*
X74944343Y-59675656D02*
X71120000Y-63500000D01*
%TO.N,J8_3*%
X78572700Y-55113496D02*
X78572700Y-50135000D01*
X76116350Y-61043650D02*
X73660000Y-63500000D01*
%TO.N,J8_5*%
X79792750Y-62447250D02*
X78740000Y-63500000D01*
X80845500Y-59905686D02*
X80845500Y-50135000D01*
%TO.N,J8_6*%
X81630900Y-63149100D02*
X81280000Y-63500000D01*
X81981800Y-62301952D02*
X81981800Y-50135000D01*
%TO.N,J8_7*%
X83469100Y-63149100D02*
X83820000Y-63500000D01*
X83118200Y-62301952D02*
X83118200Y-50135000D01*
%TO.N,J8_8*%
X84254500Y-59905686D02*
X84254500Y-50135000D01*
X85307250Y-62447250D02*
X86360000Y-63500000D01*
%TO.N,J8_10*%
X88983650Y-61043650D02*
X91440000Y-63500000D01*
X86527300Y-55113496D02*
X86527300Y-50135000D01*
%TO.N,J8_11*%
X90155656Y-59675656D02*
X93980000Y-63500000D01*
X87663600Y-53659300D02*
X87663600Y-50135000D01*
%TO.N,J8_12*%
X90795808Y-57775808D02*
X96520000Y-63500000D01*
X88800000Y-52957500D02*
X88800000Y-50135000D01*
%TO.N,+3.3V*%
X61914493Y-64135000D02*
X53789955Y-64135000D01*
X91123500Y-38068000D02*
X90775000Y-38068000D01*
X54610000Y-32888800D02*
X54610000Y-25400000D01*
X93345000Y-35242500D02*
X93345000Y-35188025D01*
X46727600Y-31585600D02*
X46727600Y-42092424D01*
X27595850Y-53684149D02*
X27500850Y-53589149D01*
X53746500Y-64153000D02*
X53728500Y-64171000D01*
X37497500Y-51497500D02*
X38100000Y-52100000D01*
X38720750Y-77561000D02*
X41155500Y-77561000D01*
X92671480Y-36868519D02*
X91718426Y-37821573D01*
X40637912Y-51437087D02*
X42938280Y-49136719D01*
X46137500Y-43517051D02*
X46137500Y-47944942D01*
X89074750Y-77531000D02*
X88696713Y-77531000D01*
X39037500Y-52100000D02*
X38100000Y-52100000D01*
X28603162Y-56298467D02*
X29575000Y-57270305D01*
X44729344Y-48578600D02*
X44285700Y-48578600D01*
X53855500Y-77561000D02*
X41155500Y-77561000D01*
X88624286Y-77561000D02*
X53855500Y-77561000D01*
X64630500Y-66851006D02*
X64630500Y-74244819D01*
X97200500Y-33020000D02*
X95513025Y-33020000D01*
X31115000Y-68733550D02*
X31115000Y-60988193D01*
X46727600Y-34207800D02*
X46727600Y-31585600D01*
X45503842Y-48578600D02*
X45420656Y-48578600D01*
X28035000Y-54744350D02*
X28035000Y-54926802D01*
X33700500Y-74975500D02*
X34564371Y-75839371D01*
X97200500Y-33020000D02*
X98130250Y-33949750D01*
X98107499Y-66992499D02*
X93383519Y-71716480D01*
X49349800Y-36830000D02*
X50668800Y-36830000D01*
X26669999Y-50895000D02*
X36042936Y-50895000D01*
X92036480Y-74968519D02*
X89756312Y-77248687D01*
X65593000Y-76568500D02*
X66555500Y-77531000D01*
X99060000Y-36194365D02*
X99060000Y-65590987D01*
%TO.N,J8_4*%
X79709100Y-57509591D02*
X79709100Y-50135000D01*
X77954550Y-61745450D02*
X76200000Y-63500000D01*
%TO.N,GND*%
X85949506Y-35335493D02*
X86518000Y-34767000D01*
X87311000Y-32852528D02*
X87311000Y-26035000D01*
X27305000Y-48895000D02*
X26670000Y-49530000D01*
X24950987Y-49080987D02*
X24765000Y-48895000D01*
X82397699Y-32030399D02*
X84052300Y-33685000D01*
X71407415Y-37305915D02*
X67121500Y-33020000D01*
X41074019Y-47278600D02*
X45075000Y-47278600D01*
X88392000Y-66399210D02*
X88392000Y-67691000D01*
X25907781Y-33248600D02*
X28565755Y-33248600D01*
X26035000Y-49530000D02*
X26670000Y-49530000D01*
X84865493Y-35784506D02*
X83836000Y-36814000D01*
D28*
X31124025Y-31750000D02*
X43906951Y-31750000D01*
D27*
X37826862Y-48260000D02*
X28838025Y-48260000D01*
X74325000Y-38068000D02*
X80808576Y-38068000D01*
X84865493Y-35335493D02*
X84348330Y-34818330D01*
D28*
X53162597Y-24307403D02*
X52070000Y-25400000D01*
D27*
X88900000Y-65172789D02*
X88900000Y-63500000D01*
X33274000Y-59372500D02*
X33274000Y-59309000D01*
X33229098Y-59480901D02*
X33020000Y-59690000D01*
X88900000Y-67437000D02*
X88265000Y-68072000D01*
X74325000Y-46868000D02*
X74325000Y-47968000D01*
D28*
X59909693Y-25808193D02*
X66714914Y-32613414D01*
D27*
X24130000Y-35026381D02*
X24130000Y-47361974D01*
D28*
X44105400Y-31667800D02*
X44187600Y-31585600D01*
D27*
X84052300Y-34103650D02*
X84052300Y-33685000D01*
D28*
X29591000Y-32385000D02*
X29070300Y-32905700D01*
D27*
X38213137Y-48100000D02*
X39090984Y-48100000D01*
D28*
X53663313Y-24100000D02*
X55785750Y-24100000D01*
D27*
X74325000Y-38068000D02*
X73247250Y-38068000D01*
%TD*%
M02*
