%TF.GenerationSoftware,KiCad,Pcbnew,7.0.9*%
%TF.CreationDate,2025-10-08T14:44:38+03:00*%
%TF.ProjectId,signalgenerator-rounded,7369676e-616c-4676-956e-657261746f72,rev?*%
%TF.SameCoordinates,Original*%
%TF.FileFunction,Soldermask,Top*%
%TF.FilePolarity,Negative*%
%FSLAX46Y46*%
G04 Gerber Fmt 4.6, Leading zero omitted, Abs format (unit mm)*
G04 Created by KiCad (PCBNEW 7.0.9) date 2025-10-08 14:44:38*
%MOMM*%
%LPD*%
G01*
G04 APERTURE LIST*
G04 Aperture macros list*
%AMRoundRect*
0 Rectangle with rounded corners*
0 $1 Rounding radius*
0 $2 $3 $4 $5 $6 $7 $8 $9 X,Y pos of 4 corners*
0 Add a 4 corners polygon primitive as box body*
4,1,4,$2,$3,$4,$5,$6,$7,$8,$9,$2,$3,0*
0 Add four circle primitives for the rounded corners*
1,1,$1+$1,$2,$3*
1,1,$1+$1,$4,$5*
1,1,$1+$1,$6,$7*
1,1,$1+$1,$8,$9*
0 Add four rect primitives between the rounded corners*
20,1,$1+$1,$2,$3,$4,$5,0*
20,1,$1+$1,$4,$5,$6,$7,0*
20,1,$1+$1,$6,$7,$8,$9,0*
20,1,$1+$1,$8,$9,$2,$3,0*%
G04 Aperture macros list end*
%ADD10C,2.500000*%
%ADD11RoundRect,0.100000X-0.637500X-0.100000X0.637500X-0.100000X0.637500X0.100000X-0.637500X0.100000X0*%
%ADD12R,1.700000X1.700000*%
%ADD13O,1.700000X1.700000*%
%ADD14R,1.550000X1.300000*%
%ADD15R,1.350000X1.350000*%
%ADD16O,1.350000X1.350000*%
%ADD17O,1.600000X2.000000*%
%ADD18R,1.270000X3.600000*%
%ADD19R,1.350000X4.200000*%
%ADD20RoundRect,0.250000X-1.050000X0.750000X-1.050000X-0.750000X1.050000X-0.750000X1.050000X0.750000X0*%
%ADD21O,2.600000X2.000000*%
%ADD22R,1.403200X0.900000*%
%ADD23R,0.950000X1.403200*%
%ADD24R,0.900000X1.403200*%
%ADD25C,1.600000*%
%ADD26O,1.600000X1.600000*%
G04 APERTURE END LIST*
D10*
%TO.C,REF\u002A\u002A*%
X99060000Y-76200000D03*
%TD*%
D11*
%TO.C,U1*%
X45075000Y-43378600D03*
X45075000Y-44028600D03*
X45075000Y-44678600D03*
X45075000Y-45328600D03*
X45075000Y-45978600D03*
X45075000Y-46628600D03*
X45075000Y-47278600D03*
X45075000Y-47928600D03*
X45075000Y-48578600D03*
X45075000Y-49228600D03*
X50800000Y-49228600D03*
X50800000Y-48578600D03*
X50800000Y-47928600D03*
X50800000Y-47278600D03*
X50800000Y-46628600D03*
X50800000Y-45978600D03*
X50800000Y-45328600D03*
X50800000Y-44678600D03*
X50800000Y-44028600D03*
X50800000Y-43378600D03*
%TD*%
D12*
%TO.C,J5*%
X54610000Y-25400000D03*
D13*
X52070000Y-25400000D03*
X49530000Y-25400000D03*
X46990000Y-25400000D03*
X44450000Y-25400000D03*
X41910000Y-25400000D03*
X39370000Y-25400000D03*
%TD*%
D14*
%TO.C,ENTER*%
X80725500Y-73031000D03*
X88675500Y-73031000D03*
X80725500Y-77531000D03*
X88675500Y-77531000D03*
%TD*%
D15*
%TO.C,J2*%
X59690000Y-36070000D03*
D16*
X59690000Y-38070000D03*
X59690000Y-40070000D03*
X59690000Y-42070000D03*
X59690000Y-44070000D03*
X59690000Y-46070000D03*
X59690000Y-48070000D03*
X59690000Y-50070000D03*
X59690000Y-52070000D03*
X59690000Y-54070000D03*
%TD*%
D17*
%TO.C,Brd1*%
X44450000Y-31750000D03*
X46990000Y-31750000D03*
X49530000Y-31750000D03*
X52070000Y-31750000D03*
%TD*%
D10*
%TO.C,REF\u002A\u002A*%
X99060000Y-25400000D03*
%TD*%
D14*
%TO.C,LEFT*%
X41155500Y-73061000D03*
X49105500Y-73061000D03*
X41155500Y-77561000D03*
X49105500Y-77561000D03*
%TD*%
D10*
%TO.C,REF\u002A\u002A*%
X22860000Y-76200000D03*
%TD*%
D14*
%TO.C,RIGHT*%
X66555500Y-73031000D03*
X74505500Y-73031000D03*
X66555500Y-77531000D03*
X74505500Y-77531000D03*
%TD*%
D18*
%TO.C,J6*%
X84486000Y-25835000D03*
D19*
X87311000Y-26035000D03*
X81661000Y-26035000D03*
%TD*%
D14*
%TO.C,UP*%
X61678500Y-68671000D03*
X53728500Y-68671000D03*
X61678500Y-64171000D03*
X53728500Y-64171000D03*
%TD*%
D12*
%TO.C,J3*%
X29210000Y-54610000D03*
D13*
X26670000Y-54610000D03*
X29210000Y-52070000D03*
X26670000Y-52070000D03*
X29210000Y-49530000D03*
X26670000Y-49530000D03*
X29210000Y-46990000D03*
X26670000Y-46990000D03*
X29210000Y-44450000D03*
X26670000Y-44450000D03*
%TD*%
D12*
%TO.C,J7*%
X97200500Y-33020000D03*
D13*
X97200500Y-35560000D03*
X97200500Y-38100000D03*
X97200500Y-40640000D03*
X97200500Y-43180000D03*
X97200500Y-45720000D03*
X97200500Y-48260000D03*
X97200500Y-50800000D03*
X97200500Y-53340000D03*
X97200500Y-55880000D03*
X97200500Y-58420000D03*
X97200500Y-60960000D03*
%TD*%
D14*
%TO.C,DOWN*%
X53855500Y-73061000D03*
X61805500Y-73061000D03*
X53855500Y-77561000D03*
X61805500Y-77561000D03*
%TD*%
D20*
%TO.C,J4*%
X28727400Y-33248600D03*
D21*
X28727400Y-36748600D03*
%TD*%
D22*
%TO.C,M1*%
X74325000Y-38068000D03*
X74325000Y-39168000D03*
X74325000Y-40268000D03*
X74325000Y-41368000D03*
X74325000Y-42468000D03*
X74325000Y-43568000D03*
X74325000Y-44668000D03*
X74325000Y-45768000D03*
X74325000Y-46868000D03*
X74325000Y-47968000D03*
D23*
X76300000Y-50135000D03*
X77436400Y-50135000D03*
X78572700Y-50135000D03*
X79709100Y-50135000D03*
X80845500Y-50135000D03*
X81981800Y-50135000D03*
X83118200Y-50135000D03*
X84254500Y-50135000D03*
X85390900Y-50135000D03*
X86527300Y-50135000D03*
X87663600Y-50135000D03*
X88800000Y-50135000D03*
D22*
X90775000Y-47968000D03*
X90775000Y-46868000D03*
X90775000Y-45768000D03*
X90775000Y-44668000D03*
X90775000Y-43568000D03*
X90775000Y-42468000D03*
X90775000Y-41368000D03*
X90775000Y-40268000D03*
X90775000Y-39168000D03*
X90775000Y-38068000D03*
D24*
X85532300Y-33685000D03*
X84052300Y-33685000D03*
%TD*%
D15*
%TO.C,J1*%
X38100000Y-36100000D03*
D16*
X38100000Y-38100000D03*
X38100000Y-40100000D03*
X38100000Y-42100000D03*
X38100000Y-44100000D03*
X38100000Y-46100000D03*
X38100000Y-48100000D03*
X38100000Y-50100000D03*
X38100000Y-52100000D03*
X38100000Y-54100000D03*
%TD*%
D12*
%TO.C,J9*%
X67121500Y-60960000D03*
D13*
X67121500Y-58420000D03*
X67121500Y-55880000D03*
X67121500Y-53340000D03*
X67121500Y-50800000D03*
X67121500Y-48260000D03*
X67121500Y-45720000D03*
X67121500Y-43180000D03*
X67121500Y-40640000D03*
X67121500Y-38100000D03*
X67121500Y-35560000D03*
X67121500Y-33020000D03*
%TD*%
D10*
%TO.C,REF\u002A\u002A*%
X22860000Y-25400000D03*
%TD*%
D12*
%TO.C,J8*%
X68580000Y-63500000D03*
D13*
X71120000Y-63500000D03*
X73660000Y-63500000D03*
X76200000Y-63500000D03*
X78740000Y-63500000D03*
X81280000Y-63500000D03*
X83820000Y-63500000D03*
X86360000Y-63500000D03*
X88900000Y-63500000D03*
X91440000Y-63500000D03*
X93980000Y-63500000D03*
X96520000Y-63500000D03*
%TD*%
D25*
%TO.C,R1*%
X33020000Y-67310000D03*
D26*
X33020000Y-59690000D03*
%TD*%
D25*
%TO.C,R4*%
X36830000Y-67310000D03*
D26*
X36830000Y-59690000D03*
%TD*%
D25*
%TO.C,R3*%
X40640000Y-67310000D03*
D26*
X40640000Y-59690000D03*
%TD*%
D25*
%TO.C,R2*%
X66548000Y-67691000D03*
D26*
X74168000Y-67691000D03*
%TD*%
D25*
%TO.C,R5*%
X80772000Y-67691000D03*
D26*
X88392000Y-67691000D03*
%TD*%
M02*
