M48
; DRILL file {KiCad 7.0.9} date Wed Oct  8 14:44:13 2025
; FORMAT={-:-/ absolute / inch / decimal}
; #@! TF.CreationDate,2025-10-08T14:44:13+03:00
; #@! TF.GenerationSoftware,Kicad,Pcbnew,7.0.9
; #@! TF.FileFunction,Plated,1,2,PTH
FMAT,2
INCH
; #@! TA.AperFunction,Plated,PTH,ViaDrill
T1C0.0157
; #@! TA.AperFunction,Plated,PTH,ComponentDrill
T2C0.0315
; #@! TA.AperFunction,Plated,PTH,ComponentDrill
T3C0.0394
; #@! TA.AperFunction,Plated,PTH,ComponentDrill
T4C0.0630
%
G90
G05
T1
X1.3Y-1.7
X1.3Y-2.05
X1.35Y-2.15
X1.4Y-1.5
X1.4Y-1.5
X3.125Y-1.15
X3.125Y-1.85
X3.325Y-1.2
T2
X1.3Y-2.35
X1.3Y-2.65
X1.45Y-2.35
X1.45Y-2.65
X1.5Y-1.4213
X1.5Y-1.5
X1.5Y-1.5787
X1.5Y-1.6575
X1.5Y-1.7362
X1.5Y-1.815
X1.5Y-1.8937
X1.5Y-1.9724
X1.5Y-2.0512
X1.5Y-2.1299
X1.6Y-2.35
X1.6Y-2.65
X2.35Y-1.4201
X2.35Y-1.4988
X2.35Y-1.5776
X2.35Y-1.6563
X2.35Y-1.735
X2.35Y-1.8138
X2.35Y-1.8925
X2.35Y-1.9713
X2.35Y-2.05
X2.35Y-2.1287
X2.62Y-2.665
X2.92Y-2.665
X3.18Y-2.665
X3.48Y-2.665
T3
X1.05Y-1.75
X1.05Y-1.85
X1.05Y-1.95
X1.05Y-2.05
X1.05Y-2.15
X1.15Y-1.75
X1.15Y-1.85
X1.15Y-1.95
X1.15Y-2.05
X1.15Y-2.15
X1.55Y-1.0
X1.65Y-1.0
X1.75Y-1.0
X1.75Y-1.25
X1.85Y-1.0
X1.85Y-1.25
X1.95Y-1.0
X1.95Y-1.25
X2.05Y-1.0
X2.05Y-1.25
X2.15Y-1.0
X2.6426Y-1.3
X2.6426Y-1.4
X2.6426Y-1.5
X2.6426Y-1.6
X2.6426Y-1.7
X2.6426Y-1.8
X2.6426Y-1.9
X2.6426Y-2.0
X2.6426Y-2.1
X2.6426Y-2.2
X2.6426Y-2.3
X2.6426Y-2.4
X2.7Y-2.5
X2.8Y-2.5
X2.9Y-2.5
X3.0Y-2.5
X3.1Y-2.5
X3.2Y-2.5
X3.3Y-2.5
X3.4Y-2.5
X3.5Y-2.5
X3.6Y-2.5
X3.7Y-2.5
X3.8Y-2.5
X3.8268Y-1.3
X3.8268Y-1.4
X3.8268Y-1.5
X3.8268Y-1.6
X3.8268Y-1.7
X3.8268Y-1.8
X3.8268Y-1.9
X3.8268Y-2.0
X3.8268Y-2.1
X3.8268Y-2.2
X3.8268Y-2.3
X3.8268Y-2.4
T4
X1.131Y-1.309
X1.131Y-1.4468
T0
M30
