%TF.GenerationSoftware,KiCad,Pcbnew,7.0.9*%
%TF.CreationDate,2025-10-08T14:44:38+03:00*%
%TF.ProjectId,signalgenerator-rounded,7369676e-616c-4676-956e-657261746f72,rev?*%
%TF.SameCoordinates,Original*%
%TF.FileFunction,Legend,Bot*%
%TF.FilePolarity,Positive*%
%FSLAX46Y46*%
G04 Gerber Fmt 4.6, Leading zero omitted, Abs format (unit mm)*
G04 Created by KiCad (PCBNEW 7.0.9) date 2025-10-08 14:44:38*
%MOMM*%
%LPD*%
G01*
G04 APERTURE LIST*
%ADD10C,0.150000*%
%ADD11C,0.075000*%
%ADD12C,0.120000*%
G04 APERTURE END LIST*
D10*
X92710000Y-48260000D02*
X100330000Y-48260000D01*
X70849999Y-74384819D02*
X70659523Y-74384819D01*
X70659523Y-74384819D02*
X70564285Y-74432438D01*
X70564285Y-74432438D02*
X70469047Y-74527676D01*
X70469047Y-74527676D02*
X70421428Y-74718152D01*
X70421428Y-74718152D02*
X70421428Y-75051485D01*
X70421428Y-75051485D02*
X70469047Y-75241961D01*
X70469047Y-75241961D02*
X70564285Y-75337200D01*
X70564285Y-75337200D02*
X70659523Y-75384819D01*
X70659523Y-75384819D02*
X70849999Y-75384819D01*
X70849999Y-75384819D02*
X70945237Y-75337200D01*
X70945237Y-75337200D02*
X71040475Y-75241961D01*
X71040475Y-75241961D02*
X71088094Y-75051485D01*
X71088094Y-75051485D02*
X71088094Y-74718152D01*
X71088094Y-74718152D02*
X71040475Y-74527676D01*
X71040475Y-74527676D02*
X70945237Y-74432438D01*
X70945237Y-74432438D02*
X70849999Y-74384819D01*
X69992856Y-74384819D02*
X69992856Y-75194342D01*
X69992856Y-75194342D02*
X69945237Y-75289580D01*
X69945237Y-75289580D02*
X69897618Y-75337200D01*
X69897618Y-75337200D02*
X69802380Y-75384819D01*
X69802380Y-75384819D02*
X69611904Y-75384819D01*
X69611904Y-75384819D02*
X69516666Y-75337200D01*
X69516666Y-75337200D02*
X69469047Y-75289580D01*
X69469047Y-75289580D02*
X69421428Y-75194342D01*
X69421428Y-75194342D02*
X69421428Y-74384819D01*
X69088094Y-74384819D02*
X68516666Y-74384819D01*
X68802380Y-75384819D02*
X68802380Y-74384819D01*
X65264819Y-63166666D02*
X65979104Y-63166666D01*
X65979104Y-63166666D02*
X66121961Y-63119047D01*
X66121961Y-63119047D02*
X66217200Y-63023809D01*
X66217200Y-63023809D02*
X66264819Y-62880952D01*
X66264819Y-62880952D02*
X66264819Y-62785714D01*
X65693390Y-63785714D02*
X65645771Y-63690476D01*
X65645771Y-63690476D02*
X65598152Y-63642857D01*
X65598152Y-63642857D02*
X65502914Y-63595238D01*
X65502914Y-63595238D02*
X65455295Y-63595238D01*
X65455295Y-63595238D02*
X65360057Y-63642857D01*
X65360057Y-63642857D02*
X65312438Y-63690476D01*
X65312438Y-63690476D02*
X65264819Y-63785714D01*
X65264819Y-63785714D02*
X65264819Y-63976190D01*
X65264819Y-63976190D02*
X65312438Y-64071428D01*
X65312438Y-64071428D02*
X65360057Y-64119047D01*
X65360057Y-64119047D02*
X65455295Y-64166666D01*
X65455295Y-64166666D02*
X65502914Y-64166666D01*
X65502914Y-64166666D02*
X65598152Y-64119047D01*
X65598152Y-64119047D02*
X65645771Y-64071428D01*
X65645771Y-64071428D02*
X65693390Y-63976190D01*
X65693390Y-63976190D02*
X65693390Y-63785714D01*
X65693390Y-63785714D02*
X65741009Y-63690476D01*
X65741009Y-63690476D02*
X65788628Y-63642857D01*
X65788628Y-63642857D02*
X65883866Y-63595238D01*
X65883866Y-63595238D02*
X66074342Y-63595238D01*
X66074342Y-63595238D02*
X66169580Y-63642857D01*
X66169580Y-63642857D02*
X66217200Y-63690476D01*
X66217200Y-63690476D02*
X66264819Y-63785714D01*
X66264819Y-63785714D02*
X66264819Y-63976190D01*
X66264819Y-63976190D02*
X66217200Y-64071428D01*
X66217200Y-64071428D02*
X66169580Y-64119047D01*
X66169580Y-64119047D02*
X66074342Y-64166666D01*
X66074342Y-64166666D02*
X65883866Y-64166666D01*
X65883866Y-64166666D02*
X65788628Y-64119047D01*
X65788628Y-64119047D02*
X65741009Y-64071428D01*
X65741009Y-64071428D02*
X65693390Y-63976190D01*
X33474819Y-63333333D02*
X32998628Y-63000000D01*
X33474819Y-62761905D02*
X32474819Y-62761905D01*
X32474819Y-62761905D02*
X32474819Y-63142857D01*
X32474819Y-63142857D02*
X32522438Y-63238095D01*
X32522438Y-63238095D02*
X32570057Y-63285714D01*
X32570057Y-63285714D02*
X32665295Y-63333333D01*
X32665295Y-63333333D02*
X32808152Y-63333333D01*
X32808152Y-63333333D02*
X32903390Y-63285714D01*
X32903390Y-63285714D02*
X32951009Y-63238095D01*
X32951009Y-63238095D02*
X32998628Y-63142857D01*
X32998628Y-63142857D02*
X32998628Y-62761905D01*
X33474819Y-64285714D02*
X33474819Y-63714286D01*
X33474819Y-64000000D02*
X32474819Y-64000000D01*
X32474819Y-64000000D02*
X32617676Y-63904762D01*
X32617676Y-63904762D02*
X32712914Y-63809524D01*
X32712914Y-63809524D02*
X32760533Y-63714286D01*
X45180237Y-68463390D02*
X45275475Y-68415771D01*
X45275475Y-68415771D02*
X45323094Y-68368152D01*
X45323094Y-68368152D02*
X45370713Y-68272914D01*
X45370713Y-68272914D02*
X45370713Y-68225295D01*
X45370713Y-68225295D02*
X45323094Y-68130057D01*
X45323094Y-68130057D02*
X45275475Y-68082438D01*
X45275475Y-68082438D02*
X45180237Y-68034819D01*
X45180237Y-68034819D02*
X44989761Y-68034819D01*
X44989761Y-68034819D02*
X44894523Y-68082438D01*
X44894523Y-68082438D02*
X44846904Y-68130057D01*
X44846904Y-68130057D02*
X44799285Y-68225295D01*
X44799285Y-68225295D02*
X44799285Y-68272914D01*
X44799285Y-68272914D02*
X44846904Y-68368152D01*
X44846904Y-68368152D02*
X44894523Y-68415771D01*
X44894523Y-68415771D02*
X44989761Y-68463390D01*
X44989761Y-68463390D02*
X45180237Y-68463390D01*
X45180237Y-68463390D02*
X45275475Y-68511009D01*
X45275475Y-68511009D02*
X45323094Y-68558628D01*
X45323094Y-68558628D02*
X45370713Y-68653866D01*
X45370713Y-68653866D02*
X45370713Y-68844342D01*
X45370713Y-68844342D02*
X45323094Y-68939580D01*
X45323094Y-68939580D02*
X45275475Y-68987200D01*
X45275475Y-68987200D02*
X45180237Y-69034819D01*
X45180237Y-69034819D02*
X44989761Y-69034819D01*
X44989761Y-69034819D02*
X44894523Y-68987200D01*
X44894523Y-68987200D02*
X44846904Y-68939580D01*
X44846904Y-68939580D02*
X44799285Y-68844342D01*
X44799285Y-68844342D02*
X44799285Y-68653866D01*
X44799285Y-68653866D02*
X44846904Y-68558628D01*
X44846904Y-68558628D02*
X44894523Y-68511009D01*
X44894523Y-68511009D02*
X44989761Y-68463390D01*
X37284819Y-63333333D02*
X36808628Y-63000000D01*
X37284819Y-62761905D02*
X36284819Y-62761905D01*
X36284819Y-62761905D02*
X36284819Y-63142857D01*
X36284819Y-63142857D02*
X36332438Y-63238095D01*
X36332438Y-63238095D02*
X36380057Y-63285714D01*
X36380057Y-63285714D02*
X36475295Y-63333333D01*
X36475295Y-63333333D02*
X36618152Y-63333333D01*
X36618152Y-63333333D02*
X36713390Y-63285714D01*
X36713390Y-63285714D02*
X36761009Y-63238095D01*
X36761009Y-63238095D02*
X36808628Y-63142857D01*
X36808628Y-63142857D02*
X36808628Y-62761905D01*
X36618152Y-64190476D02*
X37284819Y-64190476D01*
X36237200Y-63952381D02*
X36951485Y-63714286D01*
X36951485Y-63714286D02*
X36951485Y-64333333D01*
X41094819Y-63333333D02*
X40618628Y-63000000D01*
X41094819Y-62761905D02*
X40094819Y-62761905D01*
X40094819Y-62761905D02*
X40094819Y-63142857D01*
X40094819Y-63142857D02*
X40142438Y-63238095D01*
X40142438Y-63238095D02*
X40190057Y-63285714D01*
X40190057Y-63285714D02*
X40285295Y-63333333D01*
X40285295Y-63333333D02*
X40428152Y-63333333D01*
X40428152Y-63333333D02*
X40523390Y-63285714D01*
X40523390Y-63285714D02*
X40571009Y-63238095D01*
X40571009Y-63238095D02*
X40618628Y-63142857D01*
X40618628Y-63142857D02*
X40618628Y-62761905D01*
X40094819Y-63666667D02*
X40094819Y-64285714D01*
X40094819Y-64285714D02*
X40475771Y-63952381D01*
X40475771Y-63952381D02*
X40475771Y-64095238D01*
X40475771Y-64095238D02*
X40523390Y-64190476D01*
X40523390Y-64190476D02*
X40571009Y-64238095D01*
X40571009Y-64238095D02*
X40666247Y-64285714D01*
X40666247Y-64285714D02*
X40904342Y-64285714D01*
X40904342Y-64285714D02*
X40999580Y-64238095D01*
X40999580Y-64238095D02*
X41047200Y-64190476D01*
X41047200Y-64190476D02*
X41094819Y-64095238D01*
X41094819Y-64095238D02*
X41094819Y-63809524D01*
X41094819Y-63809524D02*
X41047200Y-63714286D01*
X41047200Y-63714286D02*
X40999580Y-63666667D01*
X55371904Y-68444819D02*
X55371904Y-69254342D01*
X55371904Y-69254342D02*
X55324285Y-69349580D01*
X55324285Y-69349580D02*
X55276666Y-69397200D01*
X55276666Y-69397200D02*
X55181428Y-69444819D01*
X55181428Y-69444819D02*
X54990952Y-69444819D01*
X54990952Y-69444819D02*
X54895714Y-69397200D01*
X54895714Y-69397200D02*
X54848095Y-69349580D01*
X54848095Y-69349580D02*
X54800476Y-69254342D01*
X54800476Y-69254342D02*
X54800476Y-68444819D01*
X53895714Y-68778152D02*
X53895714Y-69444819D01*
X54133809Y-68397200D02*
X54371904Y-69111485D01*
X54371904Y-69111485D02*
X53752857Y-69111485D01*
X70524666Y-68145819D02*
X70857999Y-67669628D01*
X71096094Y-68145819D02*
X71096094Y-67145819D01*
X71096094Y-67145819D02*
X70715142Y-67145819D01*
X70715142Y-67145819D02*
X70619904Y-67193438D01*
X70619904Y-67193438D02*
X70572285Y-67241057D01*
X70572285Y-67241057D02*
X70524666Y-67336295D01*
X70524666Y-67336295D02*
X70524666Y-67479152D01*
X70524666Y-67479152D02*
X70572285Y-67574390D01*
X70572285Y-67574390D02*
X70619904Y-67622009D01*
X70619904Y-67622009D02*
X70715142Y-67669628D01*
X70715142Y-67669628D02*
X71096094Y-67669628D01*
X70143713Y-67241057D02*
X70096094Y-67193438D01*
X70096094Y-67193438D02*
X70000856Y-67145819D01*
X70000856Y-67145819D02*
X69762761Y-67145819D01*
X69762761Y-67145819D02*
X69667523Y-67193438D01*
X69667523Y-67193438D02*
X69619904Y-67241057D01*
X69619904Y-67241057D02*
X69572285Y-67336295D01*
X69572285Y-67336295D02*
X69572285Y-67431533D01*
X69572285Y-67431533D02*
X69619904Y-67574390D01*
X69619904Y-67574390D02*
X70191332Y-68145819D01*
X70191332Y-68145819D02*
X69572285Y-68145819D01*
X76707904Y-52921819D02*
X76707904Y-53731342D01*
X76707904Y-53731342D02*
X76660285Y-53826580D01*
X76660285Y-53826580D02*
X76612666Y-53874200D01*
X76612666Y-53874200D02*
X76517428Y-53921819D01*
X76517428Y-53921819D02*
X76326952Y-53921819D01*
X76326952Y-53921819D02*
X76231714Y-53874200D01*
X76231714Y-53874200D02*
X76184095Y-53826580D01*
X76184095Y-53826580D02*
X76136476Y-53731342D01*
X76136476Y-53731342D02*
X76136476Y-52921819D01*
X75755523Y-52921819D02*
X75136476Y-52921819D01*
X75136476Y-52921819D02*
X75469809Y-53302771D01*
X75469809Y-53302771D02*
X75326952Y-53302771D01*
X75326952Y-53302771D02*
X75231714Y-53350390D01*
X75231714Y-53350390D02*
X75184095Y-53398009D01*
X75184095Y-53398009D02*
X75136476Y-53493247D01*
X75136476Y-53493247D02*
X75136476Y-53731342D01*
X75136476Y-53731342D02*
X75184095Y-53826580D01*
X75184095Y-53826580D02*
X75231714Y-53874200D01*
X75231714Y-53874200D02*
X75326952Y-53921819D01*
X75326952Y-53921819D02*
X75612666Y-53921819D01*
X75612666Y-53921819D02*
X75707904Y-53874200D01*
X75707904Y-53874200D02*
X75755523Y-53826580D01*
X42306904Y-74384819D02*
X42783094Y-74384819D01*
X42783094Y-74384819D02*
X42830713Y-74861009D01*
X42830713Y-74861009D02*
X42783094Y-74813390D01*
X42783094Y-74813390D02*
X42687856Y-74765771D01*
X42687856Y-74765771D02*
X42449761Y-74765771D01*
X42449761Y-74765771D02*
X42354523Y-74813390D01*
X42354523Y-74813390D02*
X42306904Y-74861009D01*
X42306904Y-74861009D02*
X42259285Y-74956247D01*
X42259285Y-74956247D02*
X42259285Y-75194342D01*
X42259285Y-75194342D02*
X42306904Y-75289580D01*
X42306904Y-75289580D02*
X42354523Y-75337200D01*
X42354523Y-75337200D02*
X42449761Y-75384819D01*
X42449761Y-75384819D02*
X42687856Y-75384819D01*
X42687856Y-75384819D02*
X42783094Y-75337200D01*
X42783094Y-75337200D02*
X42830713Y-75289580D01*
X84748666Y-68145819D02*
X85081999Y-67669628D01*
X85320094Y-68145819D02*
X85320094Y-67145819D01*
X85320094Y-67145819D02*
X84939142Y-67145819D01*
X84939142Y-67145819D02*
X84843904Y-67193438D01*
X84843904Y-67193438D02*
X84796285Y-67241057D01*
X84796285Y-67241057D02*
X84748666Y-67336295D01*
X84748666Y-67336295D02*
X84748666Y-67479152D01*
X84748666Y-67479152D02*
X84796285Y-67574390D01*
X84796285Y-67574390D02*
X84843904Y-67622009D01*
X84843904Y-67622009D02*
X84939142Y-67669628D01*
X84939142Y-67669628D02*
X85320094Y-67669628D01*
X83843904Y-67145819D02*
X84320094Y-67145819D01*
X84320094Y-67145819D02*
X84367713Y-67622009D01*
X84367713Y-67622009D02*
X84320094Y-67574390D01*
X84320094Y-67574390D02*
X84224856Y-67526771D01*
X84224856Y-67526771D02*
X83986761Y-67526771D01*
X83986761Y-67526771D02*
X83891523Y-67574390D01*
X83891523Y-67574390D02*
X83843904Y-67622009D01*
X83843904Y-67622009D02*
X83796285Y-67717247D01*
X83796285Y-67717247D02*
X83796285Y-67955342D01*
X83796285Y-67955342D02*
X83843904Y-68050580D01*
X83843904Y-68050580D02*
X83891523Y-68098200D01*
X83891523Y-68098200D02*
X83986761Y-68145819D01*
X83986761Y-68145819D02*
X84224856Y-68145819D01*
X84224856Y-68145819D02*
X84320094Y-68098200D01*
X84320094Y-68098200D02*
X84367713Y-68050580D01*
X61309285Y-68306819D02*
X61880713Y-68306819D01*
X61594999Y-68306819D02*
X61594999Y-67306819D01*
X61594999Y-67306819D02*
X61690237Y-67449676D01*
X61690237Y-67449676D02*
X61785475Y-67544914D01*
X61785475Y-67544914D02*
X61880713Y-67592533D01*
X43513332Y-70574819D02*
X42846666Y-70574819D01*
X42846666Y-70574819D02*
X43275237Y-71574819D01*
X64468332Y-74384819D02*
X63849285Y-74384819D01*
X63849285Y-74384819D02*
X64182618Y-74765771D01*
X64182618Y-74765771D02*
X64039761Y-74765771D01*
X64039761Y-74765771D02*
X63944523Y-74813390D01*
X63944523Y-74813390D02*
X63896904Y-74861009D01*
X63896904Y-74861009D02*
X63849285Y-74956247D01*
X63849285Y-74956247D02*
X63849285Y-75194342D01*
X63849285Y-75194342D02*
X63896904Y-75289580D01*
X63896904Y-75289580D02*
X63944523Y-75337200D01*
X63944523Y-75337200D02*
X64039761Y-75384819D01*
X64039761Y-75384819D02*
X64325475Y-75384819D01*
X64325475Y-75384819D02*
X64420713Y-75337200D01*
X64420713Y-75337200D02*
X64468332Y-75289580D01*
X51579819Y-49403095D02*
X52389342Y-49403095D01*
X52389342Y-49403095D02*
X52484580Y-49450714D01*
X52484580Y-49450714D02*
X52532200Y-49498333D01*
X52532200Y-49498333D02*
X52579819Y-49593571D01*
X52579819Y-49593571D02*
X52579819Y-49784047D01*
X52579819Y-49784047D02*
X52532200Y-49879285D01*
X52532200Y-49879285D02*
X52484580Y-49926904D01*
X52484580Y-49926904D02*
X52389342Y-49974523D01*
X52389342Y-49974523D02*
X51579819Y-49974523D01*
X51675057Y-50403095D02*
X51627438Y-50450714D01*
X51627438Y-50450714D02*
X51579819Y-50545952D01*
X51579819Y-50545952D02*
X51579819Y-50784047D01*
X51579819Y-50784047D02*
X51627438Y-50879285D01*
X51627438Y-50879285D02*
X51675057Y-50926904D01*
X51675057Y-50926904D02*
X51770295Y-50974523D01*
X51770295Y-50974523D02*
X51865533Y-50974523D01*
X51865533Y-50974523D02*
X52008390Y-50926904D01*
X52008390Y-50926904D02*
X52579819Y-50355476D01*
X52579819Y-50355476D02*
X52579819Y-50974523D01*
X43624523Y-72479819D02*
X43814999Y-72479819D01*
X43814999Y-72479819D02*
X43910237Y-72527438D01*
X43910237Y-72527438D02*
X43957856Y-72575057D01*
X43957856Y-72575057D02*
X44053094Y-72717914D01*
X44053094Y-72717914D02*
X44100713Y-72908390D01*
X44100713Y-72908390D02*
X44100713Y-73289342D01*
X44100713Y-73289342D02*
X44053094Y-73384580D01*
X44053094Y-73384580D02*
X44005475Y-73432200D01*
X44005475Y-73432200D02*
X43910237Y-73479819D01*
X43910237Y-73479819D02*
X43719761Y-73479819D01*
X43719761Y-73479819D02*
X43624523Y-73432200D01*
X43624523Y-73432200D02*
X43576904Y-73384580D01*
X43576904Y-73384580D02*
X43529285Y-73289342D01*
X43529285Y-73289342D02*
X43529285Y-73051247D01*
X43529285Y-73051247D02*
X43576904Y-72956009D01*
X43576904Y-72956009D02*
X43624523Y-72908390D01*
X43624523Y-72908390D02*
X43719761Y-72860771D01*
X43719761Y-72860771D02*
X43910237Y-72860771D01*
X43910237Y-72860771D02*
X44005475Y-72908390D01*
X44005475Y-72908390D02*
X44053094Y-72956009D01*
X44053094Y-72956009D02*
X44100713Y-73051247D01*
X65693094Y-71279819D02*
X65693094Y-70279819D01*
X65693094Y-70279819D02*
X65454999Y-70279819D01*
X65454999Y-70279819D02*
X65312142Y-70327438D01*
X65312142Y-70327438D02*
X65216904Y-70422676D01*
X65216904Y-70422676D02*
X65169285Y-70517914D01*
X65169285Y-70517914D02*
X65121666Y-70708390D01*
X65121666Y-70708390D02*
X65121666Y-70851247D01*
X65121666Y-70851247D02*
X65169285Y-71041723D01*
X65169285Y-71041723D02*
X65216904Y-71136961D01*
X65216904Y-71136961D02*
X65312142Y-71232200D01*
X65312142Y-71232200D02*
X65454999Y-71279819D01*
X65454999Y-71279819D02*
X65693094Y-71279819D01*
X64169285Y-71279819D02*
X64740713Y-71279819D01*
X64454999Y-71279819D02*
X64454999Y-70279819D01*
X64454999Y-70279819D02*
X64550237Y-70422676D01*
X64550237Y-70422676D02*
X64645475Y-70517914D01*
X64645475Y-70517914D02*
X64740713Y-70565533D01*
D11*
X65762142Y-73482409D02*
X66047856Y-73482409D01*
X65904999Y-73482409D02*
X65904999Y-72982409D01*
X65904999Y-72982409D02*
X65952618Y-73053838D01*
X65952618Y-73053838D02*
X66000237Y-73101457D01*
X66000237Y-73101457D02*
X66047856Y-73125266D01*
D12*
%TO.C,OUT*%
X67875000Y-74930000D02*
G75*
G03*
X67875000Y-74930000I-1200000J0D01*
G01*
%TO.C,J8*%
X97850000Y-62170000D02*
X97850000Y-64830000D01*
X69850000Y-62170000D02*
X97850000Y-62170000D01*
X69850000Y-62170000D02*
X69850000Y-64830000D01*
X67250000Y-63500000D02*
X67250000Y-64830000D01*
X69850000Y-64830000D02*
X97850000Y-64830000D01*
X67250000Y-64830000D02*
X68580000Y-64830000D01*
%TO.C,R1*%
X31650000Y-66770000D02*
X31650000Y-60230000D01*
X31980000Y-66770000D02*
X31650000Y-66770000D01*
X34060000Y-66770000D02*
X34390000Y-66770000D01*
X34390000Y-66770000D02*
X34390000Y-60230000D01*
X31650000Y-60230000D02*
X31980000Y-60230000D01*
X34390000Y-60230000D02*
X34060000Y-60230000D01*
%TO.C,8*%
X49460000Y-69215000D02*
G75*
G03*
X49460000Y-69215000I-1200000J0D01*
G01*
%TO.C,R4*%
X35460000Y-66770000D02*
X35460000Y-60230000D01*
X35790000Y-66770000D02*
X35460000Y-66770000D01*
X37870000Y-66770000D02*
X38200000Y-66770000D01*
X38200000Y-66770000D02*
X38200000Y-60230000D01*
X35460000Y-60230000D02*
X35790000Y-60230000D01*
X38200000Y-60230000D02*
X37870000Y-60230000D01*
%TO.C,R3*%
X39270000Y-66770000D02*
X39270000Y-60230000D01*
X39600000Y-66770000D02*
X39270000Y-66770000D01*
X41680000Y-66770000D02*
X42010000Y-66770000D01*
X42010000Y-66770000D02*
X42010000Y-60230000D01*
X39270000Y-60230000D02*
X39600000Y-60230000D01*
X42010000Y-60230000D02*
X41680000Y-60230000D01*
%TO.C,U4*%
X54610000Y-74950000D02*
X56560000Y-74950000D01*
X54610000Y-74950000D02*
X52660000Y-74950000D01*
X54610000Y-69830000D02*
X58060000Y-69830000D01*
X54610000Y-69830000D02*
X52660000Y-69830000D01*
%TO.C,R2*%
X67088000Y-66321000D02*
X73628000Y-66321000D01*
X67088000Y-66651000D02*
X67088000Y-66321000D01*
X67088000Y-68731000D02*
X67088000Y-69061000D01*
X67088000Y-69061000D02*
X73628000Y-69061000D01*
X73628000Y-66321000D02*
X73628000Y-66651000D01*
X73628000Y-69061000D02*
X73628000Y-68731000D01*
D10*
%TO.C,U3*%
X89604000Y-52391000D02*
X89604000Y-50291000D01*
X89604000Y-35291000D02*
X89604000Y-33391000D01*
X89604000Y-33391000D02*
X87204000Y-33391000D01*
X87504000Y-52391000D02*
X89604000Y-52391000D01*
X87204000Y-32191000D02*
X87204000Y-33391000D01*
X87204000Y-32191000D02*
X83004000Y-32191000D01*
X78104000Y-52391000D02*
X76004000Y-52391000D01*
X76004000Y-52391000D02*
X76004000Y-50291000D01*
X76004000Y-32191000D02*
X76004000Y-35291000D01*
D12*
%TO.C,5*%
X46920000Y-74930000D02*
G75*
G03*
X46920000Y-74930000I-1200000J0D01*
G01*
%TO.C,R5*%
X81312000Y-66321000D02*
X87852000Y-66321000D01*
X81312000Y-66651000D02*
X81312000Y-66321000D01*
X81312000Y-68731000D02*
X81312000Y-69061000D01*
X81312000Y-69061000D02*
X87852000Y-69061000D01*
X87852000Y-66321000D02*
X87852000Y-66651000D01*
X87852000Y-69061000D02*
X87852000Y-68731000D01*
%TO.C,1*%
X62795000Y-69850000D02*
G75*
G03*
X62795000Y-69850000I-1200000J0D01*
G01*
%TO.C,7*%
X46920000Y-71120000D02*
G75*
G03*
X46920000Y-71120000I-1200000J0D01*
G01*
%TO.C,3*%
X62795000Y-74930000D02*
G75*
G03*
X62795000Y-74930000I-1200000J0D01*
G01*
%TO.C,U2*%
X51035000Y-54265000D02*
X51035000Y-48255000D01*
X44215000Y-52015000D02*
X44215000Y-48255000D01*
X44215000Y-48255000D02*
X45475000Y-48255000D01*
X51035000Y-48255000D02*
X49775000Y-48255000D01*
%TO.C,6*%
X49460000Y-73025000D02*
G75*
G03*
X49460000Y-73025000I-1200000J0D01*
G01*
%TO.C,D1*%
X65915000Y-71615000D02*
X65915000Y-72265000D01*
X65265000Y-71615000D02*
X65915000Y-71615000D01*
%TD*%
M02*
