%TF.GenerationSoftware,KiCad,Pcbnew,7.0.9*%
%TF.CreationDate,2025-10-08T14:44:17+03:00*%
%TF.ProjectId,signalgenerator-rounded,7369676e-616c-4676-956e-657261746f72,rev?*%
%TF.SameCoordinates,Original*%
%TF.FileFunction,Drillmap*%
%TF.FilePolarity,Positive*%
%FSLAX45Y45*%
G04 Gerber Fmt 4.5, Leading zero omitted, Abs format (unit mm)*
G04 Created by KiCad (PCBNEW 7.0.9) date 2025-10-08 14:44:17*
%MOMM*%
%LPD*%
G01*
G04 APERTURE LIST*
%ADD10C,0.100000*%
%ADD11C,0.200000*%
%ADD12C,0.160000*%
G04 APERTURE END LIST*
D10*
X2286000Y-7874000D02*
X2540000Y-7874000D01*
X2286000Y-2286000D02*
X2540000Y-2286000D01*
X2286000Y-2286000D02*
G75*
G03*
X2032000Y-2540000I0J-254000D01*
G01*
X2032000Y-7620000D02*
G75*
G03*
X2286000Y-7874000I254000J0D01*
G01*
X10160000Y-7620000D02*
X10160000Y-2540000D01*
X2032000Y-2540000D02*
X2032000Y-7620000D01*
X9906000Y-2286000D02*
X2540000Y-2286000D01*
X10160000Y-2540000D02*
G75*
G03*
X9906000Y-2286000I-254000J0D01*
G01*
X2540000Y-7874000D02*
X9906000Y-7874000D01*
X9906000Y-7874000D02*
G75*
G03*
X10160000Y-7620000I0J254000D01*
G01*
D11*
D10*
X3282000Y-4298000D02*
X3322000Y-4338000D01*
X3322000Y-4298000D02*
X3282000Y-4338000D01*
X3282000Y-5187000D02*
X3322000Y-5227000D01*
X3322000Y-5187000D02*
X3282000Y-5227000D01*
X3409000Y-5441000D02*
X3449000Y-5481000D01*
X3449000Y-5441000D02*
X3409000Y-5481000D01*
X3536000Y-3790000D02*
X3576000Y-3830000D01*
X3576000Y-3790000D02*
X3536000Y-3830000D01*
X3536000Y-3790000D02*
X3576000Y-3830000D01*
X3576000Y-3790000D02*
X3536000Y-3830000D01*
X7917500Y-2901000D02*
X7957500Y-2941000D01*
X7957500Y-2901000D02*
X7917500Y-2941000D01*
X7917500Y-4679000D02*
X7957500Y-4719000D01*
X7957500Y-4679000D02*
X7917500Y-4719000D01*
X8425500Y-3028000D02*
X8465500Y-3068000D01*
X8465500Y-3028000D02*
X8425500Y-3068000D01*
X3342000Y-5969000D02*
G75*
G03*
X3342000Y-5969000I-40000J0D01*
G01*
X3342000Y-6731000D02*
G75*
G03*
X3342000Y-6731000I-40000J0D01*
G01*
X3723000Y-5969000D02*
G75*
G03*
X3723000Y-5969000I-40000J0D01*
G01*
X3723000Y-6731000D02*
G75*
G03*
X3723000Y-6731000I-40000J0D01*
G01*
X3850000Y-3610000D02*
G75*
G03*
X3850000Y-3610000I-40000J0D01*
G01*
X3850000Y-3810000D02*
G75*
G03*
X3850000Y-3810000I-40000J0D01*
G01*
X3850000Y-4010000D02*
G75*
G03*
X3850000Y-4010000I-40000J0D01*
G01*
X3850000Y-4210000D02*
G75*
G03*
X3850000Y-4210000I-40000J0D01*
G01*
X3850000Y-4410000D02*
G75*
G03*
X3850000Y-4410000I-40000J0D01*
G01*
X3850000Y-4610000D02*
G75*
G03*
X3850000Y-4610000I-40000J0D01*
G01*
X3850000Y-4810000D02*
G75*
G03*
X3850000Y-4810000I-40000J0D01*
G01*
X3850000Y-5010000D02*
G75*
G03*
X3850000Y-5010000I-40000J0D01*
G01*
X3850000Y-5210000D02*
G75*
G03*
X3850000Y-5210000I-40000J0D01*
G01*
X3850000Y-5410000D02*
G75*
G03*
X3850000Y-5410000I-40000J0D01*
G01*
X4104000Y-5969000D02*
G75*
G03*
X4104000Y-5969000I-40000J0D01*
G01*
X4104000Y-6731000D02*
G75*
G03*
X4104000Y-6731000I-40000J0D01*
G01*
X6009000Y-3607000D02*
G75*
G03*
X6009000Y-3607000I-40000J0D01*
G01*
X6009000Y-3807000D02*
G75*
G03*
X6009000Y-3807000I-40000J0D01*
G01*
X6009000Y-4007000D02*
G75*
G03*
X6009000Y-4007000I-40000J0D01*
G01*
X6009000Y-4207000D02*
G75*
G03*
X6009000Y-4207000I-40000J0D01*
G01*
X6009000Y-4407000D02*
G75*
G03*
X6009000Y-4407000I-40000J0D01*
G01*
X6009000Y-4607000D02*
G75*
G03*
X6009000Y-4607000I-40000J0D01*
G01*
X6009000Y-4807000D02*
G75*
G03*
X6009000Y-4807000I-40000J0D01*
G01*
X6009000Y-5007000D02*
G75*
G03*
X6009000Y-5007000I-40000J0D01*
G01*
X6009000Y-5207000D02*
G75*
G03*
X6009000Y-5207000I-40000J0D01*
G01*
X6009000Y-5407000D02*
G75*
G03*
X6009000Y-5407000I-40000J0D01*
G01*
X6694800Y-6769100D02*
G75*
G03*
X6694800Y-6769100I-40000J0D01*
G01*
X7456800Y-6769100D02*
G75*
G03*
X7456800Y-6769100I-40000J0D01*
G01*
X8117200Y-6769100D02*
G75*
G03*
X8117200Y-6769100I-40000J0D01*
G01*
X8879200Y-6769100D02*
G75*
G03*
X8879200Y-6769100I-40000J0D01*
G01*
X2667000Y-4395000D02*
X2667000Y-4495000D01*
X2617000Y-4445000D02*
X2717000Y-4445000D01*
X2667000Y-4649000D02*
X2667000Y-4749000D01*
X2617000Y-4699000D02*
X2717000Y-4699000D01*
X2667000Y-4903000D02*
X2667000Y-5003000D01*
X2617000Y-4953000D02*
X2717000Y-4953000D01*
X2667000Y-5157000D02*
X2667000Y-5257000D01*
X2617000Y-5207000D02*
X2717000Y-5207000D01*
X2667000Y-5411000D02*
X2667000Y-5511000D01*
X2617000Y-5461000D02*
X2717000Y-5461000D01*
X2921000Y-4395000D02*
X2921000Y-4495000D01*
X2871000Y-4445000D02*
X2971000Y-4445000D01*
X2921000Y-4649000D02*
X2921000Y-4749000D01*
X2871000Y-4699000D02*
X2971000Y-4699000D01*
X2921000Y-4903000D02*
X2921000Y-5003000D01*
X2871000Y-4953000D02*
X2971000Y-4953000D01*
X2921000Y-5157000D02*
X2921000Y-5257000D01*
X2871000Y-5207000D02*
X2971000Y-5207000D01*
X2921000Y-5411000D02*
X2921000Y-5511000D01*
X2871000Y-5461000D02*
X2971000Y-5461000D01*
X3937000Y-2490000D02*
X3937000Y-2590000D01*
X3887000Y-2540000D02*
X3987000Y-2540000D01*
X4191000Y-2490000D02*
X4191000Y-2590000D01*
X4141000Y-2540000D02*
X4241000Y-2540000D01*
X4445000Y-2490000D02*
X4445000Y-2590000D01*
X4395000Y-2540000D02*
X4495000Y-2540000D01*
X4445000Y-3125000D02*
X4445000Y-3225000D01*
X4395000Y-3175000D02*
X4495000Y-3175000D01*
X4699000Y-2490000D02*
X4699000Y-2590000D01*
X4649000Y-2540000D02*
X4749000Y-2540000D01*
X4699000Y-3125000D02*
X4699000Y-3225000D01*
X4649000Y-3175000D02*
X4749000Y-3175000D01*
X4953000Y-2490000D02*
X4953000Y-2590000D01*
X4903000Y-2540000D02*
X5003000Y-2540000D01*
X4953000Y-3125000D02*
X4953000Y-3225000D01*
X4903000Y-3175000D02*
X5003000Y-3175000D01*
X5207000Y-2490000D02*
X5207000Y-2590000D01*
X5157000Y-2540000D02*
X5257000Y-2540000D01*
X5207000Y-3125000D02*
X5207000Y-3225000D01*
X5157000Y-3175000D02*
X5257000Y-3175000D01*
X5461000Y-2490000D02*
X5461000Y-2590000D01*
X5411000Y-2540000D02*
X5511000Y-2540000D01*
X6712150Y-3252000D02*
X6712150Y-3352000D01*
X6662150Y-3302000D02*
X6762150Y-3302000D01*
X6712150Y-3506000D02*
X6712150Y-3606000D01*
X6662150Y-3556000D02*
X6762150Y-3556000D01*
X6712150Y-3760000D02*
X6712150Y-3860000D01*
X6662150Y-3810000D02*
X6762150Y-3810000D01*
X6712150Y-4014000D02*
X6712150Y-4114000D01*
X6662150Y-4064000D02*
X6762150Y-4064000D01*
X6712150Y-4268000D02*
X6712150Y-4368000D01*
X6662150Y-4318000D02*
X6762150Y-4318000D01*
X6712150Y-4522000D02*
X6712150Y-4622000D01*
X6662150Y-4572000D02*
X6762150Y-4572000D01*
X6712150Y-4776000D02*
X6712150Y-4876000D01*
X6662150Y-4826000D02*
X6762150Y-4826000D01*
X6712150Y-5030000D02*
X6712150Y-5130000D01*
X6662150Y-5080000D02*
X6762150Y-5080000D01*
X6712150Y-5284000D02*
X6712150Y-5384000D01*
X6662150Y-5334000D02*
X6762150Y-5334000D01*
X6712150Y-5538000D02*
X6712150Y-5638000D01*
X6662150Y-5588000D02*
X6762150Y-5588000D01*
X6712150Y-5792000D02*
X6712150Y-5892000D01*
X6662150Y-5842000D02*
X6762150Y-5842000D01*
X6712150Y-6046000D02*
X6712150Y-6146000D01*
X6662150Y-6096000D02*
X6762150Y-6096000D01*
X6858000Y-6300000D02*
X6858000Y-6400000D01*
X6808000Y-6350000D02*
X6908000Y-6350000D01*
X7112000Y-6300000D02*
X7112000Y-6400000D01*
X7062000Y-6350000D02*
X7162000Y-6350000D01*
X7366000Y-6300000D02*
X7366000Y-6400000D01*
X7316000Y-6350000D02*
X7416000Y-6350000D01*
X7620000Y-6300000D02*
X7620000Y-6400000D01*
X7570000Y-6350000D02*
X7670000Y-6350000D01*
X7874000Y-6300000D02*
X7874000Y-6400000D01*
X7824000Y-6350000D02*
X7924000Y-6350000D01*
X8128000Y-6300000D02*
X8128000Y-6400000D01*
X8078000Y-6350000D02*
X8178000Y-6350000D01*
X8382000Y-6300000D02*
X8382000Y-6400000D01*
X8332000Y-6350000D02*
X8432000Y-6350000D01*
X8636000Y-6300000D02*
X8636000Y-6400000D01*
X8586000Y-6350000D02*
X8686000Y-6350000D01*
X8890000Y-6300000D02*
X8890000Y-6400000D01*
X8840000Y-6350000D02*
X8940000Y-6350000D01*
X9144000Y-6300000D02*
X9144000Y-6400000D01*
X9094000Y-6350000D02*
X9194000Y-6350000D01*
X9398000Y-6300000D02*
X9398000Y-6400000D01*
X9348000Y-6350000D02*
X9448000Y-6350000D01*
X9652000Y-6300000D02*
X9652000Y-6400000D01*
X9602000Y-6350000D02*
X9702000Y-6350000D01*
X9720050Y-3252000D02*
X9720050Y-3352000D01*
X9670050Y-3302000D02*
X9770050Y-3302000D01*
X9720050Y-3506000D02*
X9720050Y-3606000D01*
X9670050Y-3556000D02*
X9770050Y-3556000D01*
X9720050Y-3760000D02*
X9720050Y-3860000D01*
X9670050Y-3810000D02*
X9770050Y-3810000D01*
X9720050Y-4014000D02*
X9720050Y-4114000D01*
X9670050Y-4064000D02*
X9770050Y-4064000D01*
X9720050Y-4268000D02*
X9720050Y-4368000D01*
X9670050Y-4318000D02*
X9770050Y-4318000D01*
X9720050Y-4522000D02*
X9720050Y-4622000D01*
X9670050Y-4572000D02*
X9770050Y-4572000D01*
X9720050Y-4776000D02*
X9720050Y-4876000D01*
X9670050Y-4826000D02*
X9770050Y-4826000D01*
X9720050Y-5030000D02*
X9720050Y-5130000D01*
X9670050Y-5080000D02*
X9770050Y-5080000D01*
X9720050Y-5284000D02*
X9720050Y-5384000D01*
X9670050Y-5334000D02*
X9770050Y-5334000D01*
X9720050Y-5538000D02*
X9720050Y-5638000D01*
X9670050Y-5588000D02*
X9770050Y-5588000D01*
X9720050Y-5792000D02*
X9720050Y-5892000D01*
X9670050Y-5842000D02*
X9770050Y-5842000D01*
X9720050Y-6046000D02*
X9720050Y-6146000D01*
X9670050Y-6096000D02*
X9770050Y-6096000D01*
D12*
X2929309Y-3381429D02*
X2929309Y-3268291D01*
X2816171Y-3268291D01*
X2816171Y-3381429D01*
X2929309Y-3381429D01*
X2929309Y-3731429D02*
X2929309Y-3618291D01*
X2816171Y-3618291D01*
X2816171Y-3731429D01*
X2929309Y-3731429D01*
D11*
X2287777Y-8190484D02*
X2287777Y-7990484D01*
X2287777Y-7990484D02*
X2335396Y-7990484D01*
X2335396Y-7990484D02*
X2363967Y-8000008D01*
X2363967Y-8000008D02*
X2383015Y-8019055D01*
X2383015Y-8019055D02*
X2392539Y-8038103D01*
X2392539Y-8038103D02*
X2402063Y-8076198D01*
X2402063Y-8076198D02*
X2402063Y-8104769D01*
X2402063Y-8104769D02*
X2392539Y-8142865D01*
X2392539Y-8142865D02*
X2383015Y-8161912D01*
X2383015Y-8161912D02*
X2363967Y-8180960D01*
X2363967Y-8180960D02*
X2335396Y-8190484D01*
X2335396Y-8190484D02*
X2287777Y-8190484D01*
X2487777Y-8190484D02*
X2487777Y-8057150D01*
X2487777Y-8095246D02*
X2497301Y-8076198D01*
X2497301Y-8076198D02*
X2506824Y-8066674D01*
X2506824Y-8066674D02*
X2525872Y-8057150D01*
X2525872Y-8057150D02*
X2544920Y-8057150D01*
X2611586Y-8190484D02*
X2611586Y-8057150D01*
X2611586Y-7990484D02*
X2602063Y-8000008D01*
X2602063Y-8000008D02*
X2611586Y-8009531D01*
X2611586Y-8009531D02*
X2621110Y-8000008D01*
X2621110Y-8000008D02*
X2611586Y-7990484D01*
X2611586Y-7990484D02*
X2611586Y-8009531D01*
X2735396Y-8190484D02*
X2716348Y-8180960D01*
X2716348Y-8180960D02*
X2706824Y-8161912D01*
X2706824Y-8161912D02*
X2706824Y-7990484D01*
X2840158Y-8190484D02*
X2821110Y-8180960D01*
X2821110Y-8180960D02*
X2811586Y-8161912D01*
X2811586Y-8161912D02*
X2811586Y-7990484D01*
X3068729Y-8190484D02*
X3068729Y-7990484D01*
X3068729Y-7990484D02*
X3135396Y-8133341D01*
X3135396Y-8133341D02*
X3202062Y-7990484D01*
X3202062Y-7990484D02*
X3202062Y-8190484D01*
X3383015Y-8190484D02*
X3383015Y-8085722D01*
X3383015Y-8085722D02*
X3373491Y-8066674D01*
X3373491Y-8066674D02*
X3354443Y-8057150D01*
X3354443Y-8057150D02*
X3316348Y-8057150D01*
X3316348Y-8057150D02*
X3297301Y-8066674D01*
X3383015Y-8180960D02*
X3363967Y-8190484D01*
X3363967Y-8190484D02*
X3316348Y-8190484D01*
X3316348Y-8190484D02*
X3297301Y-8180960D01*
X3297301Y-8180960D02*
X3287777Y-8161912D01*
X3287777Y-8161912D02*
X3287777Y-8142865D01*
X3287777Y-8142865D02*
X3297301Y-8123817D01*
X3297301Y-8123817D02*
X3316348Y-8114293D01*
X3316348Y-8114293D02*
X3363967Y-8114293D01*
X3363967Y-8114293D02*
X3383015Y-8104769D01*
X3478253Y-8057150D02*
X3478253Y-8257150D01*
X3478253Y-8066674D02*
X3497301Y-8057150D01*
X3497301Y-8057150D02*
X3535396Y-8057150D01*
X3535396Y-8057150D02*
X3554443Y-8066674D01*
X3554443Y-8066674D02*
X3563967Y-8076198D01*
X3563967Y-8076198D02*
X3573491Y-8095246D01*
X3573491Y-8095246D02*
X3573491Y-8152388D01*
X3573491Y-8152388D02*
X3563967Y-8171436D01*
X3563967Y-8171436D02*
X3554443Y-8180960D01*
X3554443Y-8180960D02*
X3535396Y-8190484D01*
X3535396Y-8190484D02*
X3497301Y-8190484D01*
X3497301Y-8190484D02*
X3478253Y-8180960D01*
X3659205Y-8171436D02*
X3668729Y-8180960D01*
X3668729Y-8180960D02*
X3659205Y-8190484D01*
X3659205Y-8190484D02*
X3649682Y-8180960D01*
X3649682Y-8180960D02*
X3659205Y-8171436D01*
X3659205Y-8171436D02*
X3659205Y-8190484D01*
X3659205Y-8066674D02*
X3668729Y-8076198D01*
X3668729Y-8076198D02*
X3659205Y-8085722D01*
X3659205Y-8085722D02*
X3649682Y-8076198D01*
X3649682Y-8076198D02*
X3659205Y-8066674D01*
X3659205Y-8066674D02*
X3659205Y-8085722D01*
D10*
X1987000Y-8499000D02*
X2027000Y-8539000D01*
X2027000Y-8499000D02*
X1987000Y-8539000D01*
D11*
X2325872Y-8410484D02*
X2344920Y-8410484D01*
X2344920Y-8410484D02*
X2363967Y-8420008D01*
X2363967Y-8420008D02*
X2373491Y-8429531D01*
X2373491Y-8429531D02*
X2383015Y-8448579D01*
X2383015Y-8448579D02*
X2392539Y-8486674D01*
X2392539Y-8486674D02*
X2392539Y-8534293D01*
X2392539Y-8534293D02*
X2383015Y-8572389D01*
X2383015Y-8572389D02*
X2373491Y-8591436D01*
X2373491Y-8591436D02*
X2363967Y-8600960D01*
X2363967Y-8600960D02*
X2344920Y-8610484D01*
X2344920Y-8610484D02*
X2325872Y-8610484D01*
X2325872Y-8610484D02*
X2306824Y-8600960D01*
X2306824Y-8600960D02*
X2297301Y-8591436D01*
X2297301Y-8591436D02*
X2287777Y-8572389D01*
X2287777Y-8572389D02*
X2278253Y-8534293D01*
X2278253Y-8534293D02*
X2278253Y-8486674D01*
X2278253Y-8486674D02*
X2287777Y-8448579D01*
X2287777Y-8448579D02*
X2297301Y-8429531D01*
X2297301Y-8429531D02*
X2306824Y-8420008D01*
X2306824Y-8420008D02*
X2325872Y-8410484D01*
X2478253Y-8591436D02*
X2487777Y-8600960D01*
X2487777Y-8600960D02*
X2478253Y-8610484D01*
X2478253Y-8610484D02*
X2468729Y-8600960D01*
X2468729Y-8600960D02*
X2478253Y-8591436D01*
X2478253Y-8591436D02*
X2478253Y-8610484D01*
X2659205Y-8477150D02*
X2659205Y-8610484D01*
X2611586Y-8400960D02*
X2563967Y-8543817D01*
X2563967Y-8543817D02*
X2687777Y-8543817D01*
X2802062Y-8410484D02*
X2821110Y-8410484D01*
X2821110Y-8410484D02*
X2840158Y-8420008D01*
X2840158Y-8420008D02*
X2849682Y-8429531D01*
X2849682Y-8429531D02*
X2859205Y-8448579D01*
X2859205Y-8448579D02*
X2868729Y-8486674D01*
X2868729Y-8486674D02*
X2868729Y-8534293D01*
X2868729Y-8534293D02*
X2859205Y-8572389D01*
X2859205Y-8572389D02*
X2849682Y-8591436D01*
X2849682Y-8591436D02*
X2840158Y-8600960D01*
X2840158Y-8600960D02*
X2821110Y-8610484D01*
X2821110Y-8610484D02*
X2802062Y-8610484D01*
X2802062Y-8610484D02*
X2783015Y-8600960D01*
X2783015Y-8600960D02*
X2773491Y-8591436D01*
X2773491Y-8591436D02*
X2763967Y-8572389D01*
X2763967Y-8572389D02*
X2754444Y-8534293D01*
X2754444Y-8534293D02*
X2754444Y-8486674D01*
X2754444Y-8486674D02*
X2763967Y-8448579D01*
X2763967Y-8448579D02*
X2773491Y-8429531D01*
X2773491Y-8429531D02*
X2783015Y-8420008D01*
X2783015Y-8420008D02*
X2802062Y-8410484D01*
X2992539Y-8410484D02*
X3011586Y-8410484D01*
X3011586Y-8410484D02*
X3030634Y-8420008D01*
X3030634Y-8420008D02*
X3040158Y-8429531D01*
X3040158Y-8429531D02*
X3049682Y-8448579D01*
X3049682Y-8448579D02*
X3059205Y-8486674D01*
X3059205Y-8486674D02*
X3059205Y-8534293D01*
X3059205Y-8534293D02*
X3049682Y-8572389D01*
X3049682Y-8572389D02*
X3040158Y-8591436D01*
X3040158Y-8591436D02*
X3030634Y-8600960D01*
X3030634Y-8600960D02*
X3011586Y-8610484D01*
X3011586Y-8610484D02*
X2992539Y-8610484D01*
X2992539Y-8610484D02*
X2973491Y-8600960D01*
X2973491Y-8600960D02*
X2963967Y-8591436D01*
X2963967Y-8591436D02*
X2954443Y-8572389D01*
X2954443Y-8572389D02*
X2944920Y-8534293D01*
X2944920Y-8534293D02*
X2944920Y-8486674D01*
X2944920Y-8486674D02*
X2954443Y-8448579D01*
X2954443Y-8448579D02*
X2963967Y-8429531D01*
X2963967Y-8429531D02*
X2973491Y-8420008D01*
X2973491Y-8420008D02*
X2992539Y-8410484D01*
X3144920Y-8610484D02*
X3144920Y-8477150D01*
X3144920Y-8496198D02*
X3154443Y-8486674D01*
X3154443Y-8486674D02*
X3173491Y-8477150D01*
X3173491Y-8477150D02*
X3202063Y-8477150D01*
X3202063Y-8477150D02*
X3221110Y-8486674D01*
X3221110Y-8486674D02*
X3230634Y-8505722D01*
X3230634Y-8505722D02*
X3230634Y-8610484D01*
X3230634Y-8505722D02*
X3240158Y-8486674D01*
X3240158Y-8486674D02*
X3259205Y-8477150D01*
X3259205Y-8477150D02*
X3287777Y-8477150D01*
X3287777Y-8477150D02*
X3306824Y-8486674D01*
X3306824Y-8486674D02*
X3316348Y-8505722D01*
X3316348Y-8505722D02*
X3316348Y-8610484D01*
X3411586Y-8610484D02*
X3411586Y-8477150D01*
X3411586Y-8496198D02*
X3421110Y-8486674D01*
X3421110Y-8486674D02*
X3440158Y-8477150D01*
X3440158Y-8477150D02*
X3468729Y-8477150D01*
X3468729Y-8477150D02*
X3487777Y-8486674D01*
X3487777Y-8486674D02*
X3497301Y-8505722D01*
X3497301Y-8505722D02*
X3497301Y-8610484D01*
X3497301Y-8505722D02*
X3506824Y-8486674D01*
X3506824Y-8486674D02*
X3525872Y-8477150D01*
X3525872Y-8477150D02*
X3554443Y-8477150D01*
X3554443Y-8477150D02*
X3573491Y-8486674D01*
X3573491Y-8486674D02*
X3583015Y-8505722D01*
X3583015Y-8505722D02*
X3583015Y-8610484D01*
X3973491Y-8400960D02*
X3802063Y-8658103D01*
X4230634Y-8410484D02*
X4249682Y-8410484D01*
X4249682Y-8410484D02*
X4268729Y-8420008D01*
X4268729Y-8420008D02*
X4278253Y-8429531D01*
X4278253Y-8429531D02*
X4287777Y-8448579D01*
X4287777Y-8448579D02*
X4297301Y-8486674D01*
X4297301Y-8486674D02*
X4297301Y-8534293D01*
X4297301Y-8534293D02*
X4287777Y-8572389D01*
X4287777Y-8572389D02*
X4278253Y-8591436D01*
X4278253Y-8591436D02*
X4268729Y-8600960D01*
X4268729Y-8600960D02*
X4249682Y-8610484D01*
X4249682Y-8610484D02*
X4230634Y-8610484D01*
X4230634Y-8610484D02*
X4211587Y-8600960D01*
X4211587Y-8600960D02*
X4202063Y-8591436D01*
X4202063Y-8591436D02*
X4192539Y-8572389D01*
X4192539Y-8572389D02*
X4183015Y-8534293D01*
X4183015Y-8534293D02*
X4183015Y-8486674D01*
X4183015Y-8486674D02*
X4192539Y-8448579D01*
X4192539Y-8448579D02*
X4202063Y-8429531D01*
X4202063Y-8429531D02*
X4211587Y-8420008D01*
X4211587Y-8420008D02*
X4230634Y-8410484D01*
X4383015Y-8591436D02*
X4392539Y-8600960D01*
X4392539Y-8600960D02*
X4383015Y-8610484D01*
X4383015Y-8610484D02*
X4373491Y-8600960D01*
X4373491Y-8600960D02*
X4383015Y-8591436D01*
X4383015Y-8591436D02*
X4383015Y-8610484D01*
X4516348Y-8410484D02*
X4535396Y-8410484D01*
X4535396Y-8410484D02*
X4554444Y-8420008D01*
X4554444Y-8420008D02*
X4563968Y-8429531D01*
X4563968Y-8429531D02*
X4573491Y-8448579D01*
X4573491Y-8448579D02*
X4583015Y-8486674D01*
X4583015Y-8486674D02*
X4583015Y-8534293D01*
X4583015Y-8534293D02*
X4573491Y-8572389D01*
X4573491Y-8572389D02*
X4563968Y-8591436D01*
X4563968Y-8591436D02*
X4554444Y-8600960D01*
X4554444Y-8600960D02*
X4535396Y-8610484D01*
X4535396Y-8610484D02*
X4516348Y-8610484D01*
X4516348Y-8610484D02*
X4497301Y-8600960D01*
X4497301Y-8600960D02*
X4487777Y-8591436D01*
X4487777Y-8591436D02*
X4478253Y-8572389D01*
X4478253Y-8572389D02*
X4468729Y-8534293D01*
X4468729Y-8534293D02*
X4468729Y-8486674D01*
X4468729Y-8486674D02*
X4478253Y-8448579D01*
X4478253Y-8448579D02*
X4487777Y-8429531D01*
X4487777Y-8429531D02*
X4497301Y-8420008D01*
X4497301Y-8420008D02*
X4516348Y-8410484D01*
X4773491Y-8610484D02*
X4659206Y-8610484D01*
X4716348Y-8610484D02*
X4716348Y-8410484D01*
X4716348Y-8410484D02*
X4697301Y-8439055D01*
X4697301Y-8439055D02*
X4678253Y-8458103D01*
X4678253Y-8458103D02*
X4659206Y-8467627D01*
X4954444Y-8410484D02*
X4859206Y-8410484D01*
X4859206Y-8410484D02*
X4849682Y-8505722D01*
X4849682Y-8505722D02*
X4859206Y-8496198D01*
X4859206Y-8496198D02*
X4878253Y-8486674D01*
X4878253Y-8486674D02*
X4925872Y-8486674D01*
X4925872Y-8486674D02*
X4944920Y-8496198D01*
X4944920Y-8496198D02*
X4954444Y-8505722D01*
X4954444Y-8505722D02*
X4963968Y-8524770D01*
X4963968Y-8524770D02*
X4963968Y-8572389D01*
X4963968Y-8572389D02*
X4954444Y-8591436D01*
X4954444Y-8591436D02*
X4944920Y-8600960D01*
X4944920Y-8600960D02*
X4925872Y-8610484D01*
X4925872Y-8610484D02*
X4878253Y-8610484D01*
X4878253Y-8610484D02*
X4859206Y-8600960D01*
X4859206Y-8600960D02*
X4849682Y-8591436D01*
X5030634Y-8410484D02*
X5163968Y-8410484D01*
X5163968Y-8410484D02*
X5078253Y-8610484D01*
X5230634Y-8410484D02*
X5230634Y-8448579D01*
X5306825Y-8410484D02*
X5306825Y-8448579D01*
X5602063Y-8686674D02*
X5592539Y-8677150D01*
X5592539Y-8677150D02*
X5573491Y-8648579D01*
X5573491Y-8648579D02*
X5563968Y-8629531D01*
X5563968Y-8629531D02*
X5554444Y-8600960D01*
X5554444Y-8600960D02*
X5544920Y-8553341D01*
X5544920Y-8553341D02*
X5544920Y-8515246D01*
X5544920Y-8515246D02*
X5554444Y-8467627D01*
X5554444Y-8467627D02*
X5563968Y-8439055D01*
X5563968Y-8439055D02*
X5573491Y-8420008D01*
X5573491Y-8420008D02*
X5592539Y-8391436D01*
X5592539Y-8391436D02*
X5602063Y-8381912D01*
X5706825Y-8496198D02*
X5687777Y-8486674D01*
X5687777Y-8486674D02*
X5678253Y-8477150D01*
X5678253Y-8477150D02*
X5668729Y-8458103D01*
X5668729Y-8458103D02*
X5668729Y-8448579D01*
X5668729Y-8448579D02*
X5678253Y-8429531D01*
X5678253Y-8429531D02*
X5687777Y-8420008D01*
X5687777Y-8420008D02*
X5706825Y-8410484D01*
X5706825Y-8410484D02*
X5744920Y-8410484D01*
X5744920Y-8410484D02*
X5763968Y-8420008D01*
X5763968Y-8420008D02*
X5773491Y-8429531D01*
X5773491Y-8429531D02*
X5783015Y-8448579D01*
X5783015Y-8448579D02*
X5783015Y-8458103D01*
X5783015Y-8458103D02*
X5773491Y-8477150D01*
X5773491Y-8477150D02*
X5763968Y-8486674D01*
X5763968Y-8486674D02*
X5744920Y-8496198D01*
X5744920Y-8496198D02*
X5706825Y-8496198D01*
X5706825Y-8496198D02*
X5687777Y-8505722D01*
X5687777Y-8505722D02*
X5678253Y-8515246D01*
X5678253Y-8515246D02*
X5668729Y-8534293D01*
X5668729Y-8534293D02*
X5668729Y-8572389D01*
X5668729Y-8572389D02*
X5678253Y-8591436D01*
X5678253Y-8591436D02*
X5687777Y-8600960D01*
X5687777Y-8600960D02*
X5706825Y-8610484D01*
X5706825Y-8610484D02*
X5744920Y-8610484D01*
X5744920Y-8610484D02*
X5763968Y-8600960D01*
X5763968Y-8600960D02*
X5773491Y-8591436D01*
X5773491Y-8591436D02*
X5783015Y-8572389D01*
X5783015Y-8572389D02*
X5783015Y-8534293D01*
X5783015Y-8534293D02*
X5773491Y-8515246D01*
X5773491Y-8515246D02*
X5763968Y-8505722D01*
X5763968Y-8505722D02*
X5744920Y-8496198D01*
X6021110Y-8610484D02*
X6021110Y-8410484D01*
X6106825Y-8610484D02*
X6106825Y-8505722D01*
X6106825Y-8505722D02*
X6097301Y-8486674D01*
X6097301Y-8486674D02*
X6078253Y-8477150D01*
X6078253Y-8477150D02*
X6049682Y-8477150D01*
X6049682Y-8477150D02*
X6030634Y-8486674D01*
X6030634Y-8486674D02*
X6021110Y-8496198D01*
X6230634Y-8610484D02*
X6211587Y-8600960D01*
X6211587Y-8600960D02*
X6202063Y-8591436D01*
X6202063Y-8591436D02*
X6192539Y-8572389D01*
X6192539Y-8572389D02*
X6192539Y-8515246D01*
X6192539Y-8515246D02*
X6202063Y-8496198D01*
X6202063Y-8496198D02*
X6211587Y-8486674D01*
X6211587Y-8486674D02*
X6230634Y-8477150D01*
X6230634Y-8477150D02*
X6259206Y-8477150D01*
X6259206Y-8477150D02*
X6278253Y-8486674D01*
X6278253Y-8486674D02*
X6287777Y-8496198D01*
X6287777Y-8496198D02*
X6297301Y-8515246D01*
X6297301Y-8515246D02*
X6297301Y-8572389D01*
X6297301Y-8572389D02*
X6287777Y-8591436D01*
X6287777Y-8591436D02*
X6278253Y-8600960D01*
X6278253Y-8600960D02*
X6259206Y-8610484D01*
X6259206Y-8610484D02*
X6230634Y-8610484D01*
X6411587Y-8610484D02*
X6392539Y-8600960D01*
X6392539Y-8600960D02*
X6383015Y-8581912D01*
X6383015Y-8581912D02*
X6383015Y-8410484D01*
X6563968Y-8600960D02*
X6544920Y-8610484D01*
X6544920Y-8610484D02*
X6506825Y-8610484D01*
X6506825Y-8610484D02*
X6487777Y-8600960D01*
X6487777Y-8600960D02*
X6478253Y-8581912D01*
X6478253Y-8581912D02*
X6478253Y-8505722D01*
X6478253Y-8505722D02*
X6487777Y-8486674D01*
X6487777Y-8486674D02*
X6506825Y-8477150D01*
X6506825Y-8477150D02*
X6544920Y-8477150D01*
X6544920Y-8477150D02*
X6563968Y-8486674D01*
X6563968Y-8486674D02*
X6573491Y-8505722D01*
X6573491Y-8505722D02*
X6573491Y-8524770D01*
X6573491Y-8524770D02*
X6478253Y-8543817D01*
X6649682Y-8600960D02*
X6668730Y-8610484D01*
X6668730Y-8610484D02*
X6706825Y-8610484D01*
X6706825Y-8610484D02*
X6725872Y-8600960D01*
X6725872Y-8600960D02*
X6735396Y-8581912D01*
X6735396Y-8581912D02*
X6735396Y-8572389D01*
X6735396Y-8572389D02*
X6725872Y-8553341D01*
X6725872Y-8553341D02*
X6706825Y-8543817D01*
X6706825Y-8543817D02*
X6678253Y-8543817D01*
X6678253Y-8543817D02*
X6659206Y-8534293D01*
X6659206Y-8534293D02*
X6649682Y-8515246D01*
X6649682Y-8515246D02*
X6649682Y-8505722D01*
X6649682Y-8505722D02*
X6659206Y-8486674D01*
X6659206Y-8486674D02*
X6678253Y-8477150D01*
X6678253Y-8477150D02*
X6706825Y-8477150D01*
X6706825Y-8477150D02*
X6725872Y-8486674D01*
X6802063Y-8686674D02*
X6811587Y-8677150D01*
X6811587Y-8677150D02*
X6830634Y-8648579D01*
X6830634Y-8648579D02*
X6840158Y-8629531D01*
X6840158Y-8629531D02*
X6849682Y-8600960D01*
X6849682Y-8600960D02*
X6859206Y-8553341D01*
X6859206Y-8553341D02*
X6859206Y-8515246D01*
X6859206Y-8515246D02*
X6849682Y-8467627D01*
X6849682Y-8467627D02*
X6840158Y-8439055D01*
X6840158Y-8439055D02*
X6830634Y-8420008D01*
X6830634Y-8420008D02*
X6811587Y-8391436D01*
X6811587Y-8391436D02*
X6802063Y-8381912D01*
D10*
X2027000Y-8783000D02*
G75*
G03*
X2027000Y-8783000I-40000J0D01*
G01*
D11*
X2325872Y-8674484D02*
X2344920Y-8674484D01*
X2344920Y-8674484D02*
X2363967Y-8684008D01*
X2363967Y-8684008D02*
X2373491Y-8693531D01*
X2373491Y-8693531D02*
X2383015Y-8712579D01*
X2383015Y-8712579D02*
X2392539Y-8750674D01*
X2392539Y-8750674D02*
X2392539Y-8798293D01*
X2392539Y-8798293D02*
X2383015Y-8836389D01*
X2383015Y-8836389D02*
X2373491Y-8855436D01*
X2373491Y-8855436D02*
X2363967Y-8864960D01*
X2363967Y-8864960D02*
X2344920Y-8874484D01*
X2344920Y-8874484D02*
X2325872Y-8874484D01*
X2325872Y-8874484D02*
X2306824Y-8864960D01*
X2306824Y-8864960D02*
X2297301Y-8855436D01*
X2297301Y-8855436D02*
X2287777Y-8836389D01*
X2287777Y-8836389D02*
X2278253Y-8798293D01*
X2278253Y-8798293D02*
X2278253Y-8750674D01*
X2278253Y-8750674D02*
X2287777Y-8712579D01*
X2287777Y-8712579D02*
X2297301Y-8693531D01*
X2297301Y-8693531D02*
X2306824Y-8684008D01*
X2306824Y-8684008D02*
X2325872Y-8674484D01*
X2478253Y-8855436D02*
X2487777Y-8864960D01*
X2487777Y-8864960D02*
X2478253Y-8874484D01*
X2478253Y-8874484D02*
X2468729Y-8864960D01*
X2468729Y-8864960D02*
X2478253Y-8855436D01*
X2478253Y-8855436D02*
X2478253Y-8874484D01*
X2602063Y-8760198D02*
X2583015Y-8750674D01*
X2583015Y-8750674D02*
X2573491Y-8741150D01*
X2573491Y-8741150D02*
X2563967Y-8722103D01*
X2563967Y-8722103D02*
X2563967Y-8712579D01*
X2563967Y-8712579D02*
X2573491Y-8693531D01*
X2573491Y-8693531D02*
X2583015Y-8684008D01*
X2583015Y-8684008D02*
X2602063Y-8674484D01*
X2602063Y-8674484D02*
X2640158Y-8674484D01*
X2640158Y-8674484D02*
X2659205Y-8684008D01*
X2659205Y-8684008D02*
X2668729Y-8693531D01*
X2668729Y-8693531D02*
X2678253Y-8712579D01*
X2678253Y-8712579D02*
X2678253Y-8722103D01*
X2678253Y-8722103D02*
X2668729Y-8741150D01*
X2668729Y-8741150D02*
X2659205Y-8750674D01*
X2659205Y-8750674D02*
X2640158Y-8760198D01*
X2640158Y-8760198D02*
X2602063Y-8760198D01*
X2602063Y-8760198D02*
X2583015Y-8769722D01*
X2583015Y-8769722D02*
X2573491Y-8779246D01*
X2573491Y-8779246D02*
X2563967Y-8798293D01*
X2563967Y-8798293D02*
X2563967Y-8836389D01*
X2563967Y-8836389D02*
X2573491Y-8855436D01*
X2573491Y-8855436D02*
X2583015Y-8864960D01*
X2583015Y-8864960D02*
X2602063Y-8874484D01*
X2602063Y-8874484D02*
X2640158Y-8874484D01*
X2640158Y-8874484D02*
X2659205Y-8864960D01*
X2659205Y-8864960D02*
X2668729Y-8855436D01*
X2668729Y-8855436D02*
X2678253Y-8836389D01*
X2678253Y-8836389D02*
X2678253Y-8798293D01*
X2678253Y-8798293D02*
X2668729Y-8779246D01*
X2668729Y-8779246D02*
X2659205Y-8769722D01*
X2659205Y-8769722D02*
X2640158Y-8760198D01*
X2802062Y-8674484D02*
X2821110Y-8674484D01*
X2821110Y-8674484D02*
X2840158Y-8684008D01*
X2840158Y-8684008D02*
X2849682Y-8693531D01*
X2849682Y-8693531D02*
X2859205Y-8712579D01*
X2859205Y-8712579D02*
X2868729Y-8750674D01*
X2868729Y-8750674D02*
X2868729Y-8798293D01*
X2868729Y-8798293D02*
X2859205Y-8836389D01*
X2859205Y-8836389D02*
X2849682Y-8855436D01*
X2849682Y-8855436D02*
X2840158Y-8864960D01*
X2840158Y-8864960D02*
X2821110Y-8874484D01*
X2821110Y-8874484D02*
X2802062Y-8874484D01*
X2802062Y-8874484D02*
X2783015Y-8864960D01*
X2783015Y-8864960D02*
X2773491Y-8855436D01*
X2773491Y-8855436D02*
X2763967Y-8836389D01*
X2763967Y-8836389D02*
X2754444Y-8798293D01*
X2754444Y-8798293D02*
X2754444Y-8750674D01*
X2754444Y-8750674D02*
X2763967Y-8712579D01*
X2763967Y-8712579D02*
X2773491Y-8693531D01*
X2773491Y-8693531D02*
X2783015Y-8684008D01*
X2783015Y-8684008D02*
X2802062Y-8674484D01*
X2992539Y-8674484D02*
X3011586Y-8674484D01*
X3011586Y-8674484D02*
X3030634Y-8684008D01*
X3030634Y-8684008D02*
X3040158Y-8693531D01*
X3040158Y-8693531D02*
X3049682Y-8712579D01*
X3049682Y-8712579D02*
X3059205Y-8750674D01*
X3059205Y-8750674D02*
X3059205Y-8798293D01*
X3059205Y-8798293D02*
X3049682Y-8836389D01*
X3049682Y-8836389D02*
X3040158Y-8855436D01*
X3040158Y-8855436D02*
X3030634Y-8864960D01*
X3030634Y-8864960D02*
X3011586Y-8874484D01*
X3011586Y-8874484D02*
X2992539Y-8874484D01*
X2992539Y-8874484D02*
X2973491Y-8864960D01*
X2973491Y-8864960D02*
X2963967Y-8855436D01*
X2963967Y-8855436D02*
X2954443Y-8836389D01*
X2954443Y-8836389D02*
X2944920Y-8798293D01*
X2944920Y-8798293D02*
X2944920Y-8750674D01*
X2944920Y-8750674D02*
X2954443Y-8712579D01*
X2954443Y-8712579D02*
X2963967Y-8693531D01*
X2963967Y-8693531D02*
X2973491Y-8684008D01*
X2973491Y-8684008D02*
X2992539Y-8674484D01*
X3144920Y-8874484D02*
X3144920Y-8741150D01*
X3144920Y-8760198D02*
X3154443Y-8750674D01*
X3154443Y-8750674D02*
X3173491Y-8741150D01*
X3173491Y-8741150D02*
X3202063Y-8741150D01*
X3202063Y-8741150D02*
X3221110Y-8750674D01*
X3221110Y-8750674D02*
X3230634Y-8769722D01*
X3230634Y-8769722D02*
X3230634Y-8874484D01*
X3230634Y-8769722D02*
X3240158Y-8750674D01*
X3240158Y-8750674D02*
X3259205Y-8741150D01*
X3259205Y-8741150D02*
X3287777Y-8741150D01*
X3287777Y-8741150D02*
X3306824Y-8750674D01*
X3306824Y-8750674D02*
X3316348Y-8769722D01*
X3316348Y-8769722D02*
X3316348Y-8874484D01*
X3411586Y-8874484D02*
X3411586Y-8741150D01*
X3411586Y-8760198D02*
X3421110Y-8750674D01*
X3421110Y-8750674D02*
X3440158Y-8741150D01*
X3440158Y-8741150D02*
X3468729Y-8741150D01*
X3468729Y-8741150D02*
X3487777Y-8750674D01*
X3487777Y-8750674D02*
X3497301Y-8769722D01*
X3497301Y-8769722D02*
X3497301Y-8874484D01*
X3497301Y-8769722D02*
X3506824Y-8750674D01*
X3506824Y-8750674D02*
X3525872Y-8741150D01*
X3525872Y-8741150D02*
X3554443Y-8741150D01*
X3554443Y-8741150D02*
X3573491Y-8750674D01*
X3573491Y-8750674D02*
X3583015Y-8769722D01*
X3583015Y-8769722D02*
X3583015Y-8874484D01*
X3973491Y-8664960D02*
X3802063Y-8922103D01*
X4230634Y-8674484D02*
X4249682Y-8674484D01*
X4249682Y-8674484D02*
X4268729Y-8684008D01*
X4268729Y-8684008D02*
X4278253Y-8693531D01*
X4278253Y-8693531D02*
X4287777Y-8712579D01*
X4287777Y-8712579D02*
X4297301Y-8750674D01*
X4297301Y-8750674D02*
X4297301Y-8798293D01*
X4297301Y-8798293D02*
X4287777Y-8836389D01*
X4287777Y-8836389D02*
X4278253Y-8855436D01*
X4278253Y-8855436D02*
X4268729Y-8864960D01*
X4268729Y-8864960D02*
X4249682Y-8874484D01*
X4249682Y-8874484D02*
X4230634Y-8874484D01*
X4230634Y-8874484D02*
X4211587Y-8864960D01*
X4211587Y-8864960D02*
X4202063Y-8855436D01*
X4202063Y-8855436D02*
X4192539Y-8836389D01*
X4192539Y-8836389D02*
X4183015Y-8798293D01*
X4183015Y-8798293D02*
X4183015Y-8750674D01*
X4183015Y-8750674D02*
X4192539Y-8712579D01*
X4192539Y-8712579D02*
X4202063Y-8693531D01*
X4202063Y-8693531D02*
X4211587Y-8684008D01*
X4211587Y-8684008D02*
X4230634Y-8674484D01*
X4383015Y-8855436D02*
X4392539Y-8864960D01*
X4392539Y-8864960D02*
X4383015Y-8874484D01*
X4383015Y-8874484D02*
X4373491Y-8864960D01*
X4373491Y-8864960D02*
X4383015Y-8855436D01*
X4383015Y-8855436D02*
X4383015Y-8874484D01*
X4516348Y-8674484D02*
X4535396Y-8674484D01*
X4535396Y-8674484D02*
X4554444Y-8684008D01*
X4554444Y-8684008D02*
X4563968Y-8693531D01*
X4563968Y-8693531D02*
X4573491Y-8712579D01*
X4573491Y-8712579D02*
X4583015Y-8750674D01*
X4583015Y-8750674D02*
X4583015Y-8798293D01*
X4583015Y-8798293D02*
X4573491Y-8836389D01*
X4573491Y-8836389D02*
X4563968Y-8855436D01*
X4563968Y-8855436D02*
X4554444Y-8864960D01*
X4554444Y-8864960D02*
X4535396Y-8874484D01*
X4535396Y-8874484D02*
X4516348Y-8874484D01*
X4516348Y-8874484D02*
X4497301Y-8864960D01*
X4497301Y-8864960D02*
X4487777Y-8855436D01*
X4487777Y-8855436D02*
X4478253Y-8836389D01*
X4478253Y-8836389D02*
X4468729Y-8798293D01*
X4468729Y-8798293D02*
X4468729Y-8750674D01*
X4468729Y-8750674D02*
X4478253Y-8712579D01*
X4478253Y-8712579D02*
X4487777Y-8693531D01*
X4487777Y-8693531D02*
X4497301Y-8684008D01*
X4497301Y-8684008D02*
X4516348Y-8674484D01*
X4649682Y-8674484D02*
X4773491Y-8674484D01*
X4773491Y-8674484D02*
X4706825Y-8750674D01*
X4706825Y-8750674D02*
X4735396Y-8750674D01*
X4735396Y-8750674D02*
X4754444Y-8760198D01*
X4754444Y-8760198D02*
X4763968Y-8769722D01*
X4763968Y-8769722D02*
X4773491Y-8788770D01*
X4773491Y-8788770D02*
X4773491Y-8836389D01*
X4773491Y-8836389D02*
X4763968Y-8855436D01*
X4763968Y-8855436D02*
X4754444Y-8864960D01*
X4754444Y-8864960D02*
X4735396Y-8874484D01*
X4735396Y-8874484D02*
X4678253Y-8874484D01*
X4678253Y-8874484D02*
X4659206Y-8864960D01*
X4659206Y-8864960D02*
X4649682Y-8855436D01*
X4963968Y-8874484D02*
X4849682Y-8874484D01*
X4906825Y-8874484D02*
X4906825Y-8674484D01*
X4906825Y-8674484D02*
X4887777Y-8703055D01*
X4887777Y-8703055D02*
X4868729Y-8722103D01*
X4868729Y-8722103D02*
X4849682Y-8731627D01*
X5144920Y-8674484D02*
X5049682Y-8674484D01*
X5049682Y-8674484D02*
X5040158Y-8769722D01*
X5040158Y-8769722D02*
X5049682Y-8760198D01*
X5049682Y-8760198D02*
X5068729Y-8750674D01*
X5068729Y-8750674D02*
X5116349Y-8750674D01*
X5116349Y-8750674D02*
X5135396Y-8760198D01*
X5135396Y-8760198D02*
X5144920Y-8769722D01*
X5144920Y-8769722D02*
X5154444Y-8788770D01*
X5154444Y-8788770D02*
X5154444Y-8836389D01*
X5154444Y-8836389D02*
X5144920Y-8855436D01*
X5144920Y-8855436D02*
X5135396Y-8864960D01*
X5135396Y-8864960D02*
X5116349Y-8874484D01*
X5116349Y-8874484D02*
X5068729Y-8874484D01*
X5068729Y-8874484D02*
X5049682Y-8864960D01*
X5049682Y-8864960D02*
X5040158Y-8855436D01*
X5230634Y-8674484D02*
X5230634Y-8712579D01*
X5306825Y-8674484D02*
X5306825Y-8712579D01*
X5602063Y-8950674D02*
X5592539Y-8941150D01*
X5592539Y-8941150D02*
X5573491Y-8912579D01*
X5573491Y-8912579D02*
X5563968Y-8893531D01*
X5563968Y-8893531D02*
X5554444Y-8864960D01*
X5554444Y-8864960D02*
X5544920Y-8817341D01*
X5544920Y-8817341D02*
X5544920Y-8779246D01*
X5544920Y-8779246D02*
X5554444Y-8731627D01*
X5554444Y-8731627D02*
X5563968Y-8703055D01*
X5563968Y-8703055D02*
X5573491Y-8684008D01*
X5573491Y-8684008D02*
X5592539Y-8655436D01*
X5592539Y-8655436D02*
X5602063Y-8645912D01*
X5659206Y-8674484D02*
X5783015Y-8674484D01*
X5783015Y-8674484D02*
X5716348Y-8750674D01*
X5716348Y-8750674D02*
X5744920Y-8750674D01*
X5744920Y-8750674D02*
X5763968Y-8760198D01*
X5763968Y-8760198D02*
X5773491Y-8769722D01*
X5773491Y-8769722D02*
X5783015Y-8788770D01*
X5783015Y-8788770D02*
X5783015Y-8836389D01*
X5783015Y-8836389D02*
X5773491Y-8855436D01*
X5773491Y-8855436D02*
X5763968Y-8864960D01*
X5763968Y-8864960D02*
X5744920Y-8874484D01*
X5744920Y-8874484D02*
X5687777Y-8874484D01*
X5687777Y-8874484D02*
X5668729Y-8864960D01*
X5668729Y-8864960D02*
X5659206Y-8855436D01*
X5906825Y-8674484D02*
X5925872Y-8674484D01*
X5925872Y-8674484D02*
X5944920Y-8684008D01*
X5944920Y-8684008D02*
X5954444Y-8693531D01*
X5954444Y-8693531D02*
X5963968Y-8712579D01*
X5963968Y-8712579D02*
X5973491Y-8750674D01*
X5973491Y-8750674D02*
X5973491Y-8798293D01*
X5973491Y-8798293D02*
X5963968Y-8836389D01*
X5963968Y-8836389D02*
X5954444Y-8855436D01*
X5954444Y-8855436D02*
X5944920Y-8864960D01*
X5944920Y-8864960D02*
X5925872Y-8874484D01*
X5925872Y-8874484D02*
X5906825Y-8874484D01*
X5906825Y-8874484D02*
X5887777Y-8864960D01*
X5887777Y-8864960D02*
X5878253Y-8855436D01*
X5878253Y-8855436D02*
X5868729Y-8836389D01*
X5868729Y-8836389D02*
X5859206Y-8798293D01*
X5859206Y-8798293D02*
X5859206Y-8750674D01*
X5859206Y-8750674D02*
X5868729Y-8712579D01*
X5868729Y-8712579D02*
X5878253Y-8693531D01*
X5878253Y-8693531D02*
X5887777Y-8684008D01*
X5887777Y-8684008D02*
X5906825Y-8674484D01*
X6211587Y-8874484D02*
X6211587Y-8674484D01*
X6297301Y-8874484D02*
X6297301Y-8769722D01*
X6297301Y-8769722D02*
X6287777Y-8750674D01*
X6287777Y-8750674D02*
X6268730Y-8741150D01*
X6268730Y-8741150D02*
X6240158Y-8741150D01*
X6240158Y-8741150D02*
X6221110Y-8750674D01*
X6221110Y-8750674D02*
X6211587Y-8760198D01*
X6421110Y-8874484D02*
X6402063Y-8864960D01*
X6402063Y-8864960D02*
X6392539Y-8855436D01*
X6392539Y-8855436D02*
X6383015Y-8836389D01*
X6383015Y-8836389D02*
X6383015Y-8779246D01*
X6383015Y-8779246D02*
X6392539Y-8760198D01*
X6392539Y-8760198D02*
X6402063Y-8750674D01*
X6402063Y-8750674D02*
X6421110Y-8741150D01*
X6421110Y-8741150D02*
X6449682Y-8741150D01*
X6449682Y-8741150D02*
X6468730Y-8750674D01*
X6468730Y-8750674D02*
X6478253Y-8760198D01*
X6478253Y-8760198D02*
X6487777Y-8779246D01*
X6487777Y-8779246D02*
X6487777Y-8836389D01*
X6487777Y-8836389D02*
X6478253Y-8855436D01*
X6478253Y-8855436D02*
X6468730Y-8864960D01*
X6468730Y-8864960D02*
X6449682Y-8874484D01*
X6449682Y-8874484D02*
X6421110Y-8874484D01*
X6602063Y-8874484D02*
X6583015Y-8864960D01*
X6583015Y-8864960D02*
X6573491Y-8845912D01*
X6573491Y-8845912D02*
X6573491Y-8674484D01*
X6754444Y-8864960D02*
X6735396Y-8874484D01*
X6735396Y-8874484D02*
X6697301Y-8874484D01*
X6697301Y-8874484D02*
X6678253Y-8864960D01*
X6678253Y-8864960D02*
X6668730Y-8845912D01*
X6668730Y-8845912D02*
X6668730Y-8769722D01*
X6668730Y-8769722D02*
X6678253Y-8750674D01*
X6678253Y-8750674D02*
X6697301Y-8741150D01*
X6697301Y-8741150D02*
X6735396Y-8741150D01*
X6735396Y-8741150D02*
X6754444Y-8750674D01*
X6754444Y-8750674D02*
X6763968Y-8769722D01*
X6763968Y-8769722D02*
X6763968Y-8788770D01*
X6763968Y-8788770D02*
X6668730Y-8807817D01*
X6840158Y-8864960D02*
X6859206Y-8874484D01*
X6859206Y-8874484D02*
X6897301Y-8874484D01*
X6897301Y-8874484D02*
X6916349Y-8864960D01*
X6916349Y-8864960D02*
X6925872Y-8845912D01*
X6925872Y-8845912D02*
X6925872Y-8836389D01*
X6925872Y-8836389D02*
X6916349Y-8817341D01*
X6916349Y-8817341D02*
X6897301Y-8807817D01*
X6897301Y-8807817D02*
X6868730Y-8807817D01*
X6868730Y-8807817D02*
X6849682Y-8798293D01*
X6849682Y-8798293D02*
X6840158Y-8779246D01*
X6840158Y-8779246D02*
X6840158Y-8769722D01*
X6840158Y-8769722D02*
X6849682Y-8750674D01*
X6849682Y-8750674D02*
X6868730Y-8741150D01*
X6868730Y-8741150D02*
X6897301Y-8741150D01*
X6897301Y-8741150D02*
X6916349Y-8750674D01*
X6992539Y-8950674D02*
X7002063Y-8941150D01*
X7002063Y-8941150D02*
X7021111Y-8912579D01*
X7021111Y-8912579D02*
X7030634Y-8893531D01*
X7030634Y-8893531D02*
X7040158Y-8864960D01*
X7040158Y-8864960D02*
X7049682Y-8817341D01*
X7049682Y-8817341D02*
X7049682Y-8779246D01*
X7049682Y-8779246D02*
X7040158Y-8731627D01*
X7040158Y-8731627D02*
X7030634Y-8703055D01*
X7030634Y-8703055D02*
X7021111Y-8684008D01*
X7021111Y-8684008D02*
X7002063Y-8655436D01*
X7002063Y-8655436D02*
X6992539Y-8645912D01*
D10*
X1977000Y-8997000D02*
X1977000Y-9097000D01*
X1927000Y-9047000D02*
X2027000Y-9047000D01*
D11*
X2392539Y-9138484D02*
X2278253Y-9138484D01*
X2335396Y-9138484D02*
X2335396Y-8938484D01*
X2335396Y-8938484D02*
X2316348Y-8967055D01*
X2316348Y-8967055D02*
X2297301Y-8986103D01*
X2297301Y-8986103D02*
X2278253Y-8995627D01*
X2478253Y-9119436D02*
X2487777Y-9128960D01*
X2487777Y-9128960D02*
X2478253Y-9138484D01*
X2478253Y-9138484D02*
X2468729Y-9128960D01*
X2468729Y-9128960D02*
X2478253Y-9119436D01*
X2478253Y-9119436D02*
X2478253Y-9138484D01*
X2611586Y-8938484D02*
X2630634Y-8938484D01*
X2630634Y-8938484D02*
X2649682Y-8948008D01*
X2649682Y-8948008D02*
X2659205Y-8957531D01*
X2659205Y-8957531D02*
X2668729Y-8976579D01*
X2668729Y-8976579D02*
X2678253Y-9014674D01*
X2678253Y-9014674D02*
X2678253Y-9062293D01*
X2678253Y-9062293D02*
X2668729Y-9100389D01*
X2668729Y-9100389D02*
X2659205Y-9119436D01*
X2659205Y-9119436D02*
X2649682Y-9128960D01*
X2649682Y-9128960D02*
X2630634Y-9138484D01*
X2630634Y-9138484D02*
X2611586Y-9138484D01*
X2611586Y-9138484D02*
X2592539Y-9128960D01*
X2592539Y-9128960D02*
X2583015Y-9119436D01*
X2583015Y-9119436D02*
X2573491Y-9100389D01*
X2573491Y-9100389D02*
X2563967Y-9062293D01*
X2563967Y-9062293D02*
X2563967Y-9014674D01*
X2563967Y-9014674D02*
X2573491Y-8976579D01*
X2573491Y-8976579D02*
X2583015Y-8957531D01*
X2583015Y-8957531D02*
X2592539Y-8948008D01*
X2592539Y-8948008D02*
X2611586Y-8938484D01*
X2802062Y-8938484D02*
X2821110Y-8938484D01*
X2821110Y-8938484D02*
X2840158Y-8948008D01*
X2840158Y-8948008D02*
X2849682Y-8957531D01*
X2849682Y-8957531D02*
X2859205Y-8976579D01*
X2859205Y-8976579D02*
X2868729Y-9014674D01*
X2868729Y-9014674D02*
X2868729Y-9062293D01*
X2868729Y-9062293D02*
X2859205Y-9100389D01*
X2859205Y-9100389D02*
X2849682Y-9119436D01*
X2849682Y-9119436D02*
X2840158Y-9128960D01*
X2840158Y-9128960D02*
X2821110Y-9138484D01*
X2821110Y-9138484D02*
X2802062Y-9138484D01*
X2802062Y-9138484D02*
X2783015Y-9128960D01*
X2783015Y-9128960D02*
X2773491Y-9119436D01*
X2773491Y-9119436D02*
X2763967Y-9100389D01*
X2763967Y-9100389D02*
X2754444Y-9062293D01*
X2754444Y-9062293D02*
X2754444Y-9014674D01*
X2754444Y-9014674D02*
X2763967Y-8976579D01*
X2763967Y-8976579D02*
X2773491Y-8957531D01*
X2773491Y-8957531D02*
X2783015Y-8948008D01*
X2783015Y-8948008D02*
X2802062Y-8938484D01*
X2992539Y-8938484D02*
X3011586Y-8938484D01*
X3011586Y-8938484D02*
X3030634Y-8948008D01*
X3030634Y-8948008D02*
X3040158Y-8957531D01*
X3040158Y-8957531D02*
X3049682Y-8976579D01*
X3049682Y-8976579D02*
X3059205Y-9014674D01*
X3059205Y-9014674D02*
X3059205Y-9062293D01*
X3059205Y-9062293D02*
X3049682Y-9100389D01*
X3049682Y-9100389D02*
X3040158Y-9119436D01*
X3040158Y-9119436D02*
X3030634Y-9128960D01*
X3030634Y-9128960D02*
X3011586Y-9138484D01*
X3011586Y-9138484D02*
X2992539Y-9138484D01*
X2992539Y-9138484D02*
X2973491Y-9128960D01*
X2973491Y-9128960D02*
X2963967Y-9119436D01*
X2963967Y-9119436D02*
X2954443Y-9100389D01*
X2954443Y-9100389D02*
X2944920Y-9062293D01*
X2944920Y-9062293D02*
X2944920Y-9014674D01*
X2944920Y-9014674D02*
X2954443Y-8976579D01*
X2954443Y-8976579D02*
X2963967Y-8957531D01*
X2963967Y-8957531D02*
X2973491Y-8948008D01*
X2973491Y-8948008D02*
X2992539Y-8938484D01*
X3144920Y-9138484D02*
X3144920Y-9005150D01*
X3144920Y-9024198D02*
X3154443Y-9014674D01*
X3154443Y-9014674D02*
X3173491Y-9005150D01*
X3173491Y-9005150D02*
X3202063Y-9005150D01*
X3202063Y-9005150D02*
X3221110Y-9014674D01*
X3221110Y-9014674D02*
X3230634Y-9033722D01*
X3230634Y-9033722D02*
X3230634Y-9138484D01*
X3230634Y-9033722D02*
X3240158Y-9014674D01*
X3240158Y-9014674D02*
X3259205Y-9005150D01*
X3259205Y-9005150D02*
X3287777Y-9005150D01*
X3287777Y-9005150D02*
X3306824Y-9014674D01*
X3306824Y-9014674D02*
X3316348Y-9033722D01*
X3316348Y-9033722D02*
X3316348Y-9138484D01*
X3411586Y-9138484D02*
X3411586Y-9005150D01*
X3411586Y-9024198D02*
X3421110Y-9014674D01*
X3421110Y-9014674D02*
X3440158Y-9005150D01*
X3440158Y-9005150D02*
X3468729Y-9005150D01*
X3468729Y-9005150D02*
X3487777Y-9014674D01*
X3487777Y-9014674D02*
X3497301Y-9033722D01*
X3497301Y-9033722D02*
X3497301Y-9138484D01*
X3497301Y-9033722D02*
X3506824Y-9014674D01*
X3506824Y-9014674D02*
X3525872Y-9005150D01*
X3525872Y-9005150D02*
X3554443Y-9005150D01*
X3554443Y-9005150D02*
X3573491Y-9014674D01*
X3573491Y-9014674D02*
X3583015Y-9033722D01*
X3583015Y-9033722D02*
X3583015Y-9138484D01*
X3973491Y-8928960D02*
X3802063Y-9186103D01*
X4230634Y-8938484D02*
X4249682Y-8938484D01*
X4249682Y-8938484D02*
X4268729Y-8948008D01*
X4268729Y-8948008D02*
X4278253Y-8957531D01*
X4278253Y-8957531D02*
X4287777Y-8976579D01*
X4287777Y-8976579D02*
X4297301Y-9014674D01*
X4297301Y-9014674D02*
X4297301Y-9062293D01*
X4297301Y-9062293D02*
X4287777Y-9100389D01*
X4287777Y-9100389D02*
X4278253Y-9119436D01*
X4278253Y-9119436D02*
X4268729Y-9128960D01*
X4268729Y-9128960D02*
X4249682Y-9138484D01*
X4249682Y-9138484D02*
X4230634Y-9138484D01*
X4230634Y-9138484D02*
X4211587Y-9128960D01*
X4211587Y-9128960D02*
X4202063Y-9119436D01*
X4202063Y-9119436D02*
X4192539Y-9100389D01*
X4192539Y-9100389D02*
X4183015Y-9062293D01*
X4183015Y-9062293D02*
X4183015Y-9014674D01*
X4183015Y-9014674D02*
X4192539Y-8976579D01*
X4192539Y-8976579D02*
X4202063Y-8957531D01*
X4202063Y-8957531D02*
X4211587Y-8948008D01*
X4211587Y-8948008D02*
X4230634Y-8938484D01*
X4383015Y-9119436D02*
X4392539Y-9128960D01*
X4392539Y-9128960D02*
X4383015Y-9138484D01*
X4383015Y-9138484D02*
X4373491Y-9128960D01*
X4373491Y-9128960D02*
X4383015Y-9119436D01*
X4383015Y-9119436D02*
X4383015Y-9138484D01*
X4516348Y-8938484D02*
X4535396Y-8938484D01*
X4535396Y-8938484D02*
X4554444Y-8948008D01*
X4554444Y-8948008D02*
X4563968Y-8957531D01*
X4563968Y-8957531D02*
X4573491Y-8976579D01*
X4573491Y-8976579D02*
X4583015Y-9014674D01*
X4583015Y-9014674D02*
X4583015Y-9062293D01*
X4583015Y-9062293D02*
X4573491Y-9100389D01*
X4573491Y-9100389D02*
X4563968Y-9119436D01*
X4563968Y-9119436D02*
X4554444Y-9128960D01*
X4554444Y-9128960D02*
X4535396Y-9138484D01*
X4535396Y-9138484D02*
X4516348Y-9138484D01*
X4516348Y-9138484D02*
X4497301Y-9128960D01*
X4497301Y-9128960D02*
X4487777Y-9119436D01*
X4487777Y-9119436D02*
X4478253Y-9100389D01*
X4478253Y-9100389D02*
X4468729Y-9062293D01*
X4468729Y-9062293D02*
X4468729Y-9014674D01*
X4468729Y-9014674D02*
X4478253Y-8976579D01*
X4478253Y-8976579D02*
X4487777Y-8957531D01*
X4487777Y-8957531D02*
X4497301Y-8948008D01*
X4497301Y-8948008D02*
X4516348Y-8938484D01*
X4649682Y-8938484D02*
X4773491Y-8938484D01*
X4773491Y-8938484D02*
X4706825Y-9014674D01*
X4706825Y-9014674D02*
X4735396Y-9014674D01*
X4735396Y-9014674D02*
X4754444Y-9024198D01*
X4754444Y-9024198D02*
X4763968Y-9033722D01*
X4763968Y-9033722D02*
X4773491Y-9052770D01*
X4773491Y-9052770D02*
X4773491Y-9100389D01*
X4773491Y-9100389D02*
X4763968Y-9119436D01*
X4763968Y-9119436D02*
X4754444Y-9128960D01*
X4754444Y-9128960D02*
X4735396Y-9138484D01*
X4735396Y-9138484D02*
X4678253Y-9138484D01*
X4678253Y-9138484D02*
X4659206Y-9128960D01*
X4659206Y-9128960D02*
X4649682Y-9119436D01*
X4868729Y-9138484D02*
X4906825Y-9138484D01*
X4906825Y-9138484D02*
X4925872Y-9128960D01*
X4925872Y-9128960D02*
X4935396Y-9119436D01*
X4935396Y-9119436D02*
X4954444Y-9090865D01*
X4954444Y-9090865D02*
X4963968Y-9052770D01*
X4963968Y-9052770D02*
X4963968Y-8976579D01*
X4963968Y-8976579D02*
X4954444Y-8957531D01*
X4954444Y-8957531D02*
X4944920Y-8948008D01*
X4944920Y-8948008D02*
X4925872Y-8938484D01*
X4925872Y-8938484D02*
X4887777Y-8938484D01*
X4887777Y-8938484D02*
X4868729Y-8948008D01*
X4868729Y-8948008D02*
X4859206Y-8957531D01*
X4859206Y-8957531D02*
X4849682Y-8976579D01*
X4849682Y-8976579D02*
X4849682Y-9024198D01*
X4849682Y-9024198D02*
X4859206Y-9043246D01*
X4859206Y-9043246D02*
X4868729Y-9052770D01*
X4868729Y-9052770D02*
X4887777Y-9062293D01*
X4887777Y-9062293D02*
X4925872Y-9062293D01*
X4925872Y-9062293D02*
X4944920Y-9052770D01*
X4944920Y-9052770D02*
X4954444Y-9043246D01*
X4954444Y-9043246D02*
X4963968Y-9024198D01*
X5135396Y-9005150D02*
X5135396Y-9138484D01*
X5087777Y-8928960D02*
X5040158Y-9071817D01*
X5040158Y-9071817D02*
X5163968Y-9071817D01*
X5230634Y-8938484D02*
X5230634Y-8976579D01*
X5306825Y-8938484D02*
X5306825Y-8976579D01*
X5602063Y-9214674D02*
X5592539Y-9205150D01*
X5592539Y-9205150D02*
X5573491Y-9176579D01*
X5573491Y-9176579D02*
X5563968Y-9157531D01*
X5563968Y-9157531D02*
X5554444Y-9128960D01*
X5554444Y-9128960D02*
X5544920Y-9081341D01*
X5544920Y-9081341D02*
X5544920Y-9043246D01*
X5544920Y-9043246D02*
X5554444Y-8995627D01*
X5554444Y-8995627D02*
X5563968Y-8967055D01*
X5563968Y-8967055D02*
X5573491Y-8948008D01*
X5573491Y-8948008D02*
X5592539Y-8919436D01*
X5592539Y-8919436D02*
X5602063Y-8909912D01*
X5773491Y-8938484D02*
X5678253Y-8938484D01*
X5678253Y-8938484D02*
X5668729Y-9033722D01*
X5668729Y-9033722D02*
X5678253Y-9024198D01*
X5678253Y-9024198D02*
X5697301Y-9014674D01*
X5697301Y-9014674D02*
X5744920Y-9014674D01*
X5744920Y-9014674D02*
X5763968Y-9024198D01*
X5763968Y-9024198D02*
X5773491Y-9033722D01*
X5773491Y-9033722D02*
X5783015Y-9052770D01*
X5783015Y-9052770D02*
X5783015Y-9100389D01*
X5783015Y-9100389D02*
X5773491Y-9119436D01*
X5773491Y-9119436D02*
X5763968Y-9128960D01*
X5763968Y-9128960D02*
X5744920Y-9138484D01*
X5744920Y-9138484D02*
X5697301Y-9138484D01*
X5697301Y-9138484D02*
X5678253Y-9128960D01*
X5678253Y-9128960D02*
X5668729Y-9119436D01*
X5849682Y-8938484D02*
X5983015Y-8938484D01*
X5983015Y-8938484D02*
X5897301Y-9138484D01*
X6211587Y-9138484D02*
X6211587Y-8938484D01*
X6297301Y-9138484D02*
X6297301Y-9033722D01*
X6297301Y-9033722D02*
X6287777Y-9014674D01*
X6287777Y-9014674D02*
X6268730Y-9005150D01*
X6268730Y-9005150D02*
X6240158Y-9005150D01*
X6240158Y-9005150D02*
X6221110Y-9014674D01*
X6221110Y-9014674D02*
X6211587Y-9024198D01*
X6421110Y-9138484D02*
X6402063Y-9128960D01*
X6402063Y-9128960D02*
X6392539Y-9119436D01*
X6392539Y-9119436D02*
X6383015Y-9100389D01*
X6383015Y-9100389D02*
X6383015Y-9043246D01*
X6383015Y-9043246D02*
X6392539Y-9024198D01*
X6392539Y-9024198D02*
X6402063Y-9014674D01*
X6402063Y-9014674D02*
X6421110Y-9005150D01*
X6421110Y-9005150D02*
X6449682Y-9005150D01*
X6449682Y-9005150D02*
X6468730Y-9014674D01*
X6468730Y-9014674D02*
X6478253Y-9024198D01*
X6478253Y-9024198D02*
X6487777Y-9043246D01*
X6487777Y-9043246D02*
X6487777Y-9100389D01*
X6487777Y-9100389D02*
X6478253Y-9119436D01*
X6478253Y-9119436D02*
X6468730Y-9128960D01*
X6468730Y-9128960D02*
X6449682Y-9138484D01*
X6449682Y-9138484D02*
X6421110Y-9138484D01*
X6602063Y-9138484D02*
X6583015Y-9128960D01*
X6583015Y-9128960D02*
X6573491Y-9109912D01*
X6573491Y-9109912D02*
X6573491Y-8938484D01*
X6754444Y-9128960D02*
X6735396Y-9138484D01*
X6735396Y-9138484D02*
X6697301Y-9138484D01*
X6697301Y-9138484D02*
X6678253Y-9128960D01*
X6678253Y-9128960D02*
X6668730Y-9109912D01*
X6668730Y-9109912D02*
X6668730Y-9033722D01*
X6668730Y-9033722D02*
X6678253Y-9014674D01*
X6678253Y-9014674D02*
X6697301Y-9005150D01*
X6697301Y-9005150D02*
X6735396Y-9005150D01*
X6735396Y-9005150D02*
X6754444Y-9014674D01*
X6754444Y-9014674D02*
X6763968Y-9033722D01*
X6763968Y-9033722D02*
X6763968Y-9052770D01*
X6763968Y-9052770D02*
X6668730Y-9071817D01*
X6840158Y-9128960D02*
X6859206Y-9138484D01*
X6859206Y-9138484D02*
X6897301Y-9138484D01*
X6897301Y-9138484D02*
X6916349Y-9128960D01*
X6916349Y-9128960D02*
X6925872Y-9109912D01*
X6925872Y-9109912D02*
X6925872Y-9100389D01*
X6925872Y-9100389D02*
X6916349Y-9081341D01*
X6916349Y-9081341D02*
X6897301Y-9071817D01*
X6897301Y-9071817D02*
X6868730Y-9071817D01*
X6868730Y-9071817D02*
X6849682Y-9062293D01*
X6849682Y-9062293D02*
X6840158Y-9043246D01*
X6840158Y-9043246D02*
X6840158Y-9033722D01*
X6840158Y-9033722D02*
X6849682Y-9014674D01*
X6849682Y-9014674D02*
X6868730Y-9005150D01*
X6868730Y-9005150D02*
X6897301Y-9005150D01*
X6897301Y-9005150D02*
X6916349Y-9014674D01*
X6992539Y-9214674D02*
X7002063Y-9205150D01*
X7002063Y-9205150D02*
X7021111Y-9176579D01*
X7021111Y-9176579D02*
X7030634Y-9157531D01*
X7030634Y-9157531D02*
X7040158Y-9128960D01*
X7040158Y-9128960D02*
X7049682Y-9081341D01*
X7049682Y-9081341D02*
X7049682Y-9043246D01*
X7049682Y-9043246D02*
X7040158Y-8995627D01*
X7040158Y-8995627D02*
X7030634Y-8967055D01*
X7030634Y-8967055D02*
X7021111Y-8948008D01*
X7021111Y-8948008D02*
X7002063Y-8919436D01*
X7002063Y-8919436D02*
X6992539Y-8909912D01*
D12*
X2003569Y-9367569D02*
X2003569Y-9254431D01*
X1890431Y-9254431D01*
X1890431Y-9367569D01*
X2003569Y-9367569D01*
D11*
X2392539Y-9402484D02*
X2278253Y-9402484D01*
X2335396Y-9402484D02*
X2335396Y-9202484D01*
X2335396Y-9202484D02*
X2316348Y-9231055D01*
X2316348Y-9231055D02*
X2297301Y-9250103D01*
X2297301Y-9250103D02*
X2278253Y-9259627D01*
X2478253Y-9383436D02*
X2487777Y-9392960D01*
X2487777Y-9392960D02*
X2478253Y-9402484D01*
X2478253Y-9402484D02*
X2468729Y-9392960D01*
X2468729Y-9392960D02*
X2478253Y-9383436D01*
X2478253Y-9383436D02*
X2478253Y-9402484D01*
X2659205Y-9202484D02*
X2621110Y-9202484D01*
X2621110Y-9202484D02*
X2602063Y-9212008D01*
X2602063Y-9212008D02*
X2592539Y-9221531D01*
X2592539Y-9221531D02*
X2573491Y-9250103D01*
X2573491Y-9250103D02*
X2563967Y-9288198D01*
X2563967Y-9288198D02*
X2563967Y-9364389D01*
X2563967Y-9364389D02*
X2573491Y-9383436D01*
X2573491Y-9383436D02*
X2583015Y-9392960D01*
X2583015Y-9392960D02*
X2602063Y-9402484D01*
X2602063Y-9402484D02*
X2640158Y-9402484D01*
X2640158Y-9402484D02*
X2659205Y-9392960D01*
X2659205Y-9392960D02*
X2668729Y-9383436D01*
X2668729Y-9383436D02*
X2678253Y-9364389D01*
X2678253Y-9364389D02*
X2678253Y-9316770D01*
X2678253Y-9316770D02*
X2668729Y-9297722D01*
X2668729Y-9297722D02*
X2659205Y-9288198D01*
X2659205Y-9288198D02*
X2640158Y-9278674D01*
X2640158Y-9278674D02*
X2602063Y-9278674D01*
X2602063Y-9278674D02*
X2583015Y-9288198D01*
X2583015Y-9288198D02*
X2573491Y-9297722D01*
X2573491Y-9297722D02*
X2563967Y-9316770D01*
X2802062Y-9202484D02*
X2821110Y-9202484D01*
X2821110Y-9202484D02*
X2840158Y-9212008D01*
X2840158Y-9212008D02*
X2849682Y-9221531D01*
X2849682Y-9221531D02*
X2859205Y-9240579D01*
X2859205Y-9240579D02*
X2868729Y-9278674D01*
X2868729Y-9278674D02*
X2868729Y-9326293D01*
X2868729Y-9326293D02*
X2859205Y-9364389D01*
X2859205Y-9364389D02*
X2849682Y-9383436D01*
X2849682Y-9383436D02*
X2840158Y-9392960D01*
X2840158Y-9392960D02*
X2821110Y-9402484D01*
X2821110Y-9402484D02*
X2802062Y-9402484D01*
X2802062Y-9402484D02*
X2783015Y-9392960D01*
X2783015Y-9392960D02*
X2773491Y-9383436D01*
X2773491Y-9383436D02*
X2763967Y-9364389D01*
X2763967Y-9364389D02*
X2754444Y-9326293D01*
X2754444Y-9326293D02*
X2754444Y-9278674D01*
X2754444Y-9278674D02*
X2763967Y-9240579D01*
X2763967Y-9240579D02*
X2773491Y-9221531D01*
X2773491Y-9221531D02*
X2783015Y-9212008D01*
X2783015Y-9212008D02*
X2802062Y-9202484D01*
X2992539Y-9202484D02*
X3011586Y-9202484D01*
X3011586Y-9202484D02*
X3030634Y-9212008D01*
X3030634Y-9212008D02*
X3040158Y-9221531D01*
X3040158Y-9221531D02*
X3049682Y-9240579D01*
X3049682Y-9240579D02*
X3059205Y-9278674D01*
X3059205Y-9278674D02*
X3059205Y-9326293D01*
X3059205Y-9326293D02*
X3049682Y-9364389D01*
X3049682Y-9364389D02*
X3040158Y-9383436D01*
X3040158Y-9383436D02*
X3030634Y-9392960D01*
X3030634Y-9392960D02*
X3011586Y-9402484D01*
X3011586Y-9402484D02*
X2992539Y-9402484D01*
X2992539Y-9402484D02*
X2973491Y-9392960D01*
X2973491Y-9392960D02*
X2963967Y-9383436D01*
X2963967Y-9383436D02*
X2954443Y-9364389D01*
X2954443Y-9364389D02*
X2944920Y-9326293D01*
X2944920Y-9326293D02*
X2944920Y-9278674D01*
X2944920Y-9278674D02*
X2954443Y-9240579D01*
X2954443Y-9240579D02*
X2963967Y-9221531D01*
X2963967Y-9221531D02*
X2973491Y-9212008D01*
X2973491Y-9212008D02*
X2992539Y-9202484D01*
X3144920Y-9402484D02*
X3144920Y-9269150D01*
X3144920Y-9288198D02*
X3154443Y-9278674D01*
X3154443Y-9278674D02*
X3173491Y-9269150D01*
X3173491Y-9269150D02*
X3202063Y-9269150D01*
X3202063Y-9269150D02*
X3221110Y-9278674D01*
X3221110Y-9278674D02*
X3230634Y-9297722D01*
X3230634Y-9297722D02*
X3230634Y-9402484D01*
X3230634Y-9297722D02*
X3240158Y-9278674D01*
X3240158Y-9278674D02*
X3259205Y-9269150D01*
X3259205Y-9269150D02*
X3287777Y-9269150D01*
X3287777Y-9269150D02*
X3306824Y-9278674D01*
X3306824Y-9278674D02*
X3316348Y-9297722D01*
X3316348Y-9297722D02*
X3316348Y-9402484D01*
X3411586Y-9402484D02*
X3411586Y-9269150D01*
X3411586Y-9288198D02*
X3421110Y-9278674D01*
X3421110Y-9278674D02*
X3440158Y-9269150D01*
X3440158Y-9269150D02*
X3468729Y-9269150D01*
X3468729Y-9269150D02*
X3487777Y-9278674D01*
X3487777Y-9278674D02*
X3497301Y-9297722D01*
X3497301Y-9297722D02*
X3497301Y-9402484D01*
X3497301Y-9297722D02*
X3506824Y-9278674D01*
X3506824Y-9278674D02*
X3525872Y-9269150D01*
X3525872Y-9269150D02*
X3554443Y-9269150D01*
X3554443Y-9269150D02*
X3573491Y-9278674D01*
X3573491Y-9278674D02*
X3583015Y-9297722D01*
X3583015Y-9297722D02*
X3583015Y-9402484D01*
X3973491Y-9192960D02*
X3802063Y-9450103D01*
X4230634Y-9202484D02*
X4249682Y-9202484D01*
X4249682Y-9202484D02*
X4268729Y-9212008D01*
X4268729Y-9212008D02*
X4278253Y-9221531D01*
X4278253Y-9221531D02*
X4287777Y-9240579D01*
X4287777Y-9240579D02*
X4297301Y-9278674D01*
X4297301Y-9278674D02*
X4297301Y-9326293D01*
X4297301Y-9326293D02*
X4287777Y-9364389D01*
X4287777Y-9364389D02*
X4278253Y-9383436D01*
X4278253Y-9383436D02*
X4268729Y-9392960D01*
X4268729Y-9392960D02*
X4249682Y-9402484D01*
X4249682Y-9402484D02*
X4230634Y-9402484D01*
X4230634Y-9402484D02*
X4211587Y-9392960D01*
X4211587Y-9392960D02*
X4202063Y-9383436D01*
X4202063Y-9383436D02*
X4192539Y-9364389D01*
X4192539Y-9364389D02*
X4183015Y-9326293D01*
X4183015Y-9326293D02*
X4183015Y-9278674D01*
X4183015Y-9278674D02*
X4192539Y-9240579D01*
X4192539Y-9240579D02*
X4202063Y-9221531D01*
X4202063Y-9221531D02*
X4211587Y-9212008D01*
X4211587Y-9212008D02*
X4230634Y-9202484D01*
X4383015Y-9383436D02*
X4392539Y-9392960D01*
X4392539Y-9392960D02*
X4383015Y-9402484D01*
X4383015Y-9402484D02*
X4373491Y-9392960D01*
X4373491Y-9392960D02*
X4383015Y-9383436D01*
X4383015Y-9383436D02*
X4383015Y-9402484D01*
X4516348Y-9202484D02*
X4535396Y-9202484D01*
X4535396Y-9202484D02*
X4554444Y-9212008D01*
X4554444Y-9212008D02*
X4563968Y-9221531D01*
X4563968Y-9221531D02*
X4573491Y-9240579D01*
X4573491Y-9240579D02*
X4583015Y-9278674D01*
X4583015Y-9278674D02*
X4583015Y-9326293D01*
X4583015Y-9326293D02*
X4573491Y-9364389D01*
X4573491Y-9364389D02*
X4563968Y-9383436D01*
X4563968Y-9383436D02*
X4554444Y-9392960D01*
X4554444Y-9392960D02*
X4535396Y-9402484D01*
X4535396Y-9402484D02*
X4516348Y-9402484D01*
X4516348Y-9402484D02*
X4497301Y-9392960D01*
X4497301Y-9392960D02*
X4487777Y-9383436D01*
X4487777Y-9383436D02*
X4478253Y-9364389D01*
X4478253Y-9364389D02*
X4468729Y-9326293D01*
X4468729Y-9326293D02*
X4468729Y-9278674D01*
X4468729Y-9278674D02*
X4478253Y-9240579D01*
X4478253Y-9240579D02*
X4487777Y-9221531D01*
X4487777Y-9221531D02*
X4497301Y-9212008D01*
X4497301Y-9212008D02*
X4516348Y-9202484D01*
X4754444Y-9202484D02*
X4716348Y-9202484D01*
X4716348Y-9202484D02*
X4697301Y-9212008D01*
X4697301Y-9212008D02*
X4687777Y-9221531D01*
X4687777Y-9221531D02*
X4668729Y-9250103D01*
X4668729Y-9250103D02*
X4659206Y-9288198D01*
X4659206Y-9288198D02*
X4659206Y-9364389D01*
X4659206Y-9364389D02*
X4668729Y-9383436D01*
X4668729Y-9383436D02*
X4678253Y-9392960D01*
X4678253Y-9392960D02*
X4697301Y-9402484D01*
X4697301Y-9402484D02*
X4735396Y-9402484D01*
X4735396Y-9402484D02*
X4754444Y-9392960D01*
X4754444Y-9392960D02*
X4763968Y-9383436D01*
X4763968Y-9383436D02*
X4773491Y-9364389D01*
X4773491Y-9364389D02*
X4773491Y-9316770D01*
X4773491Y-9316770D02*
X4763968Y-9297722D01*
X4763968Y-9297722D02*
X4754444Y-9288198D01*
X4754444Y-9288198D02*
X4735396Y-9278674D01*
X4735396Y-9278674D02*
X4697301Y-9278674D01*
X4697301Y-9278674D02*
X4678253Y-9288198D01*
X4678253Y-9288198D02*
X4668729Y-9297722D01*
X4668729Y-9297722D02*
X4659206Y-9316770D01*
X4840158Y-9202484D02*
X4963968Y-9202484D01*
X4963968Y-9202484D02*
X4897301Y-9278674D01*
X4897301Y-9278674D02*
X4925872Y-9278674D01*
X4925872Y-9278674D02*
X4944920Y-9288198D01*
X4944920Y-9288198D02*
X4954444Y-9297722D01*
X4954444Y-9297722D02*
X4963968Y-9316770D01*
X4963968Y-9316770D02*
X4963968Y-9364389D01*
X4963968Y-9364389D02*
X4954444Y-9383436D01*
X4954444Y-9383436D02*
X4944920Y-9392960D01*
X4944920Y-9392960D02*
X4925872Y-9402484D01*
X4925872Y-9402484D02*
X4868729Y-9402484D01*
X4868729Y-9402484D02*
X4849682Y-9392960D01*
X4849682Y-9392960D02*
X4840158Y-9383436D01*
X5087777Y-9202484D02*
X5106825Y-9202484D01*
X5106825Y-9202484D02*
X5125872Y-9212008D01*
X5125872Y-9212008D02*
X5135396Y-9221531D01*
X5135396Y-9221531D02*
X5144920Y-9240579D01*
X5144920Y-9240579D02*
X5154444Y-9278674D01*
X5154444Y-9278674D02*
X5154444Y-9326293D01*
X5154444Y-9326293D02*
X5144920Y-9364389D01*
X5144920Y-9364389D02*
X5135396Y-9383436D01*
X5135396Y-9383436D02*
X5125872Y-9392960D01*
X5125872Y-9392960D02*
X5106825Y-9402484D01*
X5106825Y-9402484D02*
X5087777Y-9402484D01*
X5087777Y-9402484D02*
X5068729Y-9392960D01*
X5068729Y-9392960D02*
X5059206Y-9383436D01*
X5059206Y-9383436D02*
X5049682Y-9364389D01*
X5049682Y-9364389D02*
X5040158Y-9326293D01*
X5040158Y-9326293D02*
X5040158Y-9278674D01*
X5040158Y-9278674D02*
X5049682Y-9240579D01*
X5049682Y-9240579D02*
X5059206Y-9221531D01*
X5059206Y-9221531D02*
X5068729Y-9212008D01*
X5068729Y-9212008D02*
X5087777Y-9202484D01*
X5230634Y-9202484D02*
X5230634Y-9240579D01*
X5306825Y-9202484D02*
X5306825Y-9240579D01*
X5602063Y-9478674D02*
X5592539Y-9469150D01*
X5592539Y-9469150D02*
X5573491Y-9440579D01*
X5573491Y-9440579D02*
X5563968Y-9421531D01*
X5563968Y-9421531D02*
X5554444Y-9392960D01*
X5554444Y-9392960D02*
X5544920Y-9345341D01*
X5544920Y-9345341D02*
X5544920Y-9307246D01*
X5544920Y-9307246D02*
X5554444Y-9259627D01*
X5554444Y-9259627D02*
X5563968Y-9231055D01*
X5563968Y-9231055D02*
X5573491Y-9212008D01*
X5573491Y-9212008D02*
X5592539Y-9183436D01*
X5592539Y-9183436D02*
X5602063Y-9173912D01*
X5668729Y-9221531D02*
X5678253Y-9212008D01*
X5678253Y-9212008D02*
X5697301Y-9202484D01*
X5697301Y-9202484D02*
X5744920Y-9202484D01*
X5744920Y-9202484D02*
X5763968Y-9212008D01*
X5763968Y-9212008D02*
X5773491Y-9221531D01*
X5773491Y-9221531D02*
X5783015Y-9240579D01*
X5783015Y-9240579D02*
X5783015Y-9259627D01*
X5783015Y-9259627D02*
X5773491Y-9288198D01*
X5773491Y-9288198D02*
X5659206Y-9402484D01*
X5659206Y-9402484D02*
X5783015Y-9402484D01*
X6021110Y-9402484D02*
X6021110Y-9202484D01*
X6106825Y-9402484D02*
X6106825Y-9297722D01*
X6106825Y-9297722D02*
X6097301Y-9278674D01*
X6097301Y-9278674D02*
X6078253Y-9269150D01*
X6078253Y-9269150D02*
X6049682Y-9269150D01*
X6049682Y-9269150D02*
X6030634Y-9278674D01*
X6030634Y-9278674D02*
X6021110Y-9288198D01*
X6230634Y-9402484D02*
X6211587Y-9392960D01*
X6211587Y-9392960D02*
X6202063Y-9383436D01*
X6202063Y-9383436D02*
X6192539Y-9364389D01*
X6192539Y-9364389D02*
X6192539Y-9307246D01*
X6192539Y-9307246D02*
X6202063Y-9288198D01*
X6202063Y-9288198D02*
X6211587Y-9278674D01*
X6211587Y-9278674D02*
X6230634Y-9269150D01*
X6230634Y-9269150D02*
X6259206Y-9269150D01*
X6259206Y-9269150D02*
X6278253Y-9278674D01*
X6278253Y-9278674D02*
X6287777Y-9288198D01*
X6287777Y-9288198D02*
X6297301Y-9307246D01*
X6297301Y-9307246D02*
X6297301Y-9364389D01*
X6297301Y-9364389D02*
X6287777Y-9383436D01*
X6287777Y-9383436D02*
X6278253Y-9392960D01*
X6278253Y-9392960D02*
X6259206Y-9402484D01*
X6259206Y-9402484D02*
X6230634Y-9402484D01*
X6411587Y-9402484D02*
X6392539Y-9392960D01*
X6392539Y-9392960D02*
X6383015Y-9373912D01*
X6383015Y-9373912D02*
X6383015Y-9202484D01*
X6563968Y-9392960D02*
X6544920Y-9402484D01*
X6544920Y-9402484D02*
X6506825Y-9402484D01*
X6506825Y-9402484D02*
X6487777Y-9392960D01*
X6487777Y-9392960D02*
X6478253Y-9373912D01*
X6478253Y-9373912D02*
X6478253Y-9297722D01*
X6478253Y-9297722D02*
X6487777Y-9278674D01*
X6487777Y-9278674D02*
X6506825Y-9269150D01*
X6506825Y-9269150D02*
X6544920Y-9269150D01*
X6544920Y-9269150D02*
X6563968Y-9278674D01*
X6563968Y-9278674D02*
X6573491Y-9297722D01*
X6573491Y-9297722D02*
X6573491Y-9316770D01*
X6573491Y-9316770D02*
X6478253Y-9335817D01*
X6649682Y-9392960D02*
X6668730Y-9402484D01*
X6668730Y-9402484D02*
X6706825Y-9402484D01*
X6706825Y-9402484D02*
X6725872Y-9392960D01*
X6725872Y-9392960D02*
X6735396Y-9373912D01*
X6735396Y-9373912D02*
X6735396Y-9364389D01*
X6735396Y-9364389D02*
X6725872Y-9345341D01*
X6725872Y-9345341D02*
X6706825Y-9335817D01*
X6706825Y-9335817D02*
X6678253Y-9335817D01*
X6678253Y-9335817D02*
X6659206Y-9326293D01*
X6659206Y-9326293D02*
X6649682Y-9307246D01*
X6649682Y-9307246D02*
X6649682Y-9297722D01*
X6649682Y-9297722D02*
X6659206Y-9278674D01*
X6659206Y-9278674D02*
X6678253Y-9269150D01*
X6678253Y-9269150D02*
X6706825Y-9269150D01*
X6706825Y-9269150D02*
X6725872Y-9278674D01*
X6802063Y-9478674D02*
X6811587Y-9469150D01*
X6811587Y-9469150D02*
X6830634Y-9440579D01*
X6830634Y-9440579D02*
X6840158Y-9421531D01*
X6840158Y-9421531D02*
X6849682Y-9392960D01*
X6849682Y-9392960D02*
X6859206Y-9345341D01*
X6859206Y-9345341D02*
X6859206Y-9307246D01*
X6859206Y-9307246D02*
X6849682Y-9259627D01*
X6849682Y-9259627D02*
X6840158Y-9231055D01*
X6840158Y-9231055D02*
X6830634Y-9212008D01*
X6830634Y-9212008D02*
X6811587Y-9183436D01*
X6811587Y-9183436D02*
X6802063Y-9173912D01*
M02*
