%TF.GenerationSoftware,KiCad,Pcbnew,7.0.9*%
%TF.CreationDate,2025-10-08T14:44:38+03:00*%
%TF.ProjectId,signalgenerator-rounded,7369676e-616c-4676-956e-657261746f72,rev?*%
%TF.SameCoordinates,Original*%
%TF.FileFunction,Soldermask,Bot*%
%TF.FilePolarity,Negative*%
%FSLAX46Y46*%
G04 Gerber Fmt 4.6, Leading zero omitted, Abs format (unit mm)*
G04 Created by KiCad (PCBNEW 7.0.9) date 2025-10-08 14:44:38*
%MOMM*%
%LPD*%
G01*
G04 APERTURE LIST*
G04 Aperture macros list*
%AMRoundRect*
0 Rectangle with rounded corners*
0 $1 Rounding radius*
0 $2 $3 $4 $5 $6 $7 $8 $9 X,Y pos of 4 corners*
0 Add a 4 corners polygon primitive as box body*
4,1,4,$2,$3,$4,$5,$6,$7,$8,$9,$2,$3,0*
0 Add four circle primitives for the rounded corners*
1,1,$1+$1,$2,$3*
1,1,$1+$1,$4,$5*
1,1,$1+$1,$6,$7*
1,1,$1+$1,$8,$9*
0 Add four rect primitives between the rounded corners*
20,1,$1+$1,$2,$3,$4,$5,0*
20,1,$1+$1,$4,$5,$6,$7,0*
20,1,$1+$1,$6,$7,$8,$9,0*
20,1,$1+$1,$8,$9,$2,$3,0*%
G04 Aperture macros list end*
%ADD10C,2.500000*%
%ADD11C,2.000000*%
%ADD12R,1.700000X1.700000*%
%ADD13O,1.700000X1.700000*%
%ADD14R,1.350000X1.350000*%
%ADD15O,1.350000X1.350000*%
%ADD16O,1.600000X2.000000*%
%ADD17R,1.350000X4.200000*%
%ADD18RoundRect,0.250000X-1.050000X0.750000X-1.050000X-0.750000X1.050000X-0.750000X1.050000X0.750000X0*%
%ADD19O,2.600000X2.000000*%
%ADD20C,1.600000*%
%ADD21O,1.600000X1.600000*%
%ADD22RoundRect,0.150000X0.825000X0.150000X-0.825000X0.150000X-0.825000X-0.150000X0.825000X-0.150000X0*%
%ADD23O,2.000000X0.800000*%
%ADD24O,0.800000X2.000000*%
%ADD25R,1.800000X1.000000*%
%ADD26R,1.500000X2.000000*%
%ADD27R,3.800000X2.000000*%
%ADD28RoundRect,0.125000X0.125000X-0.125000X0.125000X0.125000X-0.125000X0.125000X-0.125000X-0.125000X0*%
G04 APERTURE END LIST*
D10*
%TO.C,REF\u002A\u002A*%
X99060000Y-76200000D03*
%TD*%
D11*
%TO.C,OUT*%
X66675000Y-74930000D03*
%TD*%
D12*
%TO.C,J5*%
X54610000Y-25400000D03*
D13*
X52070000Y-25400000D03*
X49530000Y-25400000D03*
X46990000Y-25400000D03*
X44450000Y-25400000D03*
X41910000Y-25400000D03*
X39370000Y-25400000D03*
%TD*%
D14*
%TO.C,J2*%
X59690000Y-36070000D03*
D15*
X59690000Y-38070000D03*
X59690000Y-40070000D03*
X59690000Y-42070000D03*
X59690000Y-44070000D03*
X59690000Y-46070000D03*
X59690000Y-48070000D03*
X59690000Y-50070000D03*
X59690000Y-52070000D03*
X59690000Y-54070000D03*
%TD*%
D16*
%TO.C,Brd1*%
X44450000Y-31750000D03*
X46990000Y-31750000D03*
X49530000Y-31750000D03*
X52070000Y-31750000D03*
%TD*%
D10*
%TO.C,REF\u002A\u002A*%
X99060000Y-25400000D03*
%TD*%
%TO.C,REF\u002A\u002A*%
X22860000Y-76200000D03*
%TD*%
D17*
%TO.C,J6*%
X87311000Y-26035000D03*
X81661000Y-26035000D03*
%TD*%
D12*
%TO.C,J3*%
X29210000Y-54610000D03*
D13*
X26670000Y-54610000D03*
X29210000Y-52070000D03*
X26670000Y-52070000D03*
X29210000Y-49530000D03*
X26670000Y-49530000D03*
X29210000Y-46990000D03*
X26670000Y-46990000D03*
X29210000Y-44450000D03*
X26670000Y-44450000D03*
%TD*%
D12*
%TO.C,J7*%
X97200500Y-33020000D03*
D13*
X97200500Y-35560000D03*
X97200500Y-38100000D03*
X97200500Y-40640000D03*
X97200500Y-43180000D03*
X97200500Y-45720000D03*
X97200500Y-48260000D03*
X97200500Y-50800000D03*
X97200500Y-53340000D03*
X97200500Y-55880000D03*
X97200500Y-58420000D03*
X97200500Y-60960000D03*
%TD*%
D18*
%TO.C,J4*%
X28727400Y-33248600D03*
D19*
X28727400Y-36748600D03*
%TD*%
D14*
%TO.C,J1*%
X38100000Y-36100000D03*
D15*
X38100000Y-38100000D03*
X38100000Y-40100000D03*
X38100000Y-42100000D03*
X38100000Y-44100000D03*
X38100000Y-46100000D03*
X38100000Y-48100000D03*
X38100000Y-50100000D03*
X38100000Y-52100000D03*
X38100000Y-54100000D03*
%TD*%
D12*
%TO.C,J9*%
X67121500Y-60960000D03*
D13*
X67121500Y-58420000D03*
X67121500Y-55880000D03*
X67121500Y-53340000D03*
X67121500Y-50800000D03*
X67121500Y-48260000D03*
X67121500Y-45720000D03*
X67121500Y-43180000D03*
X67121500Y-40640000D03*
X67121500Y-38100000D03*
X67121500Y-35560000D03*
X67121500Y-33020000D03*
%TD*%
D10*
%TO.C,REF\u002A\u002A*%
X22860000Y-25400000D03*
%TD*%
D12*
%TO.C,J8*%
X68580000Y-63500000D03*
D13*
X71120000Y-63500000D03*
X73660000Y-63500000D03*
X76200000Y-63500000D03*
X78740000Y-63500000D03*
X81280000Y-63500000D03*
X83820000Y-63500000D03*
X86360000Y-63500000D03*
X88900000Y-63500000D03*
X91440000Y-63500000D03*
X93980000Y-63500000D03*
X96520000Y-63500000D03*
%TD*%
D20*
%TO.C,R1*%
X33020000Y-67310000D03*
D21*
X33020000Y-59690000D03*
%TD*%
D11*
%TO.C,8*%
X48260000Y-69215000D03*
%TD*%
D20*
%TO.C,R4*%
X36830000Y-67310000D03*
D21*
X36830000Y-59690000D03*
%TD*%
D20*
%TO.C,R3*%
X40640000Y-67310000D03*
D21*
X40640000Y-59690000D03*
%TD*%
D22*
%TO.C,U4*%
X57085000Y-70485000D03*
X57085000Y-71755000D03*
X57085000Y-73025000D03*
X57085000Y-74295000D03*
X52135000Y-74295000D03*
X52135000Y-73025000D03*
X52135000Y-71755000D03*
X52135000Y-70485000D03*
%TD*%
D20*
%TO.C,R2*%
X66548000Y-67691000D03*
D21*
X74168000Y-67691000D03*
%TD*%
D23*
%TO.C,U3*%
X89204000Y-36291000D03*
X89204000Y-37491000D03*
X89204000Y-38691000D03*
X89204000Y-39891000D03*
X89204000Y-41091000D03*
X89204000Y-42291000D03*
X89204000Y-43491000D03*
X89204000Y-44691000D03*
X89204000Y-45891000D03*
X89204000Y-47091000D03*
X89204000Y-48291000D03*
X89204000Y-49491000D03*
X76404000Y-49491000D03*
X76404000Y-48291000D03*
X76404000Y-47091000D03*
X76404000Y-45891000D03*
X76404000Y-44691000D03*
X76404000Y-43491000D03*
X76404000Y-42291000D03*
X76404000Y-41091000D03*
X76404000Y-39891000D03*
X76404000Y-38691000D03*
X76404000Y-37491000D03*
X76404000Y-36291000D03*
D24*
X79004000Y-32591000D03*
X80604000Y-32591000D03*
X82204000Y-32591000D03*
X79704000Y-51991000D03*
X85904000Y-51991000D03*
X78704000Y-51991000D03*
X81004000Y-51991000D03*
X82204000Y-51991000D03*
X83404000Y-51991000D03*
X84604000Y-51991000D03*
X86904000Y-51991000D03*
D25*
X88404000Y-51591000D03*
X88404000Y-32591000D03*
X77204000Y-51591000D03*
X77204000Y-32591000D03*
%TD*%
D11*
%TO.C,5*%
X45720000Y-74930000D03*
%TD*%
D20*
%TO.C,R5*%
X80772000Y-67691000D03*
D21*
X88392000Y-67691000D03*
%TD*%
D11*
%TO.C,1*%
X61595000Y-69850000D03*
%TD*%
%TO.C,7*%
X45720000Y-71120000D03*
%TD*%
%TO.C,3*%
X61595000Y-74930000D03*
%TD*%
D26*
%TO.C,U2*%
X49925000Y-53315000D03*
X47625000Y-53315000D03*
D27*
X47625000Y-47015000D03*
D26*
X45325000Y-53315000D03*
%TD*%
D11*
%TO.C,6*%
X48260000Y-73025000D03*
%TD*%
D28*
%TO.C,D1*%
X65405000Y-73025000D03*
X64505000Y-73025000D03*
X64505000Y-72125000D03*
X65405000Y-72125000D03*
%TD*%
M02*
