%TF.GenerationSoftware,KiCad,Pcbnew,7.0.9*%
%TF.CreationDate,2025-10-08T14:44:17+03:00*%
%TF.ProjectId,signalgenerator-rounded,7369676e-616c-4676-956e-657261746f72,rev?*%
%TF.SameCoordinates,Original*%
%TF.FileFunction,Drillmap*%
%TF.FilePolarity,Positive*%
%FSLAX45Y45*%
G04 Gerber Fmt 4.5, Leading zero omitted, Abs format (unit mm)*
G04 Created by KiCad (PCBNEW 7.0.9) date 2025-10-08 14:44:17*
%MOMM*%
%LPD*%
G01*
G04 APERTURE LIST*
%ADD10C,0.100000*%
%ADD11C,0.200000*%
%ADD12C,0.250000*%
G04 APERTURE END LIST*
D10*
X2286000Y-7874000D02*
X2540000Y-7874000D01*
X2286000Y-2286000D02*
X2540000Y-2286000D01*
X2286000Y-2286000D02*
G75*
G03*
X2032000Y-2540000I0J-254000D01*
G01*
X2032000Y-7620000D02*
G75*
G03*
X2286000Y-7874000I254000J0D01*
G01*
X10160000Y-7620000D02*
X10160000Y-2540000D01*
X2032000Y-2540000D02*
X2032000Y-7620000D01*
X9906000Y-2286000D02*
X2540000Y-2286000D01*
X10160000Y-2540000D02*
G75*
G03*
X9906000Y-2286000I-254000J0D01*
G01*
X2540000Y-7874000D02*
X9906000Y-7874000D01*
X9906000Y-7874000D02*
G75*
G03*
X10160000Y-7620000I0J254000D01*
G01*
D11*
D12*
X2161000Y-2415000D02*
X2411000Y-2665000D01*
X2411000Y-2415000D02*
X2161000Y-2665000D01*
X2161000Y-7495000D02*
X2411000Y-7745000D01*
X2411000Y-7495000D02*
X2161000Y-7745000D01*
X9781000Y-2415000D02*
X10031000Y-2665000D01*
X10031000Y-2415000D02*
X9781000Y-2665000D01*
X9781000Y-7495000D02*
X10031000Y-7745000D01*
X10031000Y-7495000D02*
X9781000Y-7745000D01*
D11*
X2287777Y-8190484D02*
X2287777Y-7990484D01*
X2287777Y-7990484D02*
X2335396Y-7990484D01*
X2335396Y-7990484D02*
X2363967Y-8000008D01*
X2363967Y-8000008D02*
X2383015Y-8019055D01*
X2383015Y-8019055D02*
X2392539Y-8038103D01*
X2392539Y-8038103D02*
X2402063Y-8076198D01*
X2402063Y-8076198D02*
X2402063Y-8104769D01*
X2402063Y-8104769D02*
X2392539Y-8142865D01*
X2392539Y-8142865D02*
X2383015Y-8161912D01*
X2383015Y-8161912D02*
X2363967Y-8180960D01*
X2363967Y-8180960D02*
X2335396Y-8190484D01*
X2335396Y-8190484D02*
X2287777Y-8190484D01*
X2487777Y-8190484D02*
X2487777Y-8057150D01*
X2487777Y-8095246D02*
X2497301Y-8076198D01*
X2497301Y-8076198D02*
X2506824Y-8066674D01*
X2506824Y-8066674D02*
X2525872Y-8057150D01*
X2525872Y-8057150D02*
X2544920Y-8057150D01*
X2611586Y-8190484D02*
X2611586Y-8057150D01*
X2611586Y-7990484D02*
X2602063Y-8000008D01*
X2602063Y-8000008D02*
X2611586Y-8009531D01*
X2611586Y-8009531D02*
X2621110Y-8000008D01*
X2621110Y-8000008D02*
X2611586Y-7990484D01*
X2611586Y-7990484D02*
X2611586Y-8009531D01*
X2735396Y-8190484D02*
X2716348Y-8180960D01*
X2716348Y-8180960D02*
X2706824Y-8161912D01*
X2706824Y-8161912D02*
X2706824Y-7990484D01*
X2840158Y-8190484D02*
X2821110Y-8180960D01*
X2821110Y-8180960D02*
X2811586Y-8161912D01*
X2811586Y-8161912D02*
X2811586Y-7990484D01*
X3068729Y-8190484D02*
X3068729Y-7990484D01*
X3068729Y-7990484D02*
X3135396Y-8133341D01*
X3135396Y-8133341D02*
X3202062Y-7990484D01*
X3202062Y-7990484D02*
X3202062Y-8190484D01*
X3383015Y-8190484D02*
X3383015Y-8085722D01*
X3383015Y-8085722D02*
X3373491Y-8066674D01*
X3373491Y-8066674D02*
X3354443Y-8057150D01*
X3354443Y-8057150D02*
X3316348Y-8057150D01*
X3316348Y-8057150D02*
X3297301Y-8066674D01*
X3383015Y-8180960D02*
X3363967Y-8190484D01*
X3363967Y-8190484D02*
X3316348Y-8190484D01*
X3316348Y-8190484D02*
X3297301Y-8180960D01*
X3297301Y-8180960D02*
X3287777Y-8161912D01*
X3287777Y-8161912D02*
X3287777Y-8142865D01*
X3287777Y-8142865D02*
X3297301Y-8123817D01*
X3297301Y-8123817D02*
X3316348Y-8114293D01*
X3316348Y-8114293D02*
X3363967Y-8114293D01*
X3363967Y-8114293D02*
X3383015Y-8104769D01*
X3478253Y-8057150D02*
X3478253Y-8257150D01*
X3478253Y-8066674D02*
X3497301Y-8057150D01*
X3497301Y-8057150D02*
X3535396Y-8057150D01*
X3535396Y-8057150D02*
X3554443Y-8066674D01*
X3554443Y-8066674D02*
X3563967Y-8076198D01*
X3563967Y-8076198D02*
X3573491Y-8095246D01*
X3573491Y-8095246D02*
X3573491Y-8152388D01*
X3573491Y-8152388D02*
X3563967Y-8171436D01*
X3563967Y-8171436D02*
X3554443Y-8180960D01*
X3554443Y-8180960D02*
X3535396Y-8190484D01*
X3535396Y-8190484D02*
X3497301Y-8190484D01*
X3497301Y-8190484D02*
X3478253Y-8180960D01*
X3659205Y-8171436D02*
X3668729Y-8180960D01*
X3668729Y-8180960D02*
X3659205Y-8190484D01*
X3659205Y-8190484D02*
X3649682Y-8180960D01*
X3649682Y-8180960D02*
X3659205Y-8171436D01*
X3659205Y-8171436D02*
X3659205Y-8190484D01*
X3659205Y-8066674D02*
X3668729Y-8076198D01*
X3668729Y-8076198D02*
X3659205Y-8085722D01*
X3659205Y-8085722D02*
X3649682Y-8076198D01*
X3649682Y-8076198D02*
X3659205Y-8066674D01*
X3659205Y-8066674D02*
X3659205Y-8085722D01*
X1827000Y-8419000D02*
X2027000Y-8619000D01*
X2027000Y-8419000D02*
X1827000Y-8619000D01*
X2278253Y-8429531D02*
X2287777Y-8420008D01*
X2287777Y-8420008D02*
X2306824Y-8410484D01*
X2306824Y-8410484D02*
X2354444Y-8410484D01*
X2354444Y-8410484D02*
X2373491Y-8420008D01*
X2373491Y-8420008D02*
X2383015Y-8429531D01*
X2383015Y-8429531D02*
X2392539Y-8448579D01*
X2392539Y-8448579D02*
X2392539Y-8467627D01*
X2392539Y-8467627D02*
X2383015Y-8496198D01*
X2383015Y-8496198D02*
X2268729Y-8610484D01*
X2268729Y-8610484D02*
X2392539Y-8610484D01*
X2478253Y-8591436D02*
X2487777Y-8600960D01*
X2487777Y-8600960D02*
X2478253Y-8610484D01*
X2478253Y-8610484D02*
X2468729Y-8600960D01*
X2468729Y-8600960D02*
X2478253Y-8591436D01*
X2478253Y-8591436D02*
X2478253Y-8610484D01*
X2668729Y-8410484D02*
X2573491Y-8410484D01*
X2573491Y-8410484D02*
X2563967Y-8505722D01*
X2563967Y-8505722D02*
X2573491Y-8496198D01*
X2573491Y-8496198D02*
X2592539Y-8486674D01*
X2592539Y-8486674D02*
X2640158Y-8486674D01*
X2640158Y-8486674D02*
X2659205Y-8496198D01*
X2659205Y-8496198D02*
X2668729Y-8505722D01*
X2668729Y-8505722D02*
X2678253Y-8524770D01*
X2678253Y-8524770D02*
X2678253Y-8572389D01*
X2678253Y-8572389D02*
X2668729Y-8591436D01*
X2668729Y-8591436D02*
X2659205Y-8600960D01*
X2659205Y-8600960D02*
X2640158Y-8610484D01*
X2640158Y-8610484D02*
X2592539Y-8610484D01*
X2592539Y-8610484D02*
X2573491Y-8600960D01*
X2573491Y-8600960D02*
X2563967Y-8591436D01*
X2802062Y-8410484D02*
X2821110Y-8410484D01*
X2821110Y-8410484D02*
X2840158Y-8420008D01*
X2840158Y-8420008D02*
X2849682Y-8429531D01*
X2849682Y-8429531D02*
X2859205Y-8448579D01*
X2859205Y-8448579D02*
X2868729Y-8486674D01*
X2868729Y-8486674D02*
X2868729Y-8534293D01*
X2868729Y-8534293D02*
X2859205Y-8572389D01*
X2859205Y-8572389D02*
X2849682Y-8591436D01*
X2849682Y-8591436D02*
X2840158Y-8600960D01*
X2840158Y-8600960D02*
X2821110Y-8610484D01*
X2821110Y-8610484D02*
X2802062Y-8610484D01*
X2802062Y-8610484D02*
X2783015Y-8600960D01*
X2783015Y-8600960D02*
X2773491Y-8591436D01*
X2773491Y-8591436D02*
X2763967Y-8572389D01*
X2763967Y-8572389D02*
X2754444Y-8534293D01*
X2754444Y-8534293D02*
X2754444Y-8486674D01*
X2754444Y-8486674D02*
X2763967Y-8448579D01*
X2763967Y-8448579D02*
X2773491Y-8429531D01*
X2773491Y-8429531D02*
X2783015Y-8420008D01*
X2783015Y-8420008D02*
X2802062Y-8410484D01*
X2992539Y-8410484D02*
X3011586Y-8410484D01*
X3011586Y-8410484D02*
X3030634Y-8420008D01*
X3030634Y-8420008D02*
X3040158Y-8429531D01*
X3040158Y-8429531D02*
X3049682Y-8448579D01*
X3049682Y-8448579D02*
X3059205Y-8486674D01*
X3059205Y-8486674D02*
X3059205Y-8534293D01*
X3059205Y-8534293D02*
X3049682Y-8572389D01*
X3049682Y-8572389D02*
X3040158Y-8591436D01*
X3040158Y-8591436D02*
X3030634Y-8600960D01*
X3030634Y-8600960D02*
X3011586Y-8610484D01*
X3011586Y-8610484D02*
X2992539Y-8610484D01*
X2992539Y-8610484D02*
X2973491Y-8600960D01*
X2973491Y-8600960D02*
X2963967Y-8591436D01*
X2963967Y-8591436D02*
X2954443Y-8572389D01*
X2954443Y-8572389D02*
X2944920Y-8534293D01*
X2944920Y-8534293D02*
X2944920Y-8486674D01*
X2944920Y-8486674D02*
X2954443Y-8448579D01*
X2954443Y-8448579D02*
X2963967Y-8429531D01*
X2963967Y-8429531D02*
X2973491Y-8420008D01*
X2973491Y-8420008D02*
X2992539Y-8410484D01*
X3144920Y-8610484D02*
X3144920Y-8477150D01*
X3144920Y-8496198D02*
X3154443Y-8486674D01*
X3154443Y-8486674D02*
X3173491Y-8477150D01*
X3173491Y-8477150D02*
X3202063Y-8477150D01*
X3202063Y-8477150D02*
X3221110Y-8486674D01*
X3221110Y-8486674D02*
X3230634Y-8505722D01*
X3230634Y-8505722D02*
X3230634Y-8610484D01*
X3230634Y-8505722D02*
X3240158Y-8486674D01*
X3240158Y-8486674D02*
X3259205Y-8477150D01*
X3259205Y-8477150D02*
X3287777Y-8477150D01*
X3287777Y-8477150D02*
X3306824Y-8486674D01*
X3306824Y-8486674D02*
X3316348Y-8505722D01*
X3316348Y-8505722D02*
X3316348Y-8610484D01*
X3411586Y-8610484D02*
X3411586Y-8477150D01*
X3411586Y-8496198D02*
X3421110Y-8486674D01*
X3421110Y-8486674D02*
X3440158Y-8477150D01*
X3440158Y-8477150D02*
X3468729Y-8477150D01*
X3468729Y-8477150D02*
X3487777Y-8486674D01*
X3487777Y-8486674D02*
X3497301Y-8505722D01*
X3497301Y-8505722D02*
X3497301Y-8610484D01*
X3497301Y-8505722D02*
X3506824Y-8486674D01*
X3506824Y-8486674D02*
X3525872Y-8477150D01*
X3525872Y-8477150D02*
X3554443Y-8477150D01*
X3554443Y-8477150D02*
X3573491Y-8486674D01*
X3573491Y-8486674D02*
X3583015Y-8505722D01*
X3583015Y-8505722D02*
X3583015Y-8610484D01*
X3973491Y-8400960D02*
X3802063Y-8658103D01*
X4230634Y-8410484D02*
X4249682Y-8410484D01*
X4249682Y-8410484D02*
X4268729Y-8420008D01*
X4268729Y-8420008D02*
X4278253Y-8429531D01*
X4278253Y-8429531D02*
X4287777Y-8448579D01*
X4287777Y-8448579D02*
X4297301Y-8486674D01*
X4297301Y-8486674D02*
X4297301Y-8534293D01*
X4297301Y-8534293D02*
X4287777Y-8572389D01*
X4287777Y-8572389D02*
X4278253Y-8591436D01*
X4278253Y-8591436D02*
X4268729Y-8600960D01*
X4268729Y-8600960D02*
X4249682Y-8610484D01*
X4249682Y-8610484D02*
X4230634Y-8610484D01*
X4230634Y-8610484D02*
X4211587Y-8600960D01*
X4211587Y-8600960D02*
X4202063Y-8591436D01*
X4202063Y-8591436D02*
X4192539Y-8572389D01*
X4192539Y-8572389D02*
X4183015Y-8534293D01*
X4183015Y-8534293D02*
X4183015Y-8486674D01*
X4183015Y-8486674D02*
X4192539Y-8448579D01*
X4192539Y-8448579D02*
X4202063Y-8429531D01*
X4202063Y-8429531D02*
X4211587Y-8420008D01*
X4211587Y-8420008D02*
X4230634Y-8410484D01*
X4383015Y-8591436D02*
X4392539Y-8600960D01*
X4392539Y-8600960D02*
X4383015Y-8610484D01*
X4383015Y-8610484D02*
X4373491Y-8600960D01*
X4373491Y-8600960D02*
X4383015Y-8591436D01*
X4383015Y-8591436D02*
X4383015Y-8610484D01*
X4516348Y-8410484D02*
X4535396Y-8410484D01*
X4535396Y-8410484D02*
X4554444Y-8420008D01*
X4554444Y-8420008D02*
X4563968Y-8429531D01*
X4563968Y-8429531D02*
X4573491Y-8448579D01*
X4573491Y-8448579D02*
X4583015Y-8486674D01*
X4583015Y-8486674D02*
X4583015Y-8534293D01*
X4583015Y-8534293D02*
X4573491Y-8572389D01*
X4573491Y-8572389D02*
X4563968Y-8591436D01*
X4563968Y-8591436D02*
X4554444Y-8600960D01*
X4554444Y-8600960D02*
X4535396Y-8610484D01*
X4535396Y-8610484D02*
X4516348Y-8610484D01*
X4516348Y-8610484D02*
X4497301Y-8600960D01*
X4497301Y-8600960D02*
X4487777Y-8591436D01*
X4487777Y-8591436D02*
X4478253Y-8572389D01*
X4478253Y-8572389D02*
X4468729Y-8534293D01*
X4468729Y-8534293D02*
X4468729Y-8486674D01*
X4468729Y-8486674D02*
X4478253Y-8448579D01*
X4478253Y-8448579D02*
X4487777Y-8429531D01*
X4487777Y-8429531D02*
X4497301Y-8420008D01*
X4497301Y-8420008D02*
X4516348Y-8410484D01*
X4678253Y-8610484D02*
X4716348Y-8610484D01*
X4716348Y-8610484D02*
X4735396Y-8600960D01*
X4735396Y-8600960D02*
X4744920Y-8591436D01*
X4744920Y-8591436D02*
X4763968Y-8562865D01*
X4763968Y-8562865D02*
X4773491Y-8524770D01*
X4773491Y-8524770D02*
X4773491Y-8448579D01*
X4773491Y-8448579D02*
X4763968Y-8429531D01*
X4763968Y-8429531D02*
X4754444Y-8420008D01*
X4754444Y-8420008D02*
X4735396Y-8410484D01*
X4735396Y-8410484D02*
X4697301Y-8410484D01*
X4697301Y-8410484D02*
X4678253Y-8420008D01*
X4678253Y-8420008D02*
X4668729Y-8429531D01*
X4668729Y-8429531D02*
X4659206Y-8448579D01*
X4659206Y-8448579D02*
X4659206Y-8496198D01*
X4659206Y-8496198D02*
X4668729Y-8515246D01*
X4668729Y-8515246D02*
X4678253Y-8524770D01*
X4678253Y-8524770D02*
X4697301Y-8534293D01*
X4697301Y-8534293D02*
X4735396Y-8534293D01*
X4735396Y-8534293D02*
X4754444Y-8524770D01*
X4754444Y-8524770D02*
X4763968Y-8515246D01*
X4763968Y-8515246D02*
X4773491Y-8496198D01*
X4887777Y-8496198D02*
X4868729Y-8486674D01*
X4868729Y-8486674D02*
X4859206Y-8477150D01*
X4859206Y-8477150D02*
X4849682Y-8458103D01*
X4849682Y-8458103D02*
X4849682Y-8448579D01*
X4849682Y-8448579D02*
X4859206Y-8429531D01*
X4859206Y-8429531D02*
X4868729Y-8420008D01*
X4868729Y-8420008D02*
X4887777Y-8410484D01*
X4887777Y-8410484D02*
X4925872Y-8410484D01*
X4925872Y-8410484D02*
X4944920Y-8420008D01*
X4944920Y-8420008D02*
X4954444Y-8429531D01*
X4954444Y-8429531D02*
X4963968Y-8448579D01*
X4963968Y-8448579D02*
X4963968Y-8458103D01*
X4963968Y-8458103D02*
X4954444Y-8477150D01*
X4954444Y-8477150D02*
X4944920Y-8486674D01*
X4944920Y-8486674D02*
X4925872Y-8496198D01*
X4925872Y-8496198D02*
X4887777Y-8496198D01*
X4887777Y-8496198D02*
X4868729Y-8505722D01*
X4868729Y-8505722D02*
X4859206Y-8515246D01*
X4859206Y-8515246D02*
X4849682Y-8534293D01*
X4849682Y-8534293D02*
X4849682Y-8572389D01*
X4849682Y-8572389D02*
X4859206Y-8591436D01*
X4859206Y-8591436D02*
X4868729Y-8600960D01*
X4868729Y-8600960D02*
X4887777Y-8610484D01*
X4887777Y-8610484D02*
X4925872Y-8610484D01*
X4925872Y-8610484D02*
X4944920Y-8600960D01*
X4944920Y-8600960D02*
X4954444Y-8591436D01*
X4954444Y-8591436D02*
X4963968Y-8572389D01*
X4963968Y-8572389D02*
X4963968Y-8534293D01*
X4963968Y-8534293D02*
X4954444Y-8515246D01*
X4954444Y-8515246D02*
X4944920Y-8505722D01*
X4944920Y-8505722D02*
X4925872Y-8496198D01*
X5135396Y-8477150D02*
X5135396Y-8610484D01*
X5087777Y-8400960D02*
X5040158Y-8543817D01*
X5040158Y-8543817D02*
X5163968Y-8543817D01*
X5230634Y-8410484D02*
X5230634Y-8448579D01*
X5306825Y-8410484D02*
X5306825Y-8448579D01*
X5602063Y-8686674D02*
X5592539Y-8677150D01*
X5592539Y-8677150D02*
X5573491Y-8648579D01*
X5573491Y-8648579D02*
X5563968Y-8629531D01*
X5563968Y-8629531D02*
X5554444Y-8600960D01*
X5554444Y-8600960D02*
X5544920Y-8553341D01*
X5544920Y-8553341D02*
X5544920Y-8515246D01*
X5544920Y-8515246D02*
X5554444Y-8467627D01*
X5554444Y-8467627D02*
X5563968Y-8439055D01*
X5563968Y-8439055D02*
X5573491Y-8420008D01*
X5573491Y-8420008D02*
X5592539Y-8391436D01*
X5592539Y-8391436D02*
X5602063Y-8381912D01*
X5763968Y-8477150D02*
X5763968Y-8610484D01*
X5716348Y-8400960D02*
X5668729Y-8543817D01*
X5668729Y-8543817D02*
X5792539Y-8543817D01*
X6021110Y-8610484D02*
X6021110Y-8410484D01*
X6106825Y-8610484D02*
X6106825Y-8505722D01*
X6106825Y-8505722D02*
X6097301Y-8486674D01*
X6097301Y-8486674D02*
X6078253Y-8477150D01*
X6078253Y-8477150D02*
X6049682Y-8477150D01*
X6049682Y-8477150D02*
X6030634Y-8486674D01*
X6030634Y-8486674D02*
X6021110Y-8496198D01*
X6230634Y-8610484D02*
X6211587Y-8600960D01*
X6211587Y-8600960D02*
X6202063Y-8591436D01*
X6202063Y-8591436D02*
X6192539Y-8572389D01*
X6192539Y-8572389D02*
X6192539Y-8515246D01*
X6192539Y-8515246D02*
X6202063Y-8496198D01*
X6202063Y-8496198D02*
X6211587Y-8486674D01*
X6211587Y-8486674D02*
X6230634Y-8477150D01*
X6230634Y-8477150D02*
X6259206Y-8477150D01*
X6259206Y-8477150D02*
X6278253Y-8486674D01*
X6278253Y-8486674D02*
X6287777Y-8496198D01*
X6287777Y-8496198D02*
X6297301Y-8515246D01*
X6297301Y-8515246D02*
X6297301Y-8572389D01*
X6297301Y-8572389D02*
X6287777Y-8591436D01*
X6287777Y-8591436D02*
X6278253Y-8600960D01*
X6278253Y-8600960D02*
X6259206Y-8610484D01*
X6259206Y-8610484D02*
X6230634Y-8610484D01*
X6411587Y-8610484D02*
X6392539Y-8600960D01*
X6392539Y-8600960D02*
X6383015Y-8581912D01*
X6383015Y-8581912D02*
X6383015Y-8410484D01*
X6563968Y-8600960D02*
X6544920Y-8610484D01*
X6544920Y-8610484D02*
X6506825Y-8610484D01*
X6506825Y-8610484D02*
X6487777Y-8600960D01*
X6487777Y-8600960D02*
X6478253Y-8581912D01*
X6478253Y-8581912D02*
X6478253Y-8505722D01*
X6478253Y-8505722D02*
X6487777Y-8486674D01*
X6487777Y-8486674D02*
X6506825Y-8477150D01*
X6506825Y-8477150D02*
X6544920Y-8477150D01*
X6544920Y-8477150D02*
X6563968Y-8486674D01*
X6563968Y-8486674D02*
X6573491Y-8505722D01*
X6573491Y-8505722D02*
X6573491Y-8524770D01*
X6573491Y-8524770D02*
X6478253Y-8543817D01*
X6649682Y-8600960D02*
X6668730Y-8610484D01*
X6668730Y-8610484D02*
X6706825Y-8610484D01*
X6706825Y-8610484D02*
X6725872Y-8600960D01*
X6725872Y-8600960D02*
X6735396Y-8581912D01*
X6735396Y-8581912D02*
X6735396Y-8572389D01*
X6735396Y-8572389D02*
X6725872Y-8553341D01*
X6725872Y-8553341D02*
X6706825Y-8543817D01*
X6706825Y-8543817D02*
X6678253Y-8543817D01*
X6678253Y-8543817D02*
X6659206Y-8534293D01*
X6659206Y-8534293D02*
X6649682Y-8515246D01*
X6649682Y-8515246D02*
X6649682Y-8505722D01*
X6649682Y-8505722D02*
X6659206Y-8486674D01*
X6659206Y-8486674D02*
X6678253Y-8477150D01*
X6678253Y-8477150D02*
X6706825Y-8477150D01*
X6706825Y-8477150D02*
X6725872Y-8486674D01*
X6802063Y-8686674D02*
X6811587Y-8677150D01*
X6811587Y-8677150D02*
X6830634Y-8648579D01*
X6830634Y-8648579D02*
X6840158Y-8629531D01*
X6840158Y-8629531D02*
X6849682Y-8600960D01*
X6849682Y-8600960D02*
X6859206Y-8553341D01*
X6859206Y-8553341D02*
X6859206Y-8515246D01*
X6859206Y-8515246D02*
X6849682Y-8467627D01*
X6849682Y-8467627D02*
X6840158Y-8439055D01*
X6840158Y-8439055D02*
X6830634Y-8420008D01*
X6830634Y-8420008D02*
X6811587Y-8391436D01*
X6811587Y-8391436D02*
X6802063Y-8381912D01*
X7163968Y-8686674D02*
X7154444Y-8677150D01*
X7154444Y-8677150D02*
X7135396Y-8648579D01*
X7135396Y-8648579D02*
X7125872Y-8629531D01*
X7125872Y-8629531D02*
X7116349Y-8600960D01*
X7116349Y-8600960D02*
X7106825Y-8553341D01*
X7106825Y-8553341D02*
X7106825Y-8515246D01*
X7106825Y-8515246D02*
X7116349Y-8467627D01*
X7116349Y-8467627D02*
X7125872Y-8439055D01*
X7125872Y-8439055D02*
X7135396Y-8420008D01*
X7135396Y-8420008D02*
X7154444Y-8391436D01*
X7154444Y-8391436D02*
X7163968Y-8381912D01*
X7240158Y-8477150D02*
X7240158Y-8610484D01*
X7240158Y-8496198D02*
X7249682Y-8486674D01*
X7249682Y-8486674D02*
X7268730Y-8477150D01*
X7268730Y-8477150D02*
X7297301Y-8477150D01*
X7297301Y-8477150D02*
X7316349Y-8486674D01*
X7316349Y-8486674D02*
X7325872Y-8505722D01*
X7325872Y-8505722D02*
X7325872Y-8610484D01*
X7449682Y-8610484D02*
X7430634Y-8600960D01*
X7430634Y-8600960D02*
X7421111Y-8591436D01*
X7421111Y-8591436D02*
X7411587Y-8572389D01*
X7411587Y-8572389D02*
X7411587Y-8515246D01*
X7411587Y-8515246D02*
X7421111Y-8496198D01*
X7421111Y-8496198D02*
X7430634Y-8486674D01*
X7430634Y-8486674D02*
X7449682Y-8477150D01*
X7449682Y-8477150D02*
X7478253Y-8477150D01*
X7478253Y-8477150D02*
X7497301Y-8486674D01*
X7497301Y-8486674D02*
X7506825Y-8496198D01*
X7506825Y-8496198D02*
X7516349Y-8515246D01*
X7516349Y-8515246D02*
X7516349Y-8572389D01*
X7516349Y-8572389D02*
X7506825Y-8591436D01*
X7506825Y-8591436D02*
X7497301Y-8600960D01*
X7497301Y-8600960D02*
X7478253Y-8610484D01*
X7478253Y-8610484D02*
X7449682Y-8610484D01*
X7573492Y-8477150D02*
X7649682Y-8477150D01*
X7602063Y-8410484D02*
X7602063Y-8581912D01*
X7602063Y-8581912D02*
X7611587Y-8600960D01*
X7611587Y-8600960D02*
X7630634Y-8610484D01*
X7630634Y-8610484D02*
X7649682Y-8610484D01*
X7868730Y-8477150D02*
X7868730Y-8677150D01*
X7868730Y-8486674D02*
X7887777Y-8477150D01*
X7887777Y-8477150D02*
X7925873Y-8477150D01*
X7925873Y-8477150D02*
X7944920Y-8486674D01*
X7944920Y-8486674D02*
X7954444Y-8496198D01*
X7954444Y-8496198D02*
X7963968Y-8515246D01*
X7963968Y-8515246D02*
X7963968Y-8572389D01*
X7963968Y-8572389D02*
X7954444Y-8591436D01*
X7954444Y-8591436D02*
X7944920Y-8600960D01*
X7944920Y-8600960D02*
X7925873Y-8610484D01*
X7925873Y-8610484D02*
X7887777Y-8610484D01*
X7887777Y-8610484D02*
X7868730Y-8600960D01*
X8078253Y-8610484D02*
X8059206Y-8600960D01*
X8059206Y-8600960D02*
X8049682Y-8581912D01*
X8049682Y-8581912D02*
X8049682Y-8410484D01*
X8240158Y-8610484D02*
X8240158Y-8505722D01*
X8240158Y-8505722D02*
X8230634Y-8486674D01*
X8230634Y-8486674D02*
X8211587Y-8477150D01*
X8211587Y-8477150D02*
X8173492Y-8477150D01*
X8173492Y-8477150D02*
X8154444Y-8486674D01*
X8240158Y-8600960D02*
X8221111Y-8610484D01*
X8221111Y-8610484D02*
X8173492Y-8610484D01*
X8173492Y-8610484D02*
X8154444Y-8600960D01*
X8154444Y-8600960D02*
X8144920Y-8581912D01*
X8144920Y-8581912D02*
X8144920Y-8562865D01*
X8144920Y-8562865D02*
X8154444Y-8543817D01*
X8154444Y-8543817D02*
X8173492Y-8534293D01*
X8173492Y-8534293D02*
X8221111Y-8534293D01*
X8221111Y-8534293D02*
X8240158Y-8524770D01*
X8306825Y-8477150D02*
X8383015Y-8477150D01*
X8335396Y-8410484D02*
X8335396Y-8581912D01*
X8335396Y-8581912D02*
X8344920Y-8600960D01*
X8344920Y-8600960D02*
X8363968Y-8610484D01*
X8363968Y-8610484D02*
X8383015Y-8610484D01*
X8525873Y-8600960D02*
X8506825Y-8610484D01*
X8506825Y-8610484D02*
X8468730Y-8610484D01*
X8468730Y-8610484D02*
X8449682Y-8600960D01*
X8449682Y-8600960D02*
X8440158Y-8581912D01*
X8440158Y-8581912D02*
X8440158Y-8505722D01*
X8440158Y-8505722D02*
X8449682Y-8486674D01*
X8449682Y-8486674D02*
X8468730Y-8477150D01*
X8468730Y-8477150D02*
X8506825Y-8477150D01*
X8506825Y-8477150D02*
X8525873Y-8486674D01*
X8525873Y-8486674D02*
X8535396Y-8505722D01*
X8535396Y-8505722D02*
X8535396Y-8524770D01*
X8535396Y-8524770D02*
X8440158Y-8543817D01*
X8706825Y-8610484D02*
X8706825Y-8410484D01*
X8706825Y-8600960D02*
X8687777Y-8610484D01*
X8687777Y-8610484D02*
X8649682Y-8610484D01*
X8649682Y-8610484D02*
X8630635Y-8600960D01*
X8630635Y-8600960D02*
X8621111Y-8591436D01*
X8621111Y-8591436D02*
X8611587Y-8572389D01*
X8611587Y-8572389D02*
X8611587Y-8515246D01*
X8611587Y-8515246D02*
X8621111Y-8496198D01*
X8621111Y-8496198D02*
X8630635Y-8486674D01*
X8630635Y-8486674D02*
X8649682Y-8477150D01*
X8649682Y-8477150D02*
X8687777Y-8477150D01*
X8687777Y-8477150D02*
X8706825Y-8486674D01*
X8783016Y-8686674D02*
X8792539Y-8677150D01*
X8792539Y-8677150D02*
X8811587Y-8648579D01*
X8811587Y-8648579D02*
X8821111Y-8629531D01*
X8821111Y-8629531D02*
X8830635Y-8600960D01*
X8830635Y-8600960D02*
X8840158Y-8553341D01*
X8840158Y-8553341D02*
X8840158Y-8515246D01*
X8840158Y-8515246D02*
X8830635Y-8467627D01*
X8830635Y-8467627D02*
X8821111Y-8439055D01*
X8821111Y-8439055D02*
X8811587Y-8420008D01*
X8811587Y-8420008D02*
X8792539Y-8391436D01*
X8792539Y-8391436D02*
X8783016Y-8381912D01*
M02*
