%TF.GenerationSoftware,KiCad,Pcbnew,7.0.9*%
%TF.CreationDate,2025-10-08T14:44:38+03:00*%
%TF.ProjectId,signalgenerator-rounded,7369676e-616c-4676-956e-657261746f72,rev?*%
%TF.SameCoordinates,Original*%
%TF.FileFunction,Copper,L2,Bot*%
%TF.FilePolarity,Positive*%
%FSLAX46Y46*%
G04 Gerber Fmt 4.6, Leading zero omitted, Abs format (unit mm)*
G04 Created by KiCad (PCBNEW 7.0.9) date 2025-10-08 14:44:38*
%MOMM*%
%LPD*%
G01*
G04 APERTURE LIST*
G04 Aperture macros list*
%AMRoundRect*
0 Rectangle with rounded corners*
0 $1 Rounding radius*
0 $2 $3 $4 $5 $6 $7 $8 $9 X,Y pos of 4 corners*
0 Add a 4 corners polygon primitive as box body*
4,1,4,$2,$3,$4,$5,$6,$7,$8,$9,$2,$3,0*
0 Add four circle primitives for the rounded corners*
1,1,$1+$1,$2,$3*
1,1,$1+$1,$4,$5*
1,1,$1+$1,$6,$7*
1,1,$1+$1,$8,$9*
0 Add four rect primitives between the rounded corners*
20,1,$1+$1,$2,$3,$4,$5,0*
20,1,$1+$1,$4,$5,$6,$7,0*
20,1,$1+$1,$6,$7,$8,$9,0*
20,1,$1+$1,$8,$9,$2,$3,0*%
G04 Aperture macros list end*
%TA.AperFunction,SMDPad,CuDef*%
%ADD10C,2.000000*%
%TD*%
%TA.AperFunction,ComponentPad*%
%ADD11R,1.700000X1.700000*%
%TD*%
%TA.AperFunction,ComponentPad*%
%ADD12O,1.700000X1.700000*%
%TD*%
%TA.AperFunction,ComponentPad*%
%ADD13R,1.350000X1.350000*%
%TD*%
%TA.AperFunction,ComponentPad*%
%ADD14O,1.350000X1.350000*%
%TD*%
%TA.AperFunction,ComponentPad*%
%ADD15O,1.600000X2.000000*%
%TD*%
%TA.AperFunction,SMDPad,CuDef*%
%ADD16R,1.350000X4.200000*%
%TD*%
%TA.AperFunction,ComponentPad*%
%ADD17RoundRect,0.250000X-1.050000X0.750000X-1.050000X-0.750000X1.050000X-0.750000X1.050000X0.750000X0*%
%TD*%
%TA.AperFunction,ComponentPad*%
%ADD18O,2.600000X2.000000*%
%TD*%
%TA.AperFunction,ComponentPad*%
%ADD19C,1.600000*%
%TD*%
%TA.AperFunction,ComponentPad*%
%ADD20O,1.600000X1.600000*%
%TD*%
%TA.AperFunction,SMDPad,CuDef*%
%ADD21RoundRect,0.150000X0.825000X0.150000X-0.825000X0.150000X-0.825000X-0.150000X0.825000X-0.150000X0*%
%TD*%
%TA.AperFunction,SMDPad,CuDef*%
%ADD22O,2.000000X0.800000*%
%TD*%
%TA.AperFunction,SMDPad,CuDef*%
%ADD23O,0.800000X2.000000*%
%TD*%
%TA.AperFunction,SMDPad,CuDef*%
%ADD24R,1.800000X1.000000*%
%TD*%
%TA.AperFunction,SMDPad,CuDef*%
%ADD25R,1.500000X2.000000*%
%TD*%
%TA.AperFunction,SMDPad,CuDef*%
%ADD26R,3.800000X2.000000*%
%TD*%
%TA.AperFunction,SMDPad,CuDef*%
%ADD27RoundRect,0.125000X0.125000X-0.125000X0.125000X0.125000X-0.125000X0.125000X-0.125000X-0.125000X0*%
%TD*%
%TA.AperFunction,ViaPad*%
%ADD28C,0.800000*%
%TD*%
%TA.AperFunction,Conductor*%
%ADD29C,0.250000*%
%TD*%
%TA.AperFunction,Conductor*%
%ADD30C,0.500000*%
%TD*%
%TA.AperFunction,Conductor*%
%ADD31C,1.000000*%
%TD*%
G04 APERTURE END LIST*
D10*
%TO.P,OUT,1,1*%
%TO.N,Net-(D1-DOUT)*%
X66675000Y-74930000D03*
%TD*%
D11*
%TO.P,J5,1,Pin_1*%
%TO.N,+3.3V*%
X54610000Y-25400000D03*
D12*
%TO.P,J5,2,Pin_2*%
%TO.N,GND*%
X52070000Y-25400000D03*
%TO.P,J5,3,Pin_3*%
%TO.N,/SDA*%
X49530000Y-25400000D03*
%TO.P,J5,4,Pin_4*%
%TO.N,/SCL*%
X46990000Y-25400000D03*
%TO.P,J5,5,Pin_5*%
%TO.N,unconnected-(J5-Pin_5-Pad5)*%
X44450000Y-25400000D03*
%TO.P,J5,6,Pin_6*%
%TO.N,unconnected-(J5-Pin_6-Pad6)*%
X41910000Y-25400000D03*
%TO.P,J5,7,Pin_7*%
%TO.N,unconnected-(J5-Pin_7-Pad7)*%
X39370000Y-25400000D03*
%TD*%
D13*
%TO.P,J2,1,Pin_1*%
%TO.N,Net-(J2-Pin_1)*%
X59690000Y-36070000D03*
D14*
%TO.P,J2,2,Pin_2*%
%TO.N,Net-(J2-Pin_2)*%
X59690000Y-38070000D03*
%TO.P,J2,3,Pin_3*%
%TO.N,/SWDIO*%
X59690000Y-40070000D03*
%TO.P,J2,4,Pin_4*%
%TO.N,/UP*%
X59690000Y-42070000D03*
%TO.P,J2,5,Pin_5*%
%TO.N,/RIGHT*%
X59690000Y-44070000D03*
%TO.P,J2,6,Pin_6*%
%TO.N,/LEFT*%
X59690000Y-46070000D03*
%TO.P,J2,7,Pin_7*%
%TO.N,/DOWN*%
X59690000Y-48070000D03*
%TO.P,J2,8,Pin_8*%
%TO.N,/ENTER*%
X59690000Y-50070000D03*
%TO.P,J2,9,Pin_9*%
%TO.N,/SCL*%
X59690000Y-52070000D03*
%TO.P,J2,10,Pin_10*%
%TO.N,/SDA*%
X59690000Y-54070000D03*
%TD*%
D15*
%TO.P,Brd1,1,GND*%
%TO.N,GND*%
X44450000Y-31750000D03*
%TO.P,Brd1,2,VCC*%
%TO.N,+3.3V*%
X46990000Y-31750000D03*
%TO.P,Brd1,3,SCL*%
%TO.N,/SCL*%
X49530000Y-31750000D03*
%TO.P,Brd1,4,SDA*%
%TO.N,/SDA*%
X52070000Y-31750000D03*
%TD*%
D16*
%TO.P,J6,2,Ext*%
%TO.N,GND*%
X87311000Y-26035000D03*
X81661000Y-26035000D03*
%TD*%
D11*
%TO.P,J3,1,Pin_1*%
%TO.N,/RX*%
X29210000Y-54610000D03*
D12*
%TO.P,J3,2,Pin_2*%
%TO.N,/SWCLK*%
X26670000Y-54610000D03*
%TO.P,J3,3,Pin_3*%
%TO.N,/TX*%
X29210000Y-52070000D03*
%TO.P,J3,4,Pin_4*%
%TO.N,/SWDIO*%
X26670000Y-52070000D03*
%TO.P,J3,5,Pin_5*%
%TO.N,/TDO*%
X29210000Y-49530000D03*
%TO.P,J3,6,Pin_6*%
%TO.N,GND*%
X26670000Y-49530000D03*
%TO.P,J3,7,Pin_7*%
%TO.N,/TDI*%
X29210000Y-46990000D03*
%TO.P,J3,8,Pin_8*%
%TO.N,+3.3V*%
X26670000Y-46990000D03*
%TO.P,J3,9,Pin_9*%
%TO.N,/RST*%
X29210000Y-44450000D03*
%TO.P,J3,10,Pin_10*%
%TO.N,+5V*%
X26670000Y-44450000D03*
%TD*%
D11*
%TO.P,J7,1,Pin_1*%
%TO.N,+3.3V*%
X97200500Y-33020000D03*
D12*
%TO.P,J7,2,Pin_2*%
%TO.N,J7_11*%
X97200500Y-35560000D03*
%TO.P,J7,3,Pin_3*%
%TO.N,J7_10*%
X97200500Y-38100000D03*
%TO.P,J7,4,Pin_4*%
%TO.N,J7_9*%
X97200500Y-40640000D03*
%TO.P,J7,5,Pin_5*%
%TO.N,J7_8*%
X97200500Y-43180000D03*
%TO.P,J7,6,Pin_6*%
%TO.N,J7_7*%
X97200500Y-45720000D03*
%TO.P,J7,7,Pin_7*%
%TO.N,J7_6*%
X97200500Y-48260000D03*
%TO.P,J7,8,Pin_8*%
%TO.N,J7_5*%
X97200500Y-50800000D03*
%TO.P,J7,9,Pin_9*%
%TO.N,J7_4*%
X97200500Y-53340000D03*
%TO.P,J7,10,Pin_10*%
%TO.N,J7_3*%
X97200500Y-55880000D03*
%TO.P,J7,11,Pin_11*%
%TO.N,J7_2*%
X97200500Y-58420000D03*
%TO.P,J7,12,Pin_12*%
%TO.N,GND*%
X97200500Y-60960000D03*
%TD*%
D17*
%TO.P,J4,1,Pin_1*%
%TO.N,GND*%
X28727400Y-33248600D03*
D18*
%TO.P,J4,2,Pin_2*%
%TO.N,+5V*%
X28727400Y-36748600D03*
%TD*%
D13*
%TO.P,J1,1,Pin_1*%
%TO.N,Net-(J1-Pin_1)*%
X38100000Y-36100000D03*
D14*
%TO.P,J1,2,Pin_2*%
%TO.N,/RX*%
X38100000Y-38100000D03*
%TO.P,J1,3,Pin_3*%
%TO.N,/TX*%
X38100000Y-40100000D03*
%TO.P,J1,4,Pin_4*%
%TO.N,/RST*%
X38100000Y-42100000D03*
%TO.P,J1,5,Pin_5*%
%TO.N,Net-(J1-Pin_5)*%
X38100000Y-44100000D03*
%TO.P,J1,6,Pin_6*%
%TO.N,Net-(J1-Pin_6)*%
X38100000Y-46100000D03*
%TO.P,J1,7,Pin_7*%
%TO.N,GND*%
X38100000Y-48100000D03*
%TO.P,J1,8,Pin_8*%
%TO.N,Net-(J1-Pin_8)*%
X38100000Y-50100000D03*
%TO.P,J1,9,Pin_9*%
%TO.N,+3.3V*%
X38100000Y-52100000D03*
%TO.P,J1,10,Pin_10*%
%TO.N,Net-(J1-Pin_10)*%
X38100000Y-54100000D03*
%TD*%
D11*
%TO.P,J9,1,Pin_1*%
%TO.N,J9_1*%
X67121500Y-60960000D03*
D12*
%TO.P,J9,2,Pin_2*%
%TO.N,J9_2*%
X67121500Y-58420000D03*
%TO.P,J9,3,Pin_3*%
%TO.N,J9_3*%
X67121500Y-55880000D03*
%TO.P,J9,4,Pin_4*%
%TO.N,J9_4*%
X67121500Y-53340000D03*
%TO.P,J9,5,Pin_5*%
%TO.N,J9_5*%
X67121500Y-50800000D03*
%TO.P,J9,6,Pin_6*%
%TO.N,J9_6*%
X67121500Y-48260000D03*
%TO.P,J9,7,Pin_7*%
%TO.N,J9_7*%
X67121500Y-45720000D03*
%TO.P,J9,8,Pin_8*%
%TO.N,J9_8*%
X67121500Y-43180000D03*
%TO.P,J9,9,Pin_9*%
%TO.N,J9_9*%
X67121500Y-40640000D03*
%TO.P,J9,10,Pin_10*%
%TO.N,J9_10*%
X67121500Y-38100000D03*
%TO.P,J9,11,Pin_11*%
%TO.N,J9_11*%
X67121500Y-35560000D03*
%TO.P,J9,12,Pin_12*%
%TO.N,GND*%
X67121500Y-33020000D03*
%TD*%
D11*
%TO.P,J8,1,Pin_1*%
%TO.N,J8_1*%
X68580000Y-63500000D03*
D12*
%TO.P,J8,2,Pin_2*%
%TO.N,J8_2*%
X71120000Y-63500000D03*
%TO.P,J8,3,Pin_3*%
%TO.N,J8_3*%
X73660000Y-63500000D03*
%TO.P,J8,4,Pin_4*%
%TO.N,J8_4*%
X76200000Y-63500000D03*
%TO.P,J8,5,Pin_5*%
%TO.N,J8_5*%
X78740000Y-63500000D03*
%TO.P,J8,6,Pin_6*%
%TO.N,J8_6*%
X81280000Y-63500000D03*
%TO.P,J8,7,Pin_7*%
%TO.N,J8_7*%
X83820000Y-63500000D03*
%TO.P,J8,8,Pin_8*%
%TO.N,J8_8*%
X86360000Y-63500000D03*
%TO.P,J8,9,Pin_9*%
%TO.N,J8_9*%
X88900000Y-63500000D03*
%TO.P,J8,10,Pin_10*%
%TO.N,J8_10*%
X91440000Y-63500000D03*
%TO.P,J8,11,Pin_11*%
%TO.N,J8_11*%
X93980000Y-63500000D03*
%TO.P,J8,12,Pin_12*%
%TO.N,J8_12*%
X96520000Y-63500000D03*
%TD*%
D19*
%TO.P,R1,1*%
%TO.N,/UP*%
X33020000Y-67310000D03*
D20*
%TO.P,R1,2*%
%TO.N,GND*%
X33020000Y-59690000D03*
%TD*%
D10*
%TO.P,8,1,1*%
%TO.N,/SWDIO*%
X48260000Y-69215000D03*
%TD*%
D19*
%TO.P,R4,1*%
%TO.N,/RIGHT*%
X36830000Y-67310000D03*
D20*
%TO.P,R4,2*%
%TO.N,GND*%
X36830000Y-59690000D03*
%TD*%
D19*
%TO.P,R3,1*%
%TO.N,/LEFT*%
X40640000Y-67310000D03*
D20*
%TO.P,R3,2*%
%TO.N,GND*%
X40640000Y-59690000D03*
%TD*%
D21*
%TO.P,U4,1,PA1/PD6*%
%TO.N,Net-(D1-DIN)*%
X57085000Y-70485000D03*
%TO.P,U4,2,VSS*%
%TO.N,GND*%
X57085000Y-71755000D03*
%TO.P,U4,3,PA2*%
%TO.N,Net-(U4-PA2)*%
X57085000Y-73025000D03*
%TO.P,U4,4,VDD*%
%TO.N,+3.3V*%
X57085000Y-74295000D03*
%TO.P,U4,5,PC1*%
%TO.N,Net-(U4-PC1)*%
X52135000Y-74295000D03*
%TO.P,U4,6,PC2*%
%TO.N,Net-(U4-PC2)*%
X52135000Y-73025000D03*
%TO.P,U4,7,PC4*%
%TO.N,Net-(U4-PC4)*%
X52135000Y-71755000D03*
%TO.P,U4,8,PD1/PD4/PD5*%
%TO.N,/SWDIO*%
X52135000Y-70485000D03*
%TD*%
D19*
%TO.P,R2,1*%
%TO.N,/DOWN*%
X66548000Y-67691000D03*
D20*
%TO.P,R2,2*%
%TO.N,GND*%
X74168000Y-67691000D03*
%TD*%
D22*
%TO.P,U3,1,GND*%
%TO.N,GND*%
X89204000Y-36291000D03*
%TO.P,U3,2,SPI_MOSI*%
%TO.N,J7_11*%
X89204000Y-37491000D03*
%TO.P,U3,3,GPIO6*%
%TO.N,J7_10*%
X89204000Y-38691000D03*
%TO.P,U3,4,GPIO7*%
%TO.N,J7_9*%
X89204000Y-39891000D03*
%TO.P,U3,5,RESET*%
%TO.N,J7_8*%
X89204000Y-41091000D03*
%TO.P,U3,6,SPI_CLK*%
%TO.N,J7_7*%
X89204000Y-42291000D03*
%TO.P,U3,7,PCM_CLK*%
%TO.N,J7_6*%
X89204000Y-43491000D03*
%TO.P,U3,8,PCM_SYNC*%
%TO.N,J7_5*%
X89204000Y-44691000D03*
%TO.P,U3,9,PCM_IN*%
%TO.N,J7_4*%
X89204000Y-45891000D03*
%TO.P,U3,10,PCM_OUT*%
%TO.N,J7_3*%
X89204000Y-47091000D03*
%TO.P,U3,11,VDD*%
%TO.N,+3.3V*%
X89204000Y-48291000D03*
%TO.P,U3,12,GND*%
%TO.N,GND*%
X89204000Y-49491000D03*
%TO.P,U3,13,UART_RX*%
%TO.N,J9_1*%
X76404000Y-49491000D03*
%TO.P,U3,14,UART_TX*%
%TO.N,J9_2*%
X76404000Y-48291000D03*
%TO.P,U3,15,UART_RTS*%
%TO.N,J9_3*%
X76404000Y-47091000D03*
%TO.P,U3,16,UART_CTS*%
%TO.N,J9_4*%
X76404000Y-45891000D03*
%TO.P,U3,17,USB_D+*%
%TO.N,J9_5*%
X76404000Y-44691000D03*
%TO.P,U3,18,USB_D-*%
%TO.N,J9_6*%
X76404000Y-43491000D03*
%TO.P,U3,19,GPIO2*%
%TO.N,J9_7*%
X76404000Y-42291000D03*
%TO.P,U3,20,GPIO3*%
%TO.N,J9_8*%
X76404000Y-41091000D03*
%TO.P,U3,21,GPIO5*%
%TO.N,J9_9*%
X76404000Y-39891000D03*
%TO.P,U3,22,GPIO4*%
%TO.N,J9_10*%
X76404000Y-38691000D03*
%TO.P,U3,23,SPI_CSB*%
%TO.N,J9_11*%
X76404000Y-37491000D03*
%TO.P,U3,24,SPI_MISO*%
%TO.N,J9_12*%
X76404000Y-36291000D03*
D23*
%TO.P,U3,25,GND*%
%TO.N,GND*%
X79004000Y-32591000D03*
%TO.P,U3,26,RF_ANT*%
%TO.N,Net-(J6-In)*%
X80604000Y-32591000D03*
%TO.P,U3,27,GND*%
%TO.N,GND*%
X82204000Y-32591000D03*
%TO.P,U3,28,GND*%
X79704000Y-51991000D03*
%TO.P,U3,29,GND*%
X85904000Y-51991000D03*
%TO.P,U3,30,AIO0*%
%TO.N,J8_3*%
X78704000Y-51991000D03*
%TO.P,U3,31,GPIO8*%
%TO.N,J8_5*%
X81004000Y-51991000D03*
%TO.P,U3,32,GPIO9*%
%TO.N,J8_6*%
X82204000Y-51991000D03*
%TO.P,U3,33,GPIO10*%
%TO.N,J8_7*%
X83404000Y-51991000D03*
%TO.P,U3,34,GPIO11*%
%TO.N,J8_8*%
X84604000Y-51991000D03*
%TO.P,U3,35,AIO1*%
%TO.N,J8_10*%
X86904000Y-51991000D03*
D24*
%TO.P,U3,36,SHIELD*%
%TO.N,unconnected-(U3-SHIELD-Pad36)*%
X88404000Y-51591000D03*
X88404000Y-32591000D03*
X77204000Y-51591000D03*
X77204000Y-32591000D03*
%TD*%
D10*
%TO.P,5,1,1*%
%TO.N,Net-(U4-PC1)*%
X45720000Y-74930000D03*
%TD*%
D19*
%TO.P,R5,1*%
%TO.N,/ENTER*%
X80772000Y-67691000D03*
D20*
%TO.P,R5,2*%
%TO.N,GND*%
X88392000Y-67691000D03*
%TD*%
D10*
%TO.P,1,1,1*%
%TO.N,Net-(D1-DIN)*%
X61595000Y-69850000D03*
%TD*%
%TO.P,7,1,1*%
%TO.N,Net-(U4-PC4)*%
X45720000Y-71120000D03*
%TD*%
%TO.P,3,1,1*%
%TO.N,Net-(U4-PA2)*%
X61595000Y-74930000D03*
%TD*%
D25*
%TO.P,U2,1,GND*%
%TO.N,GND*%
X49925000Y-53315000D03*
%TO.P,U2,2,VO*%
%TO.N,+3.3V*%
X47625000Y-53315000D03*
D26*
X47625000Y-47015000D03*
D25*
%TO.P,U2,3,VI*%
%TO.N,+5V*%
X45325000Y-53315000D03*
%TD*%
D10*
%TO.P,6,1,1*%
%TO.N,Net-(U4-PC2)*%
X48260000Y-73025000D03*
%TD*%
D27*
%TO.P,D1,1,DOUT*%
%TO.N,Net-(D1-DOUT)*%
X65405000Y-73025000D03*
%TO.P,D1,2,VSS*%
%TO.N,GND*%
X64505000Y-73025000D03*
%TO.P,D1,3,DIN*%
%TO.N,Net-(D1-DIN)*%
X64505000Y-72125000D03*
%TO.P,D1,4,VDD*%
%TO.N,+3.3V*%
X65405000Y-72125000D03*
%TD*%
D28*
%TO.N,GND*%
X79375000Y-29210000D03*
X79375000Y-46990000D03*
%TO.N,/RX*%
X34290000Y-54610000D03*
X35560000Y-38100000D03*
X35560000Y-38100000D03*
%TO.N,/TX*%
X33020000Y-52070000D03*
X33020000Y-43180000D03*
%TO.N,Net-(J6-In)*%
X84455000Y-30480000D03*
%TD*%
D29*
%TO.N,Net-(D1-DIN)*%
X60510987Y-70484994D02*
G75*
G03*
X61277500Y-70167500I13J1083994D01*
G01*
X61912500Y-70167500D02*
G75*
G03*
X61277500Y-70167500I-317500J-317499D01*
G01*
X63645496Y-71900490D02*
G75*
G03*
X64187500Y-72125000I542004J541990D01*
G01*
%TO.N,Net-(D1-DOUT)*%
X65404997Y-73342500D02*
G75*
G03*
X65629507Y-73884505I766503J0D01*
G01*
%TO.N,Net-(U4-PC4)*%
X49212496Y-71437504D02*
G75*
G03*
X49979012Y-71755000I766504J766504D01*
G01*
X49212504Y-71437496D02*
G75*
G03*
X48445987Y-71120000I-766504J-766504D01*
G01*
%TO.N,Net-(U4-PC1)*%
X48445987Y-74929994D02*
G75*
G03*
X49212500Y-74612500I13J1083994D01*
G01*
X49979012Y-74295006D02*
G75*
G03*
X49212500Y-74612500I-12J-1083994D01*
G01*
%TO.N,Net-(U4-PA2)*%
X60611003Y-73946009D02*
G75*
G03*
X58387500Y-73025000I-2223503J-2223491D01*
G01*
%TO.N,GND*%
X77951999Y-55397999D02*
G75*
G03*
X76200000Y-59627702I4229701J-4229701D01*
G01*
X54610004Y-68897500D02*
G75*
G03*
X52589442Y-64019442I-6898604J0D01*
G01*
D30*
X51576080Y-27290908D02*
G75*
G03*
X52070000Y-26098500I-1192380J1192408D01*
G01*
D29*
X62285163Y-72445181D02*
G75*
G03*
X63685000Y-73025000I1399837J1399881D01*
G01*
X87833030Y-49491012D02*
G75*
G03*
X86469000Y-50056000I-30J-1928988D01*
G01*
X85904006Y-50919584D02*
G75*
G03*
X85497000Y-49937000I-1389606J-16D01*
G01*
X54610000Y-70517500D02*
G75*
G03*
X55847500Y-71755000I1237500J0D01*
G01*
D30*
X47475100Y-29845013D02*
G75*
G03*
X50115823Y-28751176I0J3734513D01*
G01*
D29*
X88900003Y-59903491D02*
G75*
G03*
X87402000Y-56287000I-5114503J-9D01*
G01*
X90788893Y-54593933D02*
G75*
G03*
X90827750Y-54610000I38807J38833D01*
G01*
X79189489Y-29395489D02*
G75*
G03*
X79004000Y-29843336I447811J-447811D01*
G01*
D30*
X47158990Y-29844996D02*
G75*
G03*
X45057900Y-30715300I10J-2971404D01*
G01*
D29*
X90866606Y-54626066D02*
G75*
G03*
X90827750Y-54610000I-38806J-38834D01*
G01*
X86388376Y-50136639D02*
G75*
G03*
X85904000Y-51306000I1169324J-1169361D01*
G01*
X62230008Y-72389992D02*
G75*
G03*
X60696974Y-71755000I-1533008J-1533008D01*
G01*
X79118877Y-54231138D02*
G75*
G03*
X79704000Y-52818500I-1412677J1412638D01*
G01*
X90170004Y-50641589D02*
G75*
G03*
X89833000Y-49828000I-1150604J-11D01*
G01*
D30*
X32893000Y-59690000D02*
G75*
G03*
X33020000Y-59563000I0J127000D01*
G01*
D29*
X33020000Y-59563000D02*
G75*
G03*
X33147000Y-59690000I127000J0D01*
G01*
X82203981Y-34452445D02*
G75*
G03*
X82742500Y-35752500I1838619J45D01*
G01*
D30*
X25399998Y-58420002D02*
G75*
G03*
X28466051Y-59690000I3066052J3066062D01*
G01*
D29*
X85496996Y-49937004D02*
G75*
G03*
X84514415Y-49530000I-982596J-982596D01*
G01*
X75436669Y-66422312D02*
G75*
G03*
X76200000Y-64579500I-1842769J1842812D01*
G01*
D30*
X49092510Y-58857510D02*
G75*
G03*
X49925000Y-56847667I-2009810J2009810D01*
G01*
D29*
X82742513Y-35752487D02*
G75*
G03*
X84042554Y-36291000I1300087J1300087D01*
G01*
X86075678Y-30764309D02*
G75*
G03*
X87311000Y-27782000I-2982278J2982309D01*
G01*
X83226500Y-32591009D02*
G75*
G03*
X84972016Y-31867983I0J2468509D01*
G01*
X79375016Y-49274361D02*
G75*
G03*
X79539500Y-49671500I561584J-39D01*
G01*
D30*
X47307500Y-59690010D02*
G75*
G03*
X48933519Y-59016480I0J2299510D01*
G01*
X47307500Y-59690000D02*
X47307500Y-59690000D01*
D29*
X48933511Y-60363527D02*
G75*
G03*
X47307500Y-59690000I-1626011J-1625973D01*
G01*
D30*
X48933520Y-59016481D02*
G75*
G03*
X48933520Y-60363518I673480J-673519D01*
G01*
D29*
X80226374Y-49529990D02*
G75*
G03*
X79857000Y-49683000I26J-522410D01*
G01*
X89599242Y-49594232D02*
G75*
G03*
X89350000Y-49491000I-249242J-249268D01*
G01*
X90170006Y-53525987D02*
G75*
G03*
X90487500Y-54292500I1083994J-13D01*
G01*
D30*
X24130001Y-55353948D02*
G75*
G03*
X25400000Y-58420000I4336049J-2D01*
G01*
X25399985Y-50799985D02*
G75*
G03*
X24130000Y-53866051I3066015J-3066015D01*
G01*
D29*
X79704010Y-50052374D02*
G75*
G03*
X79551000Y-49683000I-522410J-26D01*
G01*
X79857007Y-49683007D02*
G75*
G03*
X79704000Y-50052374I369393J-369393D01*
G01*
X79551000Y-49683000D02*
G75*
G03*
X79857000Y-49683000I153000J153002D01*
G01*
X85904005Y-53390000D02*
G75*
G03*
X86893242Y-55778242I3377495J0D01*
G01*
D30*
X33147000Y-59690000D02*
X32893000Y-59690000D01*
D29*
X76200000Y-62420500D02*
X76200000Y-64579500D01*
X89350000Y-49491000D02*
X89058000Y-49491000D01*
%TO.N,J9_12*%
X71674200Y-34209152D02*
G75*
G03*
X68803250Y-33020000I-2870900J-2870948D01*
G01*
X72819794Y-35354786D02*
G75*
G03*
X75080000Y-36291000I2260206J2260186D01*
G01*
%TO.N,+3.3V*%
X98596094Y-56146094D02*
G75*
G03*
X99695000Y-53493122I-2652994J2652994D01*
G01*
X36512496Y-52387496D02*
G75*
G03*
X36195000Y-53154012I766504J-766504D01*
G01*
X59690014Y-75564986D02*
G75*
G03*
X62756051Y-76835000I3066086J3066086D01*
G01*
X33337501Y-55562499D02*
G75*
G03*
X35242499Y-55562499I952499J952499D01*
G01*
X66225000Y-76835000D02*
G75*
G03*
X68580000Y-74480000I0J2355000D01*
G01*
X99695009Y-37278377D02*
G75*
G03*
X98447750Y-34267250I-4258409J-23D01*
G01*
X31750015Y-51444863D02*
G75*
G03*
X30845000Y-49260000I-3089915J-37D01*
G01*
X96738600Y-57245006D02*
G75*
G03*
X98033612Y-56708588I0J1831406D01*
G01*
X95443593Y-56708583D02*
G75*
G03*
X96738600Y-57245000I1295007J1294983D01*
G01*
X91440047Y-51403347D02*
G75*
G03*
X92360407Y-53625407I3142453J-53D01*
G01*
X27361488Y-47681472D02*
G75*
G03*
X28987500Y-48355000I1626012J1625972D01*
G01*
X89779699Y-48441342D02*
G75*
G03*
X89416652Y-48291000I-362999J-363058D01*
G01*
X91440020Y-51382049D02*
G75*
G03*
X90534651Y-49196348I-3091120J-51D01*
G01*
X35521473Y-55283512D02*
G75*
G03*
X36195000Y-53657500I-1625973J1626012D01*
G01*
X30613511Y-49028527D02*
G75*
G03*
X28987500Y-48355000I-1626011J-1625973D01*
G01*
X58891996Y-74766990D02*
G75*
G03*
X57752500Y-74295000I-1139496J-1139510D01*
G01*
X36844996Y-52085004D02*
G75*
G03*
X36881213Y-52100000I36204J36204D01*
G01*
X68580000Y-73712500D02*
G75*
G03*
X66992500Y-72125000I-1587500J0D01*
G01*
X36845000Y-52085000D02*
G75*
G03*
X36815000Y-52085000I-15000J-14997D01*
G01*
X31750001Y-52178948D02*
G75*
G03*
X33020000Y-55245000I4336049J-2D01*
G01*
%TO.N,J8_10*%
X91440004Y-60642500D02*
G75*
G03*
X89419442Y-55764442I-6898604J0D01*
G01*
X86903989Y-52620000D02*
G75*
G03*
X87348771Y-53693769I1518511J0D01*
G01*
%TO.N,J8_8*%
X84603992Y-53517320D02*
G75*
G03*
X85482000Y-55637000I2997708J20D01*
G01*
X86360008Y-57756679D02*
G75*
G03*
X85482000Y-55637000I-2997708J-21D01*
G01*
%TO.N,J8_7*%
X83403982Y-57074843D02*
G75*
G03*
X83612000Y-57577000I710218J43D01*
G01*
X83820018Y-58079156D02*
G75*
G03*
X83612000Y-57577000I-710218J-44D01*
G01*
%TO.N,J8_6*%
X81742010Y-57958010D02*
G75*
G03*
X81280000Y-59073366I1115390J-1115390D01*
G01*
X81741990Y-57957990D02*
G75*
G03*
X82204000Y-56842633I-1115390J1115390D01*
G01*
%TO.N,J8_5*%
X79871997Y-56652997D02*
G75*
G03*
X81004000Y-53920110I-2732897J2732897D01*
G01*
X79872003Y-56653003D02*
G75*
G03*
X78740000Y-59385889I2732897J-2732897D01*
G01*
%TO.N,J8_3*%
X75905070Y-54904942D02*
G75*
G03*
X73660000Y-60325000I5420030J-5420058D01*
G01*
X78663338Y-52146655D02*
G75*
G03*
X78704000Y-52048500I-98138J98155D01*
G01*
%TO.N,J7_11*%
X90683576Y-37490990D02*
G75*
G03*
X93014500Y-36525500I24J3296390D01*
G01*
X95345423Y-35560010D02*
G75*
G03*
X93014500Y-36525500I-23J-3296390D01*
G01*
%TO.N,J9_10*%
X71415500Y-38395500D02*
G75*
G03*
X72128900Y-38691000I713400J713400D01*
G01*
X71415500Y-38395500D02*
G75*
G03*
X70702099Y-38100000I-713400J-713400D01*
G01*
%TO.N,J9_9*%
X70590377Y-40639990D02*
G75*
G03*
X71494500Y-40265500I23J1278590D01*
G01*
X72398622Y-39891010D02*
G75*
G03*
X71494500Y-40265500I-22J-1278590D01*
G01*
%TO.N,J9_8*%
X74051146Y-41091020D02*
G75*
G03*
X71529501Y-42135501I-46J-3566080D01*
G01*
X69007853Y-43179951D02*
G75*
G03*
X71529500Y-42135500I47J3566151D01*
G01*
%TO.N,J9_7*%
X74841500Y-42290997D02*
G75*
G03*
X72174145Y-43395854I0J-3772203D01*
G01*
X68485750Y-45720031D02*
G75*
G03*
X70814669Y-44755328I-50J3293631D01*
G01*
%TO.N,J9_6*%
X75194000Y-43491000D02*
G75*
G03*
X73128400Y-44346599I0J-2921200D01*
G01*
X68168250Y-48260028D02*
G75*
G03*
X69955164Y-47519835I-50J2527128D01*
G01*
%TO.N,J9_5*%
X67850750Y-50800024D02*
G75*
G03*
X69095657Y-50284342I-50J1760624D01*
G01*
X75546500Y-44691003D02*
G75*
G03*
X74082655Y-45297344I0J-2070197D01*
G01*
%TO.N,J9_4*%
X70299018Y-50350993D02*
G75*
G03*
X69850000Y-51435000I1083982J-1084007D01*
G01*
X69400982Y-52519008D02*
G75*
G03*
X69850000Y-51435000I-1083982J1084008D01*
G01*
X75087097Y-45890999D02*
G75*
G03*
X74527000Y-46123000I3J-792101D01*
G01*
X67850750Y-53340024D02*
G75*
G03*
X69095657Y-52824342I-50J1760624D01*
G01*
%TO.N,J9_3*%
X70220981Y-54874007D02*
G75*
G03*
X71120000Y-52703604I-2170381J2170407D01*
G01*
X72019015Y-50533198D02*
G75*
G03*
X71120000Y-52703604I2170385J-2170402D01*
G01*
X75932604Y-47090988D02*
G75*
G03*
X75127880Y-47424327I-4J-1138012D01*
G01*
X68168250Y-55880028D02*
G75*
G03*
X69955164Y-55139835I-50J2527128D01*
G01*
%TO.N,J9_2*%
X73513035Y-50310588D02*
G75*
G03*
X72390000Y-53021802I2711165J-2711212D01*
G01*
X67850750Y-58420024D02*
G75*
G03*
X69095657Y-57904342I-50J1760624D01*
G01*
X71266963Y-55733014D02*
G75*
G03*
X72390000Y-53021802I-2711163J2711214D01*
G01*
X75968302Y-48291011D02*
G75*
G03*
X75224519Y-48599086I-2J-1051889D01*
G01*
%TO.N,J9_1*%
X73239082Y-54842357D02*
G75*
G03*
X74295000Y-52293250I-2549082J2549157D01*
G01*
X74949499Y-50145499D02*
G75*
G03*
X74295000Y-51725602I1580101J-1580101D01*
G01*
X76004000Y-49491004D02*
G75*
G03*
X75321157Y-49773842I0J-965696D01*
G01*
%TO.N,J7_3*%
X92710015Y-51435000D02*
G75*
G03*
X93608026Y-53603024I3066085J0D01*
G01*
X89788741Y-47243729D02*
G75*
G03*
X89420000Y-47091000I-368741J-368771D01*
G01*
X92709985Y-51435000D02*
G75*
G03*
X91811973Y-49266975I-3066085J0D01*
G01*
X95419914Y-55414886D02*
G75*
G03*
X96542750Y-55880000I1122886J1122886D01*
G01*
%TO.N,J7_4*%
X89813099Y-46050099D02*
G75*
G03*
X89429000Y-45891000I-384099J-384101D01*
G01*
X93980013Y-50826000D02*
G75*
G03*
X94410628Y-51865628I1470287J0D01*
G01*
X95419914Y-52874886D02*
G75*
G03*
X96542750Y-53340000I1122886J1122886D01*
G01*
X93979987Y-50826000D02*
G75*
G03*
X93549371Y-49786371I-1470287J0D01*
G01*
%TO.N,J7_5*%
X96196859Y-50537821D02*
G75*
G03*
X96829750Y-50800000I632941J632921D01*
G01*
X90755163Y-45096181D02*
G75*
G03*
X89777000Y-44691000I-978163J-978119D01*
G01*
%TO.N,J7_6*%
X90932492Y-43942482D02*
G75*
G03*
X89842500Y-43491000I-1089992J-1090018D01*
G01*
X94560411Y-47570377D02*
G75*
G03*
X96225250Y-48260000I1664889J1664877D01*
G01*
%TO.N,J7_7*%
X93700907Y-44805867D02*
G75*
G03*
X95907750Y-45720000I2206893J2206867D01*
G01*
X91886745Y-42991739D02*
G75*
G03*
X90195000Y-42291000I-1691745J-1691761D01*
G01*
%TO.N,J7_8*%
X92300487Y-42135513D02*
G75*
G03*
X94822146Y-43180000I2521613J2521613D01*
G01*
X91981494Y-41816488D02*
G75*
G03*
X90230000Y-41091000I-1751494J-1751512D01*
G01*
%TO.N,J7_9*%
X93027504Y-40322496D02*
G75*
G03*
X92260987Y-40005000I-766504J-766504D01*
G01*
X89711003Y-39947997D02*
G75*
G03*
X89573389Y-39891000I-137603J-137603D01*
G01*
X93027496Y-40322504D02*
G75*
G03*
X93794012Y-40640000I766504J766504D01*
G01*
X89710997Y-39948003D02*
G75*
G03*
X89848610Y-40005000I137603J137603D01*
G01*
%TO.N,J7_10*%
X92336099Y-38690999D02*
G75*
G03*
X93049499Y-38395499I1J1008899D01*
G01*
X93762900Y-38100001D02*
G75*
G03*
X93049501Y-38395501I0J-1008899D01*
G01*
%TO.N,J9_11*%
X72085507Y-36525493D02*
G75*
G03*
X69754576Y-35560000I-2330907J-2330907D01*
G01*
X72085493Y-36525507D02*
G75*
G03*
X74416423Y-37491000I2330907J2330907D01*
G01*
%TO.N,Net-(J6-In)*%
X80763099Y-31981901D02*
G75*
G03*
X80604000Y-32366000I384101J-384099D01*
G01*
X83360000Y-30480010D02*
G75*
G03*
X81490718Y-31254281I0J-2643590D01*
G01*
%TO.N,+5V*%
X27698700Y-37777300D02*
G75*
G03*
X26670000Y-40260801I2483500J-2483500D01*
G01*
X41910006Y-52255987D02*
G75*
G03*
X42227500Y-53022500I1083994J-13D01*
G01*
X42532500Y-53327500D02*
G75*
G03*
X42557500Y-53327500I12500J12502D01*
G01*
X35842505Y-33655001D02*
G75*
G03*
X32108199Y-35201799I-5J-5281099D01*
G01*
X29644400Y-36748609D02*
G75*
G03*
X31209816Y-36100183I0J2213809D01*
G01*
X42587677Y-53314991D02*
G75*
G03*
X42557500Y-53327500I23J-42709D01*
G01*
X40957511Y-34607489D02*
G75*
G03*
X38657961Y-33655000I-2299511J-2299511D01*
G01*
X41909984Y-36907038D02*
G75*
G03*
X40957500Y-34607500I-3251984J38D01*
G01*
%TO.N,/RX*%
X34924992Y-38734992D02*
G75*
G03*
X34290000Y-40268025I1533008J-1533008D01*
G01*
%TO.N,/SCL*%
X49529999Y-36830000D02*
G75*
G03*
X53122102Y-45502102I12264201J0D01*
G01*
%TO.N,/SDA*%
X60325008Y-53435008D02*
G75*
G03*
X60960000Y-51901974I-1533008J1533008D01*
G01*
X58982892Y-42777106D02*
G75*
G03*
X59690000Y-43070000I707108J707106D01*
G01*
X60959992Y-44530918D02*
G75*
G03*
X60532107Y-43497893I-1460892J18D01*
G01*
X52069997Y-33807107D02*
G75*
G03*
X53524594Y-37318808I4966303J7D01*
G01*
X60397107Y-43362893D02*
G75*
G03*
X59690000Y-43070000I-707107J-707107D01*
G01*
%TO.N,/SWDIO*%
X27500850Y-48699149D02*
G75*
G03*
X26670000Y-48355000I-830850J-830851D01*
G01*
X27257502Y-51482502D02*
G75*
G03*
X27845000Y-50064149I-1418362J1418352D01*
G01*
X48894992Y-69850008D02*
G75*
G03*
X50428025Y-70485000I1533008J1533008D01*
G01*
X26670000Y-48355000D02*
G75*
G03*
X25839150Y-48699150I0J-1175000D01*
G01*
X24584138Y-49954138D02*
G75*
G03*
X22985000Y-53814837I3860662J-3860662D01*
G01*
X22985005Y-58742337D02*
G75*
G03*
X24192501Y-61657499I4122665J-3D01*
G01*
X24192511Y-61657489D02*
G75*
G03*
X27107662Y-62865000I2915189J2915189D01*
G01*
X27845000Y-49529999D02*
G75*
G03*
X27500850Y-48699149I-1175000J-1D01*
G01*
X45084997Y-66040003D02*
G75*
G03*
X37419871Y-62865000I-7665127J-7665117D01*
G01*
%TO.N,GND*%
X79189500Y-29395500D02*
X79375000Y-29210000D01*
X79004000Y-29843336D02*
X79004000Y-32591000D01*
X79375000Y-46990000D02*
X79375000Y-49274361D01*
X79539500Y-49671500D02*
X79551000Y-49683000D01*
%TO.N,Net-(D1-DOUT)*%
X65629506Y-73884506D02*
X66675000Y-74930000D01*
X65405000Y-73342500D02*
X65405000Y-73025000D01*
%TO.N,+3.3V*%
X59690000Y-75565000D02*
X58891993Y-74766993D01*
X57752500Y-74295000D02*
X57085000Y-74295000D01*
X62756051Y-76835000D02*
X66225000Y-76835000D01*
X68580000Y-74480000D02*
X68580000Y-73712500D01*
X66992500Y-72125000D02*
X65405000Y-72125000D01*
%TO.N,/SWDIO*%
X25839149Y-48699149D02*
X24584149Y-49954149D01*
X27257500Y-51482500D02*
X26670000Y-52070000D01*
X48260000Y-69215000D02*
X45085000Y-66040000D01*
X27845000Y-50064149D02*
X27845000Y-49529999D01*
X27107662Y-62865000D02*
X37419871Y-62865000D01*
X48895000Y-69850000D02*
X48260000Y-69215000D01*
X22985000Y-53814837D02*
X22985000Y-58742337D01*
X50428025Y-70485000D02*
X52135000Y-70485000D01*
%TO.N,/SDA*%
X60960000Y-51901974D02*
X60960000Y-44530918D01*
X60532107Y-43497893D02*
X60397107Y-43362893D01*
X60325000Y-53435000D02*
X59690000Y-54070000D01*
X52070000Y-33807107D02*
X52070000Y-31750000D01*
X58982892Y-42777106D02*
X53524594Y-37318808D01*
%TO.N,/SCL*%
X49530000Y-36830000D02*
X49530000Y-31750000D01*
X53122102Y-45502102D02*
X59690000Y-52070000D01*
%TO.N,/RX*%
X34290000Y-40268025D02*
X34290000Y-54610000D01*
X35560000Y-38100000D02*
X34925000Y-38735000D01*
%TO.N,/TX*%
X33020000Y-43180000D02*
X33020000Y-52070000D01*
%TO.N,+5V*%
X42227500Y-53022500D02*
X42532500Y-53327500D01*
X26670000Y-40260801D02*
X26670000Y-44450000D01*
X41910000Y-52255987D02*
X41910000Y-36907038D01*
X42587677Y-53315000D02*
X45325000Y-53315000D01*
X35842505Y-33655000D02*
X38657961Y-33655000D01*
X29644400Y-36748600D02*
X28727400Y-36748600D01*
X32108199Y-35201799D02*
X31209816Y-36100183D01*
X27698700Y-37777300D02*
X28727400Y-36748600D01*
%TO.N,Net-(J6-In)*%
X80763098Y-31981900D02*
X81490718Y-31254281D01*
X84455000Y-30480000D02*
X83360000Y-30480000D01*
X80604000Y-32366000D02*
X80604000Y-32591000D01*
%TO.N,J9_11*%
X69754576Y-35560000D02*
X67121500Y-35560000D01*
X74416423Y-37491000D02*
X76404000Y-37491000D01*
%TO.N,J7_10*%
X93762900Y-38100000D02*
X97200500Y-38100000D01*
X92336099Y-38691000D02*
X89204000Y-38691000D01*
%TO.N,J7_9*%
X89573389Y-39891000D02*
X89204000Y-39891000D01*
X93794012Y-40640000D02*
X97200500Y-40640000D01*
X92260987Y-40005000D02*
X89848610Y-40005000D01*
%TO.N,J7_8*%
X90230000Y-41091000D02*
X89204000Y-41091000D01*
X92300500Y-42135500D02*
X91981491Y-41816491D01*
X94822146Y-43180000D02*
X97200500Y-43180000D01*
%TO.N,J7_7*%
X95907750Y-45720000D02*
X97200500Y-45720000D01*
X90195000Y-42291000D02*
X89204000Y-42291000D01*
X93700887Y-44805887D02*
X91886742Y-42991742D01*
%TO.N,J7_6*%
X89842500Y-43491000D02*
X89204000Y-43491000D01*
X90932487Y-43942487D02*
X94560394Y-47570394D01*
X96225250Y-48260000D02*
X97200500Y-48260000D01*
%TO.N,J7_5*%
X89777000Y-44691000D02*
X89204000Y-44691000D01*
X96196840Y-50537840D02*
X90755172Y-45096172D01*
X96829750Y-50800000D02*
X97200500Y-50800000D01*
%TO.N,J7_4*%
X94410628Y-51865628D02*
X95419900Y-52874900D01*
X89813099Y-46050099D02*
X93549371Y-49786371D01*
X89429000Y-45891000D02*
X89204000Y-45891000D01*
X96542750Y-53340000D02*
X97200500Y-53340000D01*
%TO.N,J7_3*%
X93608025Y-53603025D02*
X95419900Y-55414900D01*
X96542750Y-55880000D02*
X97200500Y-55880000D01*
X89420000Y-47091000D02*
X89204000Y-47091000D01*
X89788735Y-47243735D02*
X91811974Y-49266974D01*
%TO.N,J9_1*%
X73239112Y-54842387D02*
X67121500Y-60960000D01*
X74949499Y-50145499D02*
X75321157Y-49773842D01*
X74295000Y-52293250D02*
X74295000Y-51725602D01*
X76004000Y-49491000D02*
X76404000Y-49491000D01*
%TO.N,J9_2*%
X67850750Y-58420000D02*
X67121500Y-58420000D01*
X69095657Y-57904342D02*
X71266974Y-55733025D01*
X73513025Y-50310578D02*
X75224518Y-48599085D01*
X75968302Y-48291000D02*
X76404000Y-48291000D01*
%TO.N,J9_3*%
X72019012Y-50533195D02*
X75127880Y-47424327D01*
X68168250Y-55880000D02*
X67121500Y-55880000D01*
X70220986Y-54874012D02*
X69955164Y-55139835D01*
X75932604Y-47091000D02*
X76404000Y-47091000D01*
%TO.N,J9_4*%
X67850750Y-53340000D02*
X67121500Y-53340000D01*
X75087097Y-45891000D02*
X76404000Y-45891000D01*
X74527000Y-46123000D02*
X74295000Y-46355000D01*
X70299012Y-50350987D02*
X74258847Y-46391153D01*
X69400986Y-52519012D02*
X69095657Y-52824342D01*
%TO.N,J9_5*%
X75546500Y-44691000D02*
X76404000Y-44691000D01*
X69095657Y-50284342D02*
X74082655Y-45297344D01*
X67850750Y-50800000D02*
X67121500Y-50800000D01*
%TO.N,J9_6*%
X75194000Y-43491000D02*
X76404000Y-43491000D01*
X73128400Y-44346599D02*
X69955164Y-47519835D01*
X68168250Y-48260000D02*
X67121500Y-48260000D01*
%TO.N,J9_7*%
X68485750Y-45720000D02*
X67121500Y-45720000D01*
X74841500Y-42291000D02*
X76404000Y-42291000D01*
X72174145Y-43395854D02*
X70814670Y-44755329D01*
%TO.N,J9_8*%
X74051146Y-41091000D02*
X76404000Y-41091000D01*
X69007853Y-43180000D02*
X67121500Y-43180000D01*
%TO.N,J9_9*%
X70590377Y-40640000D02*
X67121500Y-40640000D01*
X72398622Y-39891000D02*
X76404000Y-39891000D01*
%TO.N,J9_10*%
X70702099Y-38100000D02*
X67121500Y-38100000D01*
X72128900Y-38691000D02*
X76404000Y-38691000D01*
%TO.N,J7_11*%
X90683576Y-37491000D02*
X89204000Y-37491000D01*
X95345423Y-35560000D02*
X97200500Y-35560000D01*
%TO.N,J8_3*%
X73660000Y-60325000D02*
X73660000Y-63500000D01*
X78704000Y-52048500D02*
X78704000Y-51991000D01*
X75905063Y-54904935D02*
X78663341Y-52146658D01*
%TO.N,J8_5*%
X78740000Y-59385889D02*
X78740000Y-63500000D01*
X81004000Y-53920110D02*
X81004000Y-51991000D01*
%TO.N,J8_6*%
X81280000Y-59073366D02*
X81280000Y-63500000D01*
X82204000Y-56842633D02*
X82204000Y-51991000D01*
%TO.N,J8_7*%
X83820000Y-58079156D02*
X83820000Y-63500000D01*
X83404000Y-57074843D02*
X83404000Y-51991000D01*
%TO.N,J8_8*%
X84604000Y-53517320D02*
X84604000Y-51991000D01*
X86360000Y-57756679D02*
X86360000Y-63500000D01*
%TO.N,J8_10*%
X86904000Y-52620000D02*
X86904000Y-51991000D01*
X89419442Y-55764442D02*
X87348770Y-53693770D01*
X91440000Y-60642500D02*
X91440000Y-63500000D01*
%TO.N,+3.3V*%
X36881213Y-52100000D02*
X38100000Y-52100000D01*
X99695000Y-53493122D02*
X99695000Y-37278377D01*
X31750000Y-51444863D02*
X31750000Y-52178948D01*
X36195000Y-53154012D02*
X36195000Y-53657500D01*
X36512500Y-52387500D02*
X36815000Y-52085000D01*
X89416652Y-48291000D02*
X89204000Y-48291000D01*
X98447750Y-34267250D02*
X97200500Y-33020000D01*
X30845000Y-49260000D02*
X30613519Y-49028519D01*
X91440000Y-51403347D02*
X91440000Y-51382049D01*
X89779673Y-48441368D02*
X90534652Y-49196347D01*
X27361480Y-47681480D02*
X26670000Y-46990000D01*
D31*
X47625000Y-53315000D02*
X47625000Y-47015000D01*
D29*
X33337500Y-55562500D02*
X33020000Y-55245000D01*
X35242499Y-55562499D02*
X35521480Y-55283519D01*
X98596100Y-56146100D02*
X98033612Y-56708588D01*
X95443588Y-56708588D02*
X92360407Y-53625407D01*
%TO.N,J9_12*%
X75080000Y-36291000D02*
X76404000Y-36291000D01*
X68803250Y-33020000D02*
X67121500Y-33020000D01*
X71674176Y-34209176D02*
X72819790Y-35354790D01*
%TO.N,GND*%
X84042554Y-36291000D02*
X89204000Y-36291000D01*
X87833030Y-49491000D02*
X89058000Y-49491000D01*
D30*
X25400000Y-50800000D02*
X26670000Y-49530000D01*
D29*
X77951999Y-55397999D02*
X79118869Y-54231130D01*
X82204000Y-34452445D02*
X82204000Y-32591000D01*
X90788913Y-54593913D02*
X90487500Y-54292500D01*
X28727400Y-33248600D02*
X29184600Y-33248600D01*
D30*
X32893000Y-59690000D02*
X28466051Y-59690000D01*
D29*
X85904000Y-51306000D02*
X85904000Y-51991000D01*
X87402000Y-56287000D02*
X86893242Y-55778242D01*
X90170000Y-50641589D02*
X90170000Y-53525987D01*
X85904000Y-51991000D02*
X85904000Y-53390000D01*
X79704000Y-51991000D02*
X79704000Y-50052374D01*
D30*
X49925000Y-56847667D02*
X49925000Y-53315000D01*
D29*
X33020000Y-59563000D02*
X33020000Y-59436000D01*
X85904000Y-50919584D02*
X85904000Y-51991000D01*
X63685000Y-73025000D02*
X64505000Y-73025000D01*
X87311000Y-27782000D02*
X87311000Y-26035000D01*
X89833000Y-49828000D02*
X89599237Y-49594237D01*
X54610000Y-68897500D02*
X54610000Y-70517500D01*
X86468999Y-50055999D02*
X86388368Y-50136631D01*
D30*
X49092499Y-58857499D02*
X48933519Y-59016480D01*
X24130000Y-55353948D02*
X24130000Y-53866051D01*
D29*
X79704000Y-52818500D02*
X79704000Y-51991000D01*
X60696974Y-71755000D02*
X57085000Y-71755000D01*
X86075684Y-30764315D02*
X84972016Y-31867983D01*
X62285172Y-72445172D02*
X62230000Y-72390000D01*
X55847500Y-71755000D02*
X57085000Y-71755000D01*
X84514415Y-49530000D02*
X80226374Y-49530000D01*
X83226500Y-32591000D02*
X82204000Y-32591000D01*
X52589442Y-64019442D02*
X48933519Y-60363519D01*
D30*
X51576085Y-27290913D02*
X50115823Y-28751176D01*
X47475100Y-29845000D02*
X47158990Y-29845000D01*
X45057900Y-30715300D02*
X44187600Y-31585600D01*
D29*
X76200000Y-59627702D02*
X76200000Y-62420500D01*
X90866586Y-54626086D02*
X97200500Y-60960000D01*
D30*
X47307500Y-59690000D02*
X46355000Y-59690000D01*
D29*
X88900000Y-59903491D02*
X88900000Y-63500000D01*
X75436678Y-66422321D02*
X74168000Y-67691000D01*
D30*
X52070000Y-26098500D02*
X52070000Y-25400000D01*
X33147000Y-59690000D02*
X47307500Y-59690000D01*
D29*
%TO.N,Net-(U4-PA2)*%
X58387500Y-73025000D02*
X57085000Y-73025000D01*
X60611006Y-73946006D02*
X61595000Y-74930000D01*
%TO.N,Net-(U4-PC1)*%
X48445987Y-74930000D02*
X45720000Y-74930000D01*
X49979012Y-74295000D02*
X52135000Y-74295000D01*
%TO.N,Net-(U4-PC2)*%
X48260000Y-73025000D02*
X52135000Y-73025000D01*
%TO.N,Net-(U4-PC4)*%
X49979012Y-71755000D02*
X52135000Y-71755000D01*
X48445987Y-71120000D02*
X45720000Y-71120000D01*
%TO.N,Net-(D1-DIN)*%
X61912500Y-70167500D02*
X63645493Y-71900493D01*
X60510987Y-70485000D02*
X57085000Y-70485000D01*
X64187500Y-72125000D02*
X64505000Y-72125000D01*
%TD*%
M02*
