%TF.GenerationSoftware,KiCad,Pcbnew,7.0.9*%
%TF.CreationDate,2025-10-08T14:44:38+03:00*%
%TF.ProjectId,signalgenerator-rounded,7369676e-616c-4676-956e-657261746f72,rev?*%
%TF.SameCoordinates,Original*%
%TF.FileFunction,Paste,Bot*%
%TF.FilePolarity,Positive*%
%FSLAX46Y46*%
G04 Gerber Fmt 4.6, Leading zero omitted, Abs format (unit mm)*
G04 Created by KiCad (PCBNEW 7.0.9) date 2025-10-08 14:44:38*
%MOMM*%
%LPD*%
G01*
G04 APERTURE LIST*
G04 Aperture macros list*
%AMRoundRect*
0 Rectangle with rounded corners*
0 $1 Rounding radius*
0 $2 $3 $4 $5 $6 $7 $8 $9 X,Y pos of 4 corners*
0 Add a 4 corners polygon primitive as box body*
4,1,4,$2,$3,$4,$5,$6,$7,$8,$9,$2,$3,0*
0 Add four circle primitives for the rounded corners*
1,1,$1+$1,$2,$3*
1,1,$1+$1,$4,$5*
1,1,$1+$1,$6,$7*
1,1,$1+$1,$8,$9*
0 Add four rect primitives between the rounded corners*
20,1,$1+$1,$2,$3,$4,$5,0*
20,1,$1+$1,$4,$5,$6,$7,0*
20,1,$1+$1,$6,$7,$8,$9,0*
20,1,$1+$1,$8,$9,$2,$3,0*%
G04 Aperture macros list end*
%ADD10R,1.350000X4.200000*%
%ADD11RoundRect,0.150000X0.825000X0.150000X-0.825000X0.150000X-0.825000X-0.150000X0.825000X-0.150000X0*%
%ADD12O,2.000000X0.800000*%
%ADD13O,0.800000X2.000000*%
%ADD14R,1.800000X1.000000*%
%ADD15R,1.500000X2.000000*%
%ADD16R,3.800000X2.000000*%
%ADD17RoundRect,0.125000X0.125000X-0.125000X0.125000X0.125000X-0.125000X0.125000X-0.125000X-0.125000X0*%
G04 APERTURE END LIST*
D10*
%TO.C,J6*%
X87311000Y-26035000D03*
X81661000Y-26035000D03*
%TD*%
D11*
%TO.C,U4*%
X57085000Y-70485000D03*
X57085000Y-71755000D03*
X57085000Y-73025000D03*
X57085000Y-74295000D03*
X52135000Y-74295000D03*
X52135000Y-73025000D03*
X52135000Y-71755000D03*
X52135000Y-70485000D03*
%TD*%
D12*
%TO.C,U3*%
X89204000Y-36291000D03*
X89204000Y-37491000D03*
X89204000Y-38691000D03*
X89204000Y-39891000D03*
X89204000Y-41091000D03*
X89204000Y-42291000D03*
X89204000Y-43491000D03*
X89204000Y-44691000D03*
X89204000Y-45891000D03*
X89204000Y-47091000D03*
X89204000Y-48291000D03*
X89204000Y-49491000D03*
X76404000Y-49491000D03*
X76404000Y-48291000D03*
X76404000Y-47091000D03*
X76404000Y-45891000D03*
X76404000Y-44691000D03*
X76404000Y-43491000D03*
X76404000Y-42291000D03*
X76404000Y-41091000D03*
X76404000Y-39891000D03*
X76404000Y-38691000D03*
X76404000Y-37491000D03*
X76404000Y-36291000D03*
D13*
X79004000Y-32591000D03*
X80604000Y-32591000D03*
X82204000Y-32591000D03*
X79704000Y-51991000D03*
X85904000Y-51991000D03*
X78704000Y-51991000D03*
X81004000Y-51991000D03*
X82204000Y-51991000D03*
X83404000Y-51991000D03*
X84604000Y-51991000D03*
X86904000Y-51991000D03*
D14*
X88404000Y-51591000D03*
X88404000Y-32591000D03*
X77204000Y-51591000D03*
X77204000Y-32591000D03*
%TD*%
D15*
%TO.C,U2*%
X49925000Y-53315000D03*
X47625000Y-53315000D03*
D16*
X47625000Y-47015000D03*
D15*
X45325000Y-53315000D03*
%TD*%
D17*
%TO.C,D1*%
X65405000Y-73025000D03*
X64505000Y-73025000D03*
X64505000Y-72125000D03*
X65405000Y-72125000D03*
%TD*%
M02*
