%TF.GenerationSoftware,KiCad,Pcbnew,7.0.9*%
%TF.CreationDate,2025-10-08T14:44:38+03:00*%
%TF.ProjectId,signalgenerator-rounded,7369676e-616c-4676-956e-657261746f72,rev?*%
%TF.SameCoordinates,Original*%
%TF.FileFunction,Legend,Top*%
%TF.FilePolarity,Positive*%
%FSLAX46Y46*%
G04 Gerber Fmt 4.6, Leading zero omitted, Abs format (unit mm)*
G04 Created by KiCad (PCBNEW 7.0.9) date 2025-10-08 14:44:38*
%MOMM*%
%LPD*%
G01*
G04 APERTURE LIST*
%ADD10C,0.150000*%
%ADD11C,0.120000*%
G04 APERTURE END LIST*
D10*
X27133779Y-41144866D02*
X27895684Y-41144866D01*
X27514731Y-41525819D02*
X27514731Y-40763914D01*
X28848064Y-40525819D02*
X28371874Y-40525819D01*
X28371874Y-40525819D02*
X28324255Y-41002009D01*
X28324255Y-41002009D02*
X28371874Y-40954390D01*
X28371874Y-40954390D02*
X28467112Y-40906771D01*
X28467112Y-40906771D02*
X28705207Y-40906771D01*
X28705207Y-40906771D02*
X28800445Y-40954390D01*
X28800445Y-40954390D02*
X28848064Y-41002009D01*
X28848064Y-41002009D02*
X28895683Y-41097247D01*
X28895683Y-41097247D02*
X28895683Y-41335342D01*
X28895683Y-41335342D02*
X28848064Y-41430580D01*
X28848064Y-41430580D02*
X28800445Y-41478200D01*
X28800445Y-41478200D02*
X28705207Y-41525819D01*
X28705207Y-41525819D02*
X28467112Y-41525819D01*
X28467112Y-41525819D02*
X28371874Y-41478200D01*
X28371874Y-41478200D02*
X28324255Y-41430580D01*
X29181398Y-40525819D02*
X29514731Y-41525819D01*
X29514731Y-41525819D02*
X29848064Y-40525819D01*
X43688095Y-41364819D02*
X43688095Y-42174342D01*
X43688095Y-42174342D02*
X43735714Y-42269580D01*
X43735714Y-42269580D02*
X43783333Y-42317200D01*
X43783333Y-42317200D02*
X43878571Y-42364819D01*
X43878571Y-42364819D02*
X44069047Y-42364819D01*
X44069047Y-42364819D02*
X44164285Y-42317200D01*
X44164285Y-42317200D02*
X44211904Y-42269580D01*
X44211904Y-42269580D02*
X44259523Y-42174342D01*
X44259523Y-42174342D02*
X44259523Y-41364819D01*
X45259523Y-42364819D02*
X44688095Y-42364819D01*
X44973809Y-42364819D02*
X44973809Y-41364819D01*
X44973809Y-41364819D02*
X44878571Y-41507676D01*
X44878571Y-41507676D02*
X44783333Y-41602914D01*
X44783333Y-41602914D02*
X44688095Y-41650533D01*
X56394819Y-25733333D02*
X57109104Y-25733333D01*
X57109104Y-25733333D02*
X57251961Y-25780952D01*
X57251961Y-25780952D02*
X57347200Y-25876190D01*
X57347200Y-25876190D02*
X57394819Y-26019047D01*
X57394819Y-26019047D02*
X57394819Y-26114285D01*
X56394819Y-24780952D02*
X56394819Y-25257142D01*
X56394819Y-25257142D02*
X56871009Y-25304761D01*
X56871009Y-25304761D02*
X56823390Y-25257142D01*
X56823390Y-25257142D02*
X56775771Y-25161904D01*
X56775771Y-25161904D02*
X56775771Y-24923809D01*
X56775771Y-24923809D02*
X56823390Y-24828571D01*
X56823390Y-24828571D02*
X56871009Y-24780952D01*
X56871009Y-24780952D02*
X56966247Y-24733333D01*
X56966247Y-24733333D02*
X57204342Y-24733333D01*
X57204342Y-24733333D02*
X57299580Y-24780952D01*
X57299580Y-24780952D02*
X57347200Y-24828571D01*
X57347200Y-24828571D02*
X57394819Y-24923809D01*
X57394819Y-24923809D02*
X57394819Y-25161904D01*
X57394819Y-25161904D02*
X57347200Y-25257142D01*
X57347200Y-25257142D02*
X57299580Y-25304761D01*
X82629071Y-71162009D02*
X82962404Y-71162009D01*
X83105261Y-71685819D02*
X82629071Y-71685819D01*
X82629071Y-71685819D02*
X82629071Y-70685819D01*
X82629071Y-70685819D02*
X83105261Y-70685819D01*
X83533833Y-71685819D02*
X83533833Y-70685819D01*
X83533833Y-70685819D02*
X84105261Y-71685819D01*
X84105261Y-71685819D02*
X84105261Y-70685819D01*
X84438595Y-70685819D02*
X85010023Y-70685819D01*
X84724309Y-71685819D02*
X84724309Y-70685819D01*
X85343357Y-71162009D02*
X85676690Y-71162009D01*
X85819547Y-71685819D02*
X85343357Y-71685819D01*
X85343357Y-71685819D02*
X85343357Y-70685819D01*
X85343357Y-70685819D02*
X85819547Y-70685819D01*
X86819547Y-71685819D02*
X86486214Y-71209628D01*
X86248119Y-71685819D02*
X86248119Y-70685819D01*
X86248119Y-70685819D02*
X86629071Y-70685819D01*
X86629071Y-70685819D02*
X86724309Y-70733438D01*
X86724309Y-70733438D02*
X86771928Y-70781057D01*
X86771928Y-70781057D02*
X86819547Y-70876295D01*
X86819547Y-70876295D02*
X86819547Y-71019152D01*
X86819547Y-71019152D02*
X86771928Y-71114390D01*
X86771928Y-71114390D02*
X86724309Y-71162009D01*
X86724309Y-71162009D02*
X86629071Y-71209628D01*
X86629071Y-71209628D02*
X86248119Y-71209628D01*
X59356666Y-33464819D02*
X59356666Y-34179104D01*
X59356666Y-34179104D02*
X59309047Y-34321961D01*
X59309047Y-34321961D02*
X59213809Y-34417200D01*
X59213809Y-34417200D02*
X59070952Y-34464819D01*
X59070952Y-34464819D02*
X58975714Y-34464819D01*
X59785238Y-33560057D02*
X59832857Y-33512438D01*
X59832857Y-33512438D02*
X59928095Y-33464819D01*
X59928095Y-33464819D02*
X60166190Y-33464819D01*
X60166190Y-33464819D02*
X60261428Y-33512438D01*
X60261428Y-33512438D02*
X60309047Y-33560057D01*
X60309047Y-33560057D02*
X60356666Y-33655295D01*
X60356666Y-33655295D02*
X60356666Y-33750533D01*
X60356666Y-33750533D02*
X60309047Y-33893390D01*
X60309047Y-33893390D02*
X59737619Y-34464819D01*
X59737619Y-34464819D02*
X60356666Y-34464819D01*
X49633333Y-41841009D02*
X49776190Y-41888628D01*
X49776190Y-41888628D02*
X49823809Y-41936247D01*
X49823809Y-41936247D02*
X49871428Y-42031485D01*
X49871428Y-42031485D02*
X49871428Y-42174342D01*
X49871428Y-42174342D02*
X49823809Y-42269580D01*
X49823809Y-42269580D02*
X49776190Y-42317200D01*
X49776190Y-42317200D02*
X49680952Y-42364819D01*
X49680952Y-42364819D02*
X49300000Y-42364819D01*
X49300000Y-42364819D02*
X49300000Y-41364819D01*
X49300000Y-41364819D02*
X49633333Y-41364819D01*
X49633333Y-41364819D02*
X49728571Y-41412438D01*
X49728571Y-41412438D02*
X49776190Y-41460057D01*
X49776190Y-41460057D02*
X49823809Y-41555295D01*
X49823809Y-41555295D02*
X49823809Y-41650533D01*
X49823809Y-41650533D02*
X49776190Y-41745771D01*
X49776190Y-41745771D02*
X49728571Y-41793390D01*
X49728571Y-41793390D02*
X49633333Y-41841009D01*
X49633333Y-41841009D02*
X49300000Y-41841009D01*
X50300000Y-42364819D02*
X50300000Y-41698152D01*
X50300000Y-41888628D02*
X50347619Y-41793390D01*
X50347619Y-41793390D02*
X50395238Y-41745771D01*
X50395238Y-41745771D02*
X50490476Y-41698152D01*
X50490476Y-41698152D02*
X50585714Y-41698152D01*
X51347619Y-42364819D02*
X51347619Y-41364819D01*
X51347619Y-42317200D02*
X51252381Y-42364819D01*
X51252381Y-42364819D02*
X51061905Y-42364819D01*
X51061905Y-42364819D02*
X50966667Y-42317200D01*
X50966667Y-42317200D02*
X50919048Y-42269580D01*
X50919048Y-42269580D02*
X50871429Y-42174342D01*
X50871429Y-42174342D02*
X50871429Y-41888628D01*
X50871429Y-41888628D02*
X50919048Y-41793390D01*
X50919048Y-41793390D02*
X50966667Y-41745771D01*
X50966667Y-41745771D02*
X51061905Y-41698152D01*
X51061905Y-41698152D02*
X51252381Y-41698152D01*
X51252381Y-41698152D02*
X51347619Y-41745771D01*
X52347619Y-42364819D02*
X51776191Y-42364819D01*
X52061905Y-42364819D02*
X52061905Y-41364819D01*
X52061905Y-41364819D02*
X51966667Y-41507676D01*
X51966667Y-41507676D02*
X51871429Y-41602914D01*
X51871429Y-41602914D02*
X51776191Y-41650533D01*
X44178118Y-71715819D02*
X43701928Y-71715819D01*
X43701928Y-71715819D02*
X43701928Y-70715819D01*
X44511452Y-71192009D02*
X44844785Y-71192009D01*
X44987642Y-71715819D02*
X44511452Y-71715819D01*
X44511452Y-71715819D02*
X44511452Y-70715819D01*
X44511452Y-70715819D02*
X44987642Y-70715819D01*
X45749547Y-71192009D02*
X45416214Y-71192009D01*
X45416214Y-71715819D02*
X45416214Y-70715819D01*
X45416214Y-70715819D02*
X45892404Y-70715819D01*
X46130500Y-70715819D02*
X46701928Y-70715819D01*
X46416214Y-71715819D02*
X46416214Y-70715819D01*
X69197166Y-71685819D02*
X68863833Y-71209628D01*
X68625738Y-71685819D02*
X68625738Y-70685819D01*
X68625738Y-70685819D02*
X69006690Y-70685819D01*
X69006690Y-70685819D02*
X69101928Y-70733438D01*
X69101928Y-70733438D02*
X69149547Y-70781057D01*
X69149547Y-70781057D02*
X69197166Y-70876295D01*
X69197166Y-70876295D02*
X69197166Y-71019152D01*
X69197166Y-71019152D02*
X69149547Y-71114390D01*
X69149547Y-71114390D02*
X69101928Y-71162009D01*
X69101928Y-71162009D02*
X69006690Y-71209628D01*
X69006690Y-71209628D02*
X68625738Y-71209628D01*
X69625738Y-71685819D02*
X69625738Y-70685819D01*
X70625737Y-70733438D02*
X70530499Y-70685819D01*
X70530499Y-70685819D02*
X70387642Y-70685819D01*
X70387642Y-70685819D02*
X70244785Y-70733438D01*
X70244785Y-70733438D02*
X70149547Y-70828676D01*
X70149547Y-70828676D02*
X70101928Y-70923914D01*
X70101928Y-70923914D02*
X70054309Y-71114390D01*
X70054309Y-71114390D02*
X70054309Y-71257247D01*
X70054309Y-71257247D02*
X70101928Y-71447723D01*
X70101928Y-71447723D02*
X70149547Y-71542961D01*
X70149547Y-71542961D02*
X70244785Y-71638200D01*
X70244785Y-71638200D02*
X70387642Y-71685819D01*
X70387642Y-71685819D02*
X70482880Y-71685819D01*
X70482880Y-71685819D02*
X70625737Y-71638200D01*
X70625737Y-71638200D02*
X70673356Y-71590580D01*
X70673356Y-71590580D02*
X70673356Y-71257247D01*
X70673356Y-71257247D02*
X70482880Y-71257247D01*
X71101928Y-71685819D02*
X71101928Y-70685819D01*
X71101928Y-71162009D02*
X71673356Y-71162009D01*
X71673356Y-71685819D02*
X71673356Y-70685819D01*
X72006690Y-70685819D02*
X72578118Y-70685819D01*
X72292404Y-71685819D02*
X72292404Y-70685819D01*
X84152666Y-28989819D02*
X84152666Y-29704104D01*
X84152666Y-29704104D02*
X84105047Y-29846961D01*
X84105047Y-29846961D02*
X84009809Y-29942200D01*
X84009809Y-29942200D02*
X83866952Y-29989819D01*
X83866952Y-29989819D02*
X83771714Y-29989819D01*
X85057428Y-28989819D02*
X84866952Y-28989819D01*
X84866952Y-28989819D02*
X84771714Y-29037438D01*
X84771714Y-29037438D02*
X84724095Y-29085057D01*
X84724095Y-29085057D02*
X84628857Y-29227914D01*
X84628857Y-29227914D02*
X84581238Y-29418390D01*
X84581238Y-29418390D02*
X84581238Y-29799342D01*
X84581238Y-29799342D02*
X84628857Y-29894580D01*
X84628857Y-29894580D02*
X84676476Y-29942200D01*
X84676476Y-29942200D02*
X84771714Y-29989819D01*
X84771714Y-29989819D02*
X84962190Y-29989819D01*
X84962190Y-29989819D02*
X85057428Y-29942200D01*
X85057428Y-29942200D02*
X85105047Y-29894580D01*
X85105047Y-29894580D02*
X85152666Y-29799342D01*
X85152666Y-29799342D02*
X85152666Y-29561247D01*
X85152666Y-29561247D02*
X85105047Y-29466009D01*
X85105047Y-29466009D02*
X85057428Y-29418390D01*
X85057428Y-29418390D02*
X84962190Y-29370771D01*
X84962190Y-29370771D02*
X84771714Y-29370771D01*
X84771714Y-29370771D02*
X84676476Y-29418390D01*
X84676476Y-29418390D02*
X84628857Y-29466009D01*
X84628857Y-29466009D02*
X84581238Y-29561247D01*
X56917786Y-61684819D02*
X56917786Y-62494342D01*
X56917786Y-62494342D02*
X56965405Y-62589580D01*
X56965405Y-62589580D02*
X57013024Y-62637200D01*
X57013024Y-62637200D02*
X57108262Y-62684819D01*
X57108262Y-62684819D02*
X57298738Y-62684819D01*
X57298738Y-62684819D02*
X57393976Y-62637200D01*
X57393976Y-62637200D02*
X57441595Y-62589580D01*
X57441595Y-62589580D02*
X57489214Y-62494342D01*
X57489214Y-62494342D02*
X57489214Y-61684819D01*
X57965405Y-62684819D02*
X57965405Y-61684819D01*
X57965405Y-61684819D02*
X58346357Y-61684819D01*
X58346357Y-61684819D02*
X58441595Y-61732438D01*
X58441595Y-61732438D02*
X58489214Y-61780057D01*
X58489214Y-61780057D02*
X58536833Y-61875295D01*
X58536833Y-61875295D02*
X58536833Y-62018152D01*
X58536833Y-62018152D02*
X58489214Y-62113390D01*
X58489214Y-62113390D02*
X58441595Y-62161009D01*
X58441595Y-62161009D02*
X58346357Y-62208628D01*
X58346357Y-62208628D02*
X57965405Y-62208628D01*
X27606666Y-56394819D02*
X27606666Y-57109104D01*
X27606666Y-57109104D02*
X27559047Y-57251961D01*
X27559047Y-57251961D02*
X27463809Y-57347200D01*
X27463809Y-57347200D02*
X27320952Y-57394819D01*
X27320952Y-57394819D02*
X27225714Y-57394819D01*
X27987619Y-56394819D02*
X28606666Y-56394819D01*
X28606666Y-56394819D02*
X28273333Y-56775771D01*
X28273333Y-56775771D02*
X28416190Y-56775771D01*
X28416190Y-56775771D02*
X28511428Y-56823390D01*
X28511428Y-56823390D02*
X28559047Y-56871009D01*
X28559047Y-56871009D02*
X28606666Y-56966247D01*
X28606666Y-56966247D02*
X28606666Y-57204342D01*
X28606666Y-57204342D02*
X28559047Y-57299580D01*
X28559047Y-57299580D02*
X28511428Y-57347200D01*
X28511428Y-57347200D02*
X28416190Y-57394819D01*
X28416190Y-57394819D02*
X28130476Y-57394819D01*
X28130476Y-57394819D02*
X28035238Y-57347200D01*
X28035238Y-57347200D02*
X27987619Y-57299580D01*
X96867166Y-29704819D02*
X96867166Y-30419104D01*
X96867166Y-30419104D02*
X96819547Y-30561961D01*
X96819547Y-30561961D02*
X96724309Y-30657200D01*
X96724309Y-30657200D02*
X96581452Y-30704819D01*
X96581452Y-30704819D02*
X96486214Y-30704819D01*
X97248119Y-29704819D02*
X97914785Y-29704819D01*
X97914785Y-29704819D02*
X97486214Y-30704819D01*
X55949548Y-71715819D02*
X55949548Y-70715819D01*
X55949548Y-70715819D02*
X56187643Y-70715819D01*
X56187643Y-70715819D02*
X56330500Y-70763438D01*
X56330500Y-70763438D02*
X56425738Y-70858676D01*
X56425738Y-70858676D02*
X56473357Y-70953914D01*
X56473357Y-70953914D02*
X56520976Y-71144390D01*
X56520976Y-71144390D02*
X56520976Y-71287247D01*
X56520976Y-71287247D02*
X56473357Y-71477723D01*
X56473357Y-71477723D02*
X56425738Y-71572961D01*
X56425738Y-71572961D02*
X56330500Y-71668200D01*
X56330500Y-71668200D02*
X56187643Y-71715819D01*
X56187643Y-71715819D02*
X55949548Y-71715819D01*
X57140024Y-70715819D02*
X57330500Y-70715819D01*
X57330500Y-70715819D02*
X57425738Y-70763438D01*
X57425738Y-70763438D02*
X57520976Y-70858676D01*
X57520976Y-70858676D02*
X57568595Y-71049152D01*
X57568595Y-71049152D02*
X57568595Y-71382485D01*
X57568595Y-71382485D02*
X57520976Y-71572961D01*
X57520976Y-71572961D02*
X57425738Y-71668200D01*
X57425738Y-71668200D02*
X57330500Y-71715819D01*
X57330500Y-71715819D02*
X57140024Y-71715819D01*
X57140024Y-71715819D02*
X57044786Y-71668200D01*
X57044786Y-71668200D02*
X56949548Y-71572961D01*
X56949548Y-71572961D02*
X56901929Y-71382485D01*
X56901929Y-71382485D02*
X56901929Y-71049152D01*
X56901929Y-71049152D02*
X56949548Y-70858676D01*
X56949548Y-70858676D02*
X57044786Y-70763438D01*
X57044786Y-70763438D02*
X57140024Y-70715819D01*
X57901929Y-70715819D02*
X58140024Y-71715819D01*
X58140024Y-71715819D02*
X58330500Y-71001533D01*
X58330500Y-71001533D02*
X58520976Y-71715819D01*
X58520976Y-71715819D02*
X58759072Y-70715819D01*
X59140024Y-71715819D02*
X59140024Y-70715819D01*
X59140024Y-70715819D02*
X59711452Y-71715819D01*
X59711452Y-71715819D02*
X59711452Y-70715819D01*
X33532219Y-35481933D02*
X34246504Y-35481933D01*
X34246504Y-35481933D02*
X34389361Y-35529552D01*
X34389361Y-35529552D02*
X34484600Y-35624790D01*
X34484600Y-35624790D02*
X34532219Y-35767647D01*
X34532219Y-35767647D02*
X34532219Y-35862885D01*
X33865552Y-34577171D02*
X34532219Y-34577171D01*
X33484600Y-34815266D02*
X34198885Y-35053361D01*
X34198885Y-35053361D02*
X34198885Y-34434314D01*
X81740476Y-33364819D02*
X81740476Y-32364819D01*
X81740476Y-32364819D02*
X82073809Y-33079104D01*
X82073809Y-33079104D02*
X82407142Y-32364819D01*
X82407142Y-32364819D02*
X82407142Y-33364819D01*
X83407142Y-33364819D02*
X82835714Y-33364819D01*
X83121428Y-33364819D02*
X83121428Y-32364819D01*
X83121428Y-32364819D02*
X83026190Y-32507676D01*
X83026190Y-32507676D02*
X82930952Y-32602914D01*
X82930952Y-32602914D02*
X82835714Y-32650533D01*
X37766666Y-33494819D02*
X37766666Y-34209104D01*
X37766666Y-34209104D02*
X37719047Y-34351961D01*
X37719047Y-34351961D02*
X37623809Y-34447200D01*
X37623809Y-34447200D02*
X37480952Y-34494819D01*
X37480952Y-34494819D02*
X37385714Y-34494819D01*
X38766666Y-34494819D02*
X38195238Y-34494819D01*
X38480952Y-34494819D02*
X38480952Y-33494819D01*
X38480952Y-33494819D02*
X38385714Y-33637676D01*
X38385714Y-33637676D02*
X38290476Y-33732914D01*
X38290476Y-33732914D02*
X38195238Y-33780533D01*
X66788166Y-63184819D02*
X66788166Y-63899104D01*
X66788166Y-63899104D02*
X66740547Y-64041961D01*
X66740547Y-64041961D02*
X66645309Y-64137200D01*
X66645309Y-64137200D02*
X66502452Y-64184819D01*
X66502452Y-64184819D02*
X66407214Y-64184819D01*
X67311976Y-64184819D02*
X67502452Y-64184819D01*
X67502452Y-64184819D02*
X67597690Y-64137200D01*
X67597690Y-64137200D02*
X67645309Y-64089580D01*
X67645309Y-64089580D02*
X67740547Y-63946723D01*
X67740547Y-63946723D02*
X67788166Y-63756247D01*
X67788166Y-63756247D02*
X67788166Y-63375295D01*
X67788166Y-63375295D02*
X67740547Y-63280057D01*
X67740547Y-63280057D02*
X67692928Y-63232438D01*
X67692928Y-63232438D02*
X67597690Y-63184819D01*
X67597690Y-63184819D02*
X67407214Y-63184819D01*
X67407214Y-63184819D02*
X67311976Y-63232438D01*
X67311976Y-63232438D02*
X67264357Y-63280057D01*
X67264357Y-63280057D02*
X67216738Y-63375295D01*
X67216738Y-63375295D02*
X67216738Y-63613390D01*
X67216738Y-63613390D02*
X67264357Y-63708628D01*
X67264357Y-63708628D02*
X67311976Y-63756247D01*
X67311976Y-63756247D02*
X67407214Y-63803866D01*
X67407214Y-63803866D02*
X67597690Y-63803866D01*
X67597690Y-63803866D02*
X67692928Y-63756247D01*
X67692928Y-63756247D02*
X67740547Y-63708628D01*
X67740547Y-63708628D02*
X67788166Y-63613390D01*
D11*
%TO.C,U1*%
X47937500Y-42918600D02*
X44337500Y-42918600D01*
X47937500Y-42918600D02*
X50137500Y-42918600D01*
X47937500Y-49688600D02*
X45737500Y-49688600D01*
X47937500Y-49688600D02*
X50137500Y-49688600D01*
%TO.C,J5*%
X55940000Y-24070000D02*
X55940000Y-25400000D01*
X54610000Y-24070000D02*
X55940000Y-24070000D01*
X53340000Y-24070000D02*
X38040000Y-24070000D01*
X53340000Y-24070000D02*
X53340000Y-26730000D01*
X38040000Y-24070000D02*
X38040000Y-26730000D01*
X53340000Y-26730000D02*
X38040000Y-26730000D01*
%TO.C,ENTER*%
X81470500Y-72051000D02*
X87930500Y-72051000D01*
X81470500Y-72081000D02*
X81470500Y-72051000D01*
X81470500Y-73981000D02*
X81470500Y-76581000D01*
X81470500Y-78511000D02*
X81470500Y-78481000D01*
X81470500Y-78511000D02*
X87930500Y-78511000D01*
X87930500Y-72051000D02*
X87930500Y-72081000D01*
X87930500Y-73981000D02*
X87930500Y-76581000D01*
X87930500Y-78511000D02*
X87930500Y-78481000D01*
%TO.C,J2*%
X58630000Y-35010000D02*
X59690000Y-35010000D01*
X58630000Y-36070000D02*
X58630000Y-35010000D01*
X58630000Y-37070000D02*
X58630000Y-55130000D01*
X58630000Y-37070000D02*
X60750000Y-37070000D01*
X58630000Y-55130000D02*
X60750000Y-55130000D01*
X60750000Y-37070000D02*
X60750000Y-55130000D01*
%TO.C,Brd1*%
X34670000Y-30050000D02*
X62070000Y-30050000D01*
X34670000Y-57350000D02*
X34670000Y-30050000D01*
X35092000Y-33345000D02*
X58192000Y-33345000D01*
X35092000Y-49945000D02*
X35092000Y-33345000D01*
X43371000Y-30539000D02*
X43371000Y-32952000D01*
X43371000Y-30539000D02*
X53150000Y-30539000D01*
X53150000Y-30539000D02*
X53150000Y-32952000D01*
X53150000Y-32952000D02*
X43371000Y-32952000D01*
X58192000Y-33345000D02*
X61278000Y-33345000D01*
X58192000Y-49945000D02*
X35092000Y-49945000D01*
X58192000Y-49945000D02*
X61532000Y-49970000D01*
X61532000Y-33333000D02*
X61278000Y-33345000D01*
X61532000Y-49970000D02*
X61532000Y-33333000D01*
X62070000Y-30050000D02*
X62070000Y-57350000D01*
X62070000Y-57350000D02*
X34670000Y-57350000D01*
%TO.C,LEFT*%
X41900500Y-72081000D02*
X48360500Y-72081000D01*
X41900500Y-72111000D02*
X41900500Y-72081000D01*
X41900500Y-74011000D02*
X41900500Y-76611000D01*
X41900500Y-78541000D02*
X41900500Y-78511000D01*
X41900500Y-78541000D02*
X48360500Y-78541000D01*
X48360500Y-72081000D02*
X48360500Y-72111000D01*
X48360500Y-74011000D02*
X48360500Y-76611000D01*
X48360500Y-78541000D02*
X48360500Y-78511000D01*
%TO.C,RIGHT*%
X67300500Y-72051000D02*
X73760500Y-72051000D01*
X67300500Y-72081000D02*
X67300500Y-72051000D01*
X67300500Y-73981000D02*
X67300500Y-76581000D01*
X67300500Y-78511000D02*
X67300500Y-78481000D01*
X67300500Y-78511000D02*
X73760500Y-78511000D01*
X73760500Y-72051000D02*
X73760500Y-72081000D01*
X73760500Y-73981000D02*
X73760500Y-76581000D01*
X73760500Y-78511000D02*
X73760500Y-78481000D01*
%TO.C,J6*%
X86436000Y-27745000D02*
X85326000Y-27745000D01*
X86436000Y-24035000D02*
X85326000Y-24035000D01*
X84736000Y-28795000D02*
X84486000Y-28295000D01*
X84486000Y-28295000D02*
X84236000Y-28795000D01*
X84236000Y-28795000D02*
X84736000Y-28795000D01*
X83646000Y-27745000D02*
X82536000Y-27745000D01*
X83646000Y-24035000D02*
X82536000Y-24035000D01*
%TO.C,UP*%
X60933500Y-69651000D02*
X54473500Y-69651000D01*
X60933500Y-69621000D02*
X60933500Y-69651000D01*
X60933500Y-67721000D02*
X60933500Y-65121000D01*
X60933500Y-63191000D02*
X60933500Y-63221000D01*
X60933500Y-63191000D02*
X54473500Y-63191000D01*
X54473500Y-69651000D02*
X54473500Y-69621000D01*
X54473500Y-67721000D02*
X54473500Y-65121000D01*
X54473500Y-63191000D02*
X54473500Y-63221000D01*
%TO.C,J3*%
X30540000Y-55940000D02*
X29210000Y-55940000D01*
X30540000Y-54610000D02*
X30540000Y-55940000D01*
X30540000Y-53340000D02*
X30540000Y-43120000D01*
X30540000Y-53340000D02*
X27940000Y-53340000D01*
X30540000Y-43120000D02*
X25340000Y-43120000D01*
X27940000Y-55940000D02*
X25340000Y-55940000D01*
X27940000Y-53340000D02*
X27940000Y-55940000D01*
X25340000Y-55940000D02*
X25340000Y-43120000D01*
%TO.C,J7*%
X95870500Y-34290000D02*
X95870500Y-62290000D01*
X95870500Y-34290000D02*
X98530500Y-34290000D01*
X95870500Y-62290000D02*
X98530500Y-62290000D01*
X97200500Y-31690000D02*
X98530500Y-31690000D01*
X98530500Y-31690000D02*
X98530500Y-33020000D01*
X98530500Y-34290000D02*
X98530500Y-62290000D01*
%TO.C,DOWN*%
X54600500Y-72081000D02*
X61060500Y-72081000D01*
X54600500Y-72111000D02*
X54600500Y-72081000D01*
X54600500Y-74011000D02*
X54600500Y-76611000D01*
X54600500Y-78541000D02*
X54600500Y-78511000D01*
X54600500Y-78541000D02*
X61060500Y-78541000D01*
X61060500Y-72081000D02*
X61060500Y-72111000D01*
X61060500Y-74011000D02*
X61060500Y-76611000D01*
X61060500Y-78541000D02*
X61060500Y-78511000D01*
%TO.C,J4*%
X33287400Y-30038600D02*
X33287400Y-32448600D01*
X30877400Y-30038600D02*
X33287400Y-30038600D01*
X32987400Y-30338600D02*
X24267400Y-30338600D01*
X24267400Y-30338600D02*
X24267400Y-39958600D01*
X31377400Y-30948600D02*
X25877400Y-30948600D01*
X25877400Y-30948600D02*
X25877400Y-33248600D01*
X25877400Y-33248600D02*
X24877400Y-33248600D01*
X24877400Y-33248600D02*
X24877400Y-35848600D01*
X25877400Y-35848600D02*
X25877400Y-36748600D01*
X24877400Y-35848600D02*
X25877400Y-35848600D01*
X25877400Y-36748600D02*
X24877400Y-36748600D01*
X24877400Y-36748600D02*
X24877400Y-39348600D01*
X31377400Y-39348600D02*
X31377400Y-30948600D01*
X24877400Y-39348600D02*
X31377400Y-39348600D01*
X32987400Y-39958600D02*
X32987400Y-30338600D01*
X24267400Y-39958600D02*
X32987400Y-39958600D01*
%TO.C,J1*%
X37040000Y-35040000D02*
X38100000Y-35040000D01*
X37040000Y-36100000D02*
X37040000Y-35040000D01*
X37040000Y-37100000D02*
X37040000Y-55160000D01*
X37040000Y-37100000D02*
X39160000Y-37100000D01*
X37040000Y-55160000D02*
X39160000Y-55160000D01*
X39160000Y-37100000D02*
X39160000Y-55160000D01*
%TO.C,J9*%
X68451500Y-59690000D02*
X68451500Y-31690000D01*
X68451500Y-59690000D02*
X65791500Y-59690000D01*
X68451500Y-31690000D02*
X65791500Y-31690000D01*
X67121500Y-62290000D02*
X65791500Y-62290000D01*
X65791500Y-62290000D02*
X65791500Y-60960000D01*
X65791500Y-59690000D02*
X65791500Y-31690000D01*
%TD*%
M02*
